<svg width="20" height="21" viewBox="0 0 20 21" fill="none" xmlns="http://www.w3.org/2000/svg">
<rect x="2.00195" y="4.30859" width="12.8764" height="8.94194" rx="0.601434" fill="#FF85BF"/>
<circle cx="14.1617" cy="12.8934" r="3.93445" fill="#A065FE"/>
<path fill-rule="evenodd" clip-rule="evenodd" d="M14.8764 9.02213V12.6472C14.8764 12.9793 14.6071 13.2486 14.275 13.2486H10.2413C10.2307 13.131 10.2253 13.0119 10.2253 12.8915C10.2253 10.7185 11.9869 8.95703 14.1598 8.95703C14.4045 8.95703 14.644 8.97938 14.8764 9.02213Z" fill="#7D47E5"/>
<circle cx="5.93163" cy="7.52811" r="1.07303" fill="#FFE1F0"/>
<path fill-rule="evenodd" clip-rule="evenodd" d="M8.01971 10.7471C7.84901 9.73259 6.96651 8.9597 5.90349 8.9597C4.84048 8.9597 3.95797 9.73259 3.78727 10.7471L8.01971 10.7471Z" fill="#FFE1F0"/>
<rect x="8.44162" y="7.16992" width="4.29213" height="0.715355" rx="0.357678" fill="#FFE1F0"/>
<rect x="8.44165" y="8.60156" width="2.50374" height="0.715355" rx="0.357678" fill="#FFE1F0"/>
<g clip-path="url(#clip0_8487_22339)">
<path d="M15.3686 11.3987C15.3521 11.3987 15.3357 11.3946 15.3213 11.3864C14.9263 11.1827 14.5848 11.0963 14.1755 11.0963C13.7682 11.0963 13.3815 11.193 13.0297 11.3864C12.9803 11.4131 12.9186 11.3946 12.8898 11.3452C12.8631 11.2959 12.8816 11.2321 12.931 11.2054C13.3136 10.9976 13.7332 10.8906 14.1755 10.8906C14.6136 10.8906 14.9962 10.9873 15.4159 11.2033C15.4673 11.23 15.4858 11.2918 15.4591 11.3411C15.4406 11.3781 15.4056 11.3987 15.3686 11.3987ZM12.4249 12.4787C12.4043 12.4787 12.3838 12.4725 12.3653 12.4602C12.3179 12.4273 12.3077 12.3635 12.3406 12.3162C12.5442 12.0282 12.8034 11.8019 13.112 11.6435C13.7579 11.3103 14.5848 11.3082 15.2328 11.6415C15.5414 11.7998 15.8006 12.0241 16.0042 12.31C16.0371 12.3553 16.0268 12.4211 15.9795 12.454C15.9322 12.4869 15.8684 12.4766 15.8355 12.4293C15.6504 12.1701 15.4159 11.9665 15.1382 11.8245C14.5478 11.5221 13.7929 11.5221 13.2045 11.8266C12.9248 11.9706 12.6903 12.1763 12.5051 12.4355C12.4887 12.4643 12.4578 12.4787 12.4249 12.4787ZM13.7106 14.9616C13.6838 14.9616 13.6571 14.9513 13.6386 14.9307C13.4596 14.7517 13.3629 14.6365 13.2251 14.3876C13.0832 14.1346 13.0091 13.8261 13.0091 13.4949C13.0091 12.8839 13.5316 12.3861 14.1734 12.3861C14.8152 12.3861 15.3377 12.8839 15.3377 13.4949C15.3377 13.5525 15.2925 13.5977 15.2349 13.5977C15.1773 13.5977 15.132 13.5525 15.132 13.4949C15.132 12.9971 14.7021 12.5918 14.1734 12.5918C13.6448 12.5918 13.2148 12.9971 13.2148 13.4949C13.2148 13.7911 13.2807 14.0647 13.4061 14.2868C13.5378 14.5234 13.6283 14.6242 13.7867 14.7847C13.8258 14.8258 13.8258 14.8896 13.7867 14.9307C13.7641 14.9513 13.7373 14.9616 13.7106 14.9616ZM15.1855 14.581C14.9407 14.581 14.7247 14.5193 14.5478 14.3979C14.2413 14.1902 14.0582 13.8528 14.0582 13.4949C14.0582 13.4373 14.1035 13.392 14.1611 13.392C14.2187 13.392 14.2639 13.4373 14.2639 13.4949C14.2639 13.7849 14.412 14.0585 14.663 14.2272C14.8091 14.3259 14.9798 14.3732 15.1855 14.3732C15.2349 14.3732 15.3171 14.3671 15.3994 14.3527C15.455 14.3424 15.5085 14.3794 15.5187 14.437C15.529 14.4925 15.492 14.546 15.4344 14.5563C15.3171 14.5789 15.2143 14.581 15.1855 14.581ZM14.772 15.0048C14.7638 15.0048 14.7535 15.0027 14.7453 15.0006C14.4182 14.9101 14.2043 14.7888 13.9801 14.5687C13.6921 14.2827 13.5337 13.9022 13.5337 13.4949C13.5337 13.1616 13.8175 12.8901 14.1672 12.8901C14.517 12.8901 14.8008 13.1616 14.8008 13.4949C14.8008 13.715 14.9921 13.8939 15.2287 13.8939C15.4653 13.8939 15.6566 13.715 15.6566 13.4949C15.6566 12.7194 14.988 12.0899 14.1652 12.0899C13.581 12.0899 13.0461 12.4149 12.8055 12.9189C12.7252 13.0855 12.6841 13.2809 12.6841 13.4949C12.6841 13.6553 12.6985 13.9083 12.8219 14.2375C12.8425 14.291 12.8158 14.3506 12.7623 14.3691C12.7088 14.3897 12.6491 14.3609 12.6306 14.3095C12.5298 14.04 12.4805 13.7726 12.4805 13.4949C12.4805 13.248 12.5278 13.0238 12.6203 12.8284C12.8939 12.2545 13.5008 11.8821 14.1652 11.8821C15.1012 11.8821 15.8623 12.6042 15.8623 13.4928C15.8623 13.8261 15.5784 14.0976 15.2287 14.0976C14.879 14.0976 14.5951 13.8261 14.5951 13.4928C14.5951 13.2727 14.4038 13.0937 14.1672 13.0937C13.9307 13.0937 13.7394 13.2727 13.7394 13.4928C13.7394 13.8446 13.8751 14.1737 14.1241 14.4206C14.3195 14.6139 14.5067 14.7209 14.7967 14.8011C14.8523 14.8155 14.8831 14.8731 14.8687 14.9266C14.8584 14.9739 14.8152 15.0048 14.772 15.0048Z" fill="white"/>
</g>
<defs>
<clipPath id="clip0_8487_22339">
<rect width="4.93696" height="4.93696" fill="white" transform="translate(11.7007 10.4785)"/>
</clipPath>
</defs>
</svg>
