<svg width="20" height="21" viewBox="0 0 20 21" fill="none" xmlns="http://www.w3.org/2000/svg">
<path d="M14.5708 5.71387H13.6928V15.8128H5.81863V16.6419C5.81863 17.4184 6.57421 18.0411 7.5047 18.0411H16.2499V7.11659C16.2569 6.34002 15.5013 5.71387 14.5708 5.71387Z" fill="#5AD6A0"/>
<path d="M13.6927 5.71436V4.87482C13.6927 4.09824 12.9371 3.47559 12.0066 3.47559H3.12502V14.6904C3.12502 15.467 3.88059 15.8168 4.81108 15.8168H5.81852V5.71436H13.6927Z" fill="#A065FE"/>
<path d="M13.6928 5.71387H5.81863V15.8128H13.6928V5.71387Z" fill="#7D47E5"/>
<path d="M9.69083 14.1941C9.64094 14.1934 9.59327 14.1733 9.5579 14.1381L8.27411 12.7703C8.24035 12.7357 8.22146 12.6893 8.22146 12.6409C8.22146 12.5926 8.24035 12.5461 8.27411 12.5115C8.29078 12.4939 8.31085 12.4799 8.3331 12.4704C8.35535 12.4608 8.37932 12.4559 8.40354 12.4559C8.42776 12.4559 8.45172 12.4608 8.47397 12.4704C8.49622 12.4799 8.51629 12.4939 8.53296 12.5115L9.68034 13.7323L11.9611 11.3082C11.9945 11.2729 12.0405 11.2524 12.0891 11.251C12.1376 11.2497 12.1847 11.2678 12.22 11.3012C12.2552 11.3346 12.2757 11.3806 12.277 11.4291C12.2784 11.4777 12.2603 11.5248 12.2269 11.56L9.81327 14.1276C9.7822 14.1643 9.73851 14.188 9.69083 14.1941Z" fill="white"/>
</svg>
