<svg width="20" height="21" viewBox="0 0 20 21" fill="none" xmlns="http://www.w3.org/2000/svg">
<g clip-path="url(#clip0_8487_22333)">
<path d="M11.1626 9.6379C11.1141 9.64037 11.0656 9.63304 11.0198 9.61635C10.9741 9.59966 10.9321 9.57394 10.8962 9.54067C10.8604 9.5074 10.8314 9.46725 10.8109 9.42253C10.7904 9.37781 10.7789 9.32941 10.7769 9.28014V6.20096L8.96896 5.51908C8.82319 5.46402 8.66275 5.46402 8.51697 5.51908L4.02717 7.2192C3.90507 7.26692 3.79989 7.3507 3.72522 7.45973C3.65055 7.56875 3.60983 7.698 3.60832 7.83076V12.13C3.60668 12.1503 3.60668 12.1708 3.60832 12.1911C3.68064 12.555 4.43999 15.888 8.49588 17.6951C8.57412 17.7284 8.65812 17.7456 8.74297 17.7456C8.82782 17.7456 8.91181 17.7284 8.99006 17.6951C13.2087 15.9186 13.8294 12.5183 13.8806 12.1911C13.8822 12.1749 13.8822 12.1585 13.8806 12.1422V9.6379H11.1687H11.1626Z" fill="#5AD6A0"/>
<path d="M16.0532 5.71479H14.8479V4.85861C14.8316 4.51088 14.684 4.18287 14.4357 3.94263C14.1874 3.70238 13.8575 3.56836 13.5145 3.56836C13.1714 3.56836 12.8415 3.70238 12.5933 3.94263C12.345 4.18287 12.1974 4.51088 12.1811 4.85861V5.71479H11.1626C11.1139 5.71274 11.0653 5.72045 11.0196 5.73748C10.9738 5.75451 10.9319 5.78053 10.896 5.81404C10.8602 5.84756 10.8313 5.88791 10.8108 5.93279C10.7904 5.97767 10.7789 6.0262 10.7769 6.07561V6.20097L12.0455 6.6841L12.2082 6.74526C12.2544 7.06568 12.4125 7.35862 12.6536 7.57075C12.8947 7.78289 13.2029 7.90011 13.522 7.9011C13.6447 7.89919 13.7664 7.87963 13.8836 7.843V9.63791H16.0532C16.1017 9.64038 16.1503 9.63305 16.196 9.61636C16.2417 9.59967 16.2837 9.57395 16.3196 9.54068C16.3555 9.50741 16.3845 9.46726 16.4049 9.42254C16.4254 9.37782 16.437 9.32942 16.4389 9.28015V6.07561C16.437 6.0262 16.4254 5.97767 16.405 5.93279C16.3845 5.88791 16.3556 5.84756 16.3198 5.81404C16.2839 5.78053 16.242 5.75451 16.1962 5.73748C16.1505 5.72045 16.1019 5.71274 16.0532 5.71479ZM12.8049 4.85861C12.8049 4.66398 12.8811 4.47732 13.0167 4.33969C13.1523 4.20206 13.3362 4.12475 13.528 4.12475C13.7199 4.12475 13.9038 4.20206 14.0394 4.33969C14.175 4.47732 14.2512 4.66398 14.2512 4.85861V5.71479H12.8049V4.85861ZM12.9947 7.04186L13.4708 7.21921C13.5049 7.23676 13.5381 7.25615 13.5702 7.27731H13.528C13.4279 7.27767 13.3288 7.25692 13.237 7.2164C13.1452 7.17587 13.0627 7.11643 12.9947 7.04186Z" fill="#FFDD7F"/>
<path d="M13.8896 7.83378C13.889 7.70082 13.8486 7.57119 13.7738 7.46201C13.699 7.35283 13.5934 7.26922 13.4708 7.22222L12.0455 6.68406L10.7769 6.20093V9.2801C10.7788 9.32938 10.7904 9.37777 10.8109 9.42249C10.8313 9.46721 10.8604 9.50736 10.8962 9.54063C10.9321 9.5739 10.9741 9.59963 11.0198 9.61631C11.0656 9.633 11.1141 9.64033 11.1626 9.63786H13.8746V7.83378H13.8896Z" fill="#5AD6A0"/>
<path d="M13.8896 7.83378C13.889 7.70082 13.8486 7.57119 13.7738 7.46201C13.699 7.35283 13.5934 7.26922 13.4708 7.22222L12.0455 6.68406L10.7769 6.20093V9.2801C10.7788 9.32938 10.7904 9.37777 10.8109 9.42249C10.8313 9.46721 10.8604 9.50736 10.8962 9.54063C10.9321 9.5739 10.9741 9.59963 11.0198 9.61631C11.0656 9.633 11.1141 9.64033 11.1626 9.63786H13.8746V7.83378H13.8896Z" fill="#06C16E"/>
<path d="M8.66467 12.6803C8.64381 12.68 8.6232 12.6756 8.60406 12.6672C8.58491 12.6588 8.56761 12.6466 8.55317 12.6313L7.49852 11.4908C7.4844 11.4766 7.47319 11.4597 7.46554 11.441C7.45789 11.4224 7.45396 11.4024 7.45396 11.3822C7.45396 11.3621 7.45789 11.3421 7.46554 11.3234C7.47319 11.3048 7.4844 11.2879 7.49852 11.2737C7.51253 11.2594 7.52919 11.248 7.54755 11.2402C7.56591 11.2325 7.58561 11.2285 7.60549 11.2285C7.62538 11.2285 7.64508 11.2325 7.66344 11.2402C7.6818 11.248 7.69846 11.2594 7.71247 11.2737L8.65864 12.295L10.5389 10.2707C10.5665 10.2411 10.6045 10.2239 10.6447 10.2227C10.6848 10.2216 10.7237 10.2366 10.7529 10.2646C10.782 10.2926 10.7991 10.3312 10.8002 10.3719C10.8013 10.4126 10.7865 10.4521 10.7589 10.4817L8.77314 12.6222C8.76009 12.639 8.74368 12.6529 8.725 12.6629C8.70631 12.6729 8.68575 12.6788 8.66467 12.6803Z" fill="#C2EFDA"/>
</g>
<defs>
<clipPath id="clip0_8487_22333">
<rect width="12.8306" height="14.2339" fill="white" transform="translate(3.6086 3.50708)"/>
</clipPath>
</defs>
</svg>
