<svg width="20" height="21" viewBox="0 0 20 21" fill="none" xmlns="http://www.w3.org/2000/svg">
<path d="M10.4426 8.82281V6.66406H3.82747C3.71854 6.66406 3.61068 6.68536 3.51008 6.72675C3.40948 6.76813 3.31812 6.82878 3.24123 6.90522C3.16434 6.98167 3.10344 7.07239 3.06202 7.1722C3.0206 7.27201 2.99947 7.37894 2.99985 7.48685V13.6363C2.99985 13.6563 2.99985 13.6764 2.99985 13.6993V16.0158C3.00091 16.0685 3.01664 16.12 3.04532 16.1644C3.07399 16.2089 3.11449 16.2446 3.16237 16.2678C3.21024 16.2909 3.26362 16.3005 3.31664 16.2955C3.36966 16.2905 3.42025 16.271 3.46285 16.2394L5.77786 14.4562H12.8676C12.9772 14.4577 13.0861 14.4376 13.1878 14.3971C13.2896 14.3566 13.3822 14.2964 13.4603 14.2201C13.5384 14.1438 13.6004 14.0529 13.6427 13.9527C13.685 13.8525 13.7068 13.7449 13.7068 13.6363V9.27291H10.8998C10.8399 9.27328 10.7805 9.26192 10.7251 9.23947C10.6696 9.21702 10.6192 9.18393 10.5767 9.14209C10.5342 9.10026 10.5005 9.05051 10.4775 8.99572C10.4544 8.94092 10.4426 8.88216 10.4426 8.82281Z" fill="#FFDD7F"/>
<path d="M16.5456 4.49959H10.8969C10.7765 4.49959 10.6609 4.54701 10.5757 4.63142C10.4905 4.71583 10.4426 4.83032 10.4426 4.94969V6.66981H12.8763C12.985 6.66943 13.0927 6.69027 13.1932 6.73112C13.2938 6.77198 13.3852 6.83206 13.4623 6.90793C13.5395 6.9838 13.6007 7.07398 13.6427 7.17331C13.6846 7.27264 13.7064 7.37919 13.7068 7.48686V9.27292H14.9858L16.7018 10.5917C16.7278 10.6131 16.7595 10.6267 16.793 10.6308C16.8266 10.6349 16.8606 10.6294 16.8911 10.6149C16.9216 10.6004 16.9472 10.5775 16.965 10.549C16.9827 10.5205 16.9918 10.4876 16.9912 10.4541V8.93749C17.0028 8.90036 17.0087 8.8617 17.0086 8.82282V4.94969C17.0086 4.88985 16.9965 4.83061 16.9732 4.77544C16.9498 4.72026 16.9156 4.67025 16.8724 4.62834C16.8293 4.58643 16.7782 4.55346 16.7221 4.53136C16.666 4.50925 16.606 4.49845 16.5456 4.49959Z" fill="#A065FE"/>
<path d="M12.8763 6.66407H10.4426V8.82281C10.4426 8.94219 10.4905 9.05667 10.5757 9.14108C10.6609 9.22549 10.7765 9.27291 10.8969 9.27291H13.7068V7.48686C13.7072 7.3787 13.6859 7.27154 13.6443 7.17154C13.6027 7.07154 13.5416 6.98069 13.4644 6.90421C13.3872 6.82773 13.2955 6.76714 13.1946 6.72593C13.0936 6.68471 12.9854 6.66369 12.8763 6.66407Z" fill="#7D47E5"/>
<path d="M7.55169 11.4003H6.79931C6.54375 11.4003 6.29865 11.2997 6.11793 11.1207C5.93722 10.9416 5.83569 10.6988 5.83569 10.4456C5.83569 10.1924 5.93722 9.94962 6.11793 9.77058C6.29865 9.59155 6.54375 9.49097 6.79931 9.49097H7.80055C8.05589 9.49172 8.30055 9.59255 8.48109 9.77142C8.66164 9.95029 8.76341 10.1927 8.76418 10.4456C8.76344 10.4819 8.74856 10.5165 8.72267 10.5421C8.69678 10.5678 8.66188 10.5825 8.62528 10.5832C8.58844 10.5832 8.55311 10.5687 8.52706 10.5429C8.50101 10.5171 8.48637 10.4821 8.48637 10.4456C8.48637 10.2654 8.41412 10.0926 8.2855 9.96519C8.15689 9.83777 7.98245 9.76619 7.80055 9.76619H6.79931C6.61742 9.76619 6.44298 9.83777 6.31437 9.96519C6.18575 10.0926 6.11349 10.2654 6.11349 10.4456C6.11349 10.6258 6.18575 10.7987 6.31437 10.9261C6.44298 11.0535 6.61742 11.1251 6.79931 11.1251H7.55169C7.58853 11.1251 7.62386 11.1396 7.64991 11.1654C7.67596 11.1912 7.69059 11.2262 7.69059 11.2627C7.68985 11.299 7.67498 11.3335 7.64909 11.3592C7.6232 11.3848 7.5883 11.3996 7.55169 11.4003Z" fill="#FFBE0C"/>
<path d="M10.0143 11.9536H9.01308C8.75774 11.9528 8.51308 11.852 8.33254 11.6731C8.15199 11.4942 8.05022 11.2518 8.04945 10.9989C8.04945 10.9624 8.06409 10.9274 8.09014 10.9016C8.11619 10.8758 8.15152 10.8613 8.18835 10.8613C8.2067 10.8609 8.22494 10.8642 8.24197 10.871C8.259 10.8777 8.27447 10.8879 8.28745 10.9007C8.30043 10.9136 8.31064 10.9289 8.31749 10.9458C8.32433 10.9626 8.32765 10.9807 8.32725 10.9989C8.32802 11.1789 8.40052 11.3512 8.52897 11.4785C8.65742 11.6058 8.83142 11.6776 9.01308 11.6783H10.0143C10.1962 11.6783 10.3706 11.6067 10.4993 11.4793C10.6279 11.3519 10.7001 11.1791 10.7001 10.9989C10.7001 10.8187 10.6279 10.6459 10.4993 10.5184C10.3706 10.391 10.1962 10.3194 10.0143 10.3194H9.28219C9.24536 10.3194 9.21003 10.3049 9.18398 10.2791C9.15793 10.2533 9.14329 10.2183 9.14329 10.1818C9.1429 10.1637 9.14622 10.1456 9.15306 10.1287C9.1599 10.1118 9.17012 10.0965 9.1831 10.0837C9.19608 10.0708 9.21155 10.0607 9.22858 10.0539C9.24561 10.0471 9.26385 10.0438 9.28219 10.0442H10.0143C10.2699 10.0442 10.515 10.1448 10.6957 10.3238C10.8764 10.5029 10.9779 10.7457 10.9779 10.9989C10.9779 11.2521 10.8764 11.4949 10.6957 11.6739C10.515 11.853 10.2699 11.9536 10.0143 11.9536Z" fill="#FFBE0C"/>
</svg>
