<svg width="130" height="48" viewBox="0 0 130 48" fill="none" xmlns="http://www.w3.org/2000/svg">
<g clip-path="url(#clip0_9219_23211)">
<path fill-rule="evenodd" clip-rule="evenodd" d="M37.16 11H12V36.16H37.16V11ZM19.382 17.1219L23.742 25.2569L23.746 30.542H25.423V25.3419L29.783 17.1219H27.938L25.422 22.2379L25.4181 22.2439C25.2514 22.4939 25.0854 22.7429 25.002 22.9929C24.9542 23.186 24.8782 23.3235 24.8062 23.4537C24.7533 23.5494 24.7026 23.6411 24.667 23.7479C24.625 23.7064 24.604 23.6435 24.5829 23.5805C24.562 23.5178 24.541 23.4549 24.499 23.4129C24.457 23.3289 24.436 23.2659 24.415 23.2029C24.394 23.1399 24.373 23.0769 24.331 22.9929V22.9089L24.247 22.8249C24.2148 22.761 24.195 22.7091 24.178 22.6649C24.1507 22.5936 24.1308 22.5418 24.079 22.4899L24.079 22.4899C23.995 22.4059 23.911 22.3219 23.911 22.2379L21.395 17.1219H19.382Z" fill="white"/>
<path d="M47.232 19.8449C48.292 19.8449 49.212 20.1279 49.92 20.6949L49.213 21.5449C48.576 21.1209 47.94 20.8379 47.163 20.8379C45.96 20.8379 45.041 21.4749 44.546 22.6779C44.263 23.3849 44.122 24.3049 44.122 25.5079C44.122 26.4279 44.262 27.2059 44.476 27.7719C45.042 29.1159 45.962 29.7519 47.376 29.7519C48.154 29.7519 48.862 29.5399 49.498 29.0449L50.205 29.9649C49.285 30.5309 48.305 30.8149 47.235 30.8149C45.962 30.8149 44.901 30.3199 44.052 29.2589C43.202 28.2589 42.849 26.9249 42.849 25.2989C42.849 23.6729 43.273 22.3989 44.122 21.3389C44.9 20.4189 45.962 19.8529 47.235 19.8529L47.232 19.8449ZM51.264 26.8479C51.264 25.5749 51.547 24.5839 52.184 23.8779C52.821 23.1719 53.599 22.7459 54.589 22.7459C55.721 22.7459 56.639 23.1699 57.277 24.0899C57.772 24.7969 57.984 25.7879 57.984 26.9899C57.984 28.4049 57.56 29.5369 56.781 30.2439C56.1953 30.7585 55.4385 31.0359 54.659 31.0219C53.599 31.0219 52.819 30.6679 52.183 29.8899C51.546 29.1829 51.264 28.1219 51.264 26.8479ZM56.216 24.7979C55.862 24.1609 55.366 23.7979 54.589 23.7979C53.812 23.7979 53.316 24.0809 52.962 24.6479C52.679 25.0719 52.608 25.7799 52.608 26.6979C52.608 27.9009 52.748 28.7479 53.103 29.2449C53.458 29.7419 53.953 30.0229 54.659 30.0229C55.509 30.0229 56.074 29.5989 56.357 28.8199C56.497 28.3959 56.569 27.8199 56.569 27.1219C56.639 26.0619 56.499 25.2819 56.215 24.7879L56.216 24.7979ZM60.246 24.9379C60.246 24.1599 60.176 23.5229 59.963 23.0379L61.166 22.7549C61.378 23.1089 61.449 23.5329 61.449 23.8869V23.9569C61.732 23.6739 62.015 23.3909 62.449 23.1789C62.944 22.8959 63.369 22.7549 63.793 22.7549C64.43 22.7549 64.996 23.0379 65.349 23.5329C65.419 23.6729 65.561 23.8869 65.632 24.0279C66.482 23.1779 67.259 22.7549 68.108 22.7549C68.674 22.7549 69.168 22.9669 69.523 23.3209C69.877 23.7449 70.089 24.2409 70.089 24.8069V30.6769H68.797V24.8769C68.797 24.0989 68.443 23.7449 67.797 23.7449C67.443 23.7449 67.019 23.8849 66.665 24.1689C66.525 24.3089 66.241 24.5229 65.887 24.8059L65.747 24.9459V30.6759H64.403V25.1499C64.403 24.6549 64.333 24.2999 64.191 24.1499C63.979 23.9379 63.767 23.8669 63.413 23.8669C62.847 23.8669 62.21 24.2209 61.433 24.9269V30.7269H60.247L60.246 24.9379ZM72.273 19.5619L73.546 19.2789C73.686 19.8449 73.758 20.4819 73.758 21.2589V23.8759C74.465 23.1689 75.244 22.8159 76.022 22.8159C76.942 22.8159 77.72 23.1699 78.215 23.8759C78.781 24.5829 79.065 25.5739 79.065 26.7759C79.065 28.0489 78.782 29.0399 78.215 29.8179C77.648 30.5959 76.871 30.9499 75.951 30.9499C75.5326 30.9578 75.119 30.8605 74.748 30.6669C74.324 30.4549 74.041 30.2429 73.828 29.9599L73.616 30.8099H72.413C72.553 30.4559 72.625 29.8099 72.625 28.8299V21.3999C72.555 20.5499 72.485 19.9139 72.271 19.5599L72.273 19.5619ZM74.323 24.3619C74.111 24.5019 73.899 24.7159 73.757 24.9279V28.9799C74.252 29.6169 74.889 29.8999 75.657 29.8999C76.294 29.8999 76.789 29.6879 77.072 29.1929C77.426 28.6269 77.638 27.8489 77.638 26.7169C77.638 25.7169 77.498 25.0189 77.143 24.5949C76.86 24.1709 76.365 23.9579 75.657 23.9579C75.233 23.8879 74.737 24.0279 74.313 24.3819L74.323 24.3619ZM80.903 20.5619C80.903 20.2789 80.973 20.0669 81.186 19.8549C81.399 19.6429 81.61 19.5719 81.893 19.5719C82.176 19.5719 82.388 19.6419 82.6 19.8549C82.812 20.0679 82.883 20.2789 82.883 20.5619C82.883 20.8449 82.813 21.0569 82.6 21.2689C82.387 21.4809 82.176 21.5519 81.893 21.5519C81.61 21.5519 81.398 21.4819 81.186 21.2689C80.974 21.0559 80.903 20.8449 80.903 20.5619ZM81.197 30.7399V22.9599L82.47 22.7479V30.7419L81.197 30.7399ZM85.219 24.9379C85.219 24.3719 85.219 24.0179 85.149 23.8779C85.149 23.6659 85.009 23.4539 84.866 23.0999L86.069 22.7459C86.2625 23.1169 86.3598 23.5306 86.352 23.9489C87.13 23.1709 87.979 22.7459 88.828 22.7459C89.252 22.7459 89.606 22.8159 89.96 23.0289C90.314 23.2419 90.597 23.5239 90.738 23.8789C90.878 24.1619 90.95 24.4449 90.95 24.7989V30.7409H89.747V25.4359C89.747 24.7989 89.677 24.3759 89.464 24.1629C89.3537 24.0496 89.2217 23.9598 89.0757 23.899C88.9298 23.8382 88.7731 23.8075 88.615 23.8089C88.332 23.8089 87.908 23.9489 87.483 24.1629C87.0899 24.3638 86.7317 24.6264 86.422 24.9409V30.7409H85.219V24.9379ZM93.779 24.6549L93.142 23.8049C94.202 23.0979 95.264 22.7449 96.396 22.7449C97.528 22.7449 98.236 23.1689 98.589 23.9479C98.729 24.2309 98.729 24.6549 98.729 25.2919V25.7159L98.659 28.2629V28.6169C98.659 29.0409 98.659 29.3239 98.729 29.5369C98.799 29.8199 99.012 30.0319 99.295 30.1739L98.658 31.0239C98.092 30.8119 97.738 30.4579 97.598 29.8919C96.891 30.5989 96.112 30.9519 95.334 30.9519C94.556 30.9519 93.919 30.7399 93.434 30.3149C93.01 29.9609 92.797 29.3949 92.797 28.6879C92.7784 28.283 92.8666 27.8804 93.0528 27.5203C93.2391 27.1603 93.5168 26.8557 93.858 26.6369C94.565 26.1419 95.626 25.9299 96.9 25.9299H97.466V25.3639C97.466 24.7269 97.396 24.3039 97.183 24.1609C97.0489 24.016 96.8842 23.9028 96.7008 23.8294C96.5175 23.7561 96.3201 23.7245 96.123 23.7369C95.699 23.7369 95.203 23.8769 94.637 24.0909L93.787 24.6569L93.779 24.6549ZM97.529 28.8289L97.599 26.7789H96.962C95.83 26.7789 95.122 26.9909 94.698 27.4159C94.415 27.6989 94.274 28.1229 94.274 28.6889C94.274 29.6089 94.698 30.1039 95.618 30.1039C96.0196 30.0809 96.4076 29.9507 96.7418 29.7268C97.076 29.503 97.344 29.1936 97.518 28.8309L97.529 28.8289ZM102.763 22.9569H104.743L104.389 23.9569H102.762V28.9799C102.762 29.4039 102.832 29.6869 102.974 29.8999C103.114 30.0399 103.398 30.1829 103.752 30.1829C104.035 30.1829 104.318 30.1129 104.53 30.0429L104.67 30.8209C104.246 31.0329 103.82 31.1039 103.326 31.1039C102.123 31.1039 101.558 30.5379 101.558 29.3359V23.9599H100.497V22.9599H101.497V22.8199C101.497 22.6799 101.567 22.1129 101.637 21.1929V20.9799L102.91 20.6969C102.77 21.5469 102.77 22.3239 102.77 22.9609L102.763 22.9569ZM106.017 26.8469C106.017 25.5739 106.3 24.5829 106.937 23.8769C107.503 23.1699 108.352 22.7449 109.342 22.7449C110.474 22.7449 111.392 23.1689 112.03 24.0889C112.525 24.7959 112.737 25.7869 112.737 26.9889C112.737 28.4039 112.313 29.5359 111.534 30.2429C110.948 30.7575 110.192 31.0349 109.412 31.0209C108.352 31.0209 107.572 30.6669 106.936 29.8889C106.37 29.1819 106.017 28.1209 106.017 26.8469ZM111.04 24.7969C110.686 24.1599 110.19 23.7969 109.413 23.7969C108.636 23.7969 108.14 24.0799 107.786 24.6469C107.503 25.0709 107.432 25.7789 107.432 26.6969C107.432 27.8999 107.572 28.7469 107.927 29.2439C108.282 29.7409 108.777 30.0219 109.483 30.0219C110.333 30.0219 110.898 29.5979 111.181 28.8189C111.321 28.3949 111.393 27.8189 111.393 27.1209C111.393 26.0609 111.253 25.2809 111.039 24.7869L111.04 24.7969ZM115.07 24.7949C115.07 24.0879 115 23.5219 114.787 23.0969L115.99 22.7429C116.184 23.1139 116.281 23.5276 116.273 23.9459V24.0859C116.91 23.2359 117.617 22.8129 118.466 22.8129C118.606 22.8129 118.749 22.8129 118.89 22.8829L118.395 24.2269C118.255 24.1569 118.112 24.1569 118.041 24.1569C117.758 24.1569 117.404 24.2269 117.121 24.4399C116.838 24.6529 116.555 24.8639 116.414 25.1469C116.321 25.4203 116.273 25.7071 116.273 25.9959V30.8759H115.07V24.7949Z" fill="white"/>
</g>
<defs>
<clipPath id="clip0_9219_23211">
<rect width="130" height="48" fill="white"/>
</clipPath>
</defs>
</svg>
