<svg width="20" height="21" viewBox="0 0 20 21" fill="none" xmlns="http://www.w3.org/2000/svg">
<g clip-path="url(#clip0_8487_22271)">
<path d="M8.25343 10.6624C8.25341 9.90412 8.40901 9.15393 8.71058 8.45823C9.01216 7.76253 9.4533 7.13613 10.0067 6.61778C9.21638 5.87199 8.22496 5.37397 7.15483 5.18519C6.08471 4.99641 4.98272 5.12514 3.98492 5.55548C2.98712 5.98583 2.13719 6.69896 1.54004 7.60683C0.942894 8.51469 0.62468 9.57756 0.62468 10.6642C0.62468 11.7509 0.942894 12.8137 1.54004 13.7216C2.13719 14.6294 2.98712 15.3426 3.98492 15.7729C4.98272 16.2033 6.08471 16.332 7.15483 16.1432C8.22496 15.9544 9.21638 15.4564 10.0067 14.7106C9.45354 14.1913 9.0126 13.5642 8.71106 12.868C8.40953 12.1717 8.25378 11.4211 8.25343 10.6624Z" fill="#FFDD7F"/>
<path d="M13.8168 5.10254C12.3989 5.10174 11.0349 5.64552 10.0064 6.62155C10.56 7.14022 11.0012 7.76695 11.3028 8.46295C11.6044 9.15895 11.7601 9.90943 11.7601 10.668C11.7601 11.4265 11.6044 12.177 11.3028 12.873C11.0012 13.569 10.56 14.1958 10.0064 14.7144C10.6673 15.3375 11.4707 15.7892 12.3464 16.0303C13.2221 16.2713 14.1435 16.2943 15.0301 16.0972C15.9167 15.9001 16.7416 15.489 17.4328 14.8997C18.1239 14.3104 18.6602 13.5608 18.9949 12.7165C19.3297 11.8721 19.4526 10.9587 19.3529 10.0559C19.2533 9.1531 18.9342 8.28843 18.4234 7.53739C17.9126 6.78635 17.2257 6.17179 16.4227 5.74736C15.6197 5.32293 14.7251 5.10154 13.8168 5.10254Z" fill="#5AD6A0"/>
<path d="M11.7602 10.6618C11.7602 9.90353 11.6047 9.15335 11.3031 8.45765C11.0015 7.76195 10.5604 7.13554 10.007 6.61719C9.45345 7.13586 9.01223 7.76257 8.7106 8.45857C8.40897 9.15458 8.25334 9.90507 8.25334 10.6636C8.25334 11.4222 8.40897 12.1726 8.7106 12.8687C9.01223 13.5647 9.45345 14.1914 10.007 14.71C10.5601 14.1907 11.0011 13.5636 11.3026 12.8674C11.6041 12.1711 11.7599 11.4205 11.7602 10.6618Z" fill="#06C16E"/>
</g>
<defs>
<clipPath id="clip0_8487_22271">
<rect width="19.9999" height="19.9999" fill="white" transform="translate(-0.000244141 0.5)"/>
</clipPath>
</defs>
</svg>
