<svg width="100" height="100" viewBox="0 0 100 100" fill="none" xmlns="http://www.w3.org/2000/svg">
<path fill-rule="evenodd" clip-rule="evenodd" d="M74.4485 49.9978C74.4485 51.3806 74.3638 52.6796 74.1946 53.9367L78.4467 57.2471L82.6989 60.5575C83.5027 61.1441 83.7143 62.1917 83.2066 63.1136L75.0831 77.0255C74.5754 77.9474 73.5176 78.2826 72.5868 77.9474L67.5308 75.936L62.4748 73.9246C60.4016 75.517 58.1169 76.8579 55.6206 77.8636L54.0975 88.507C53.9705 89.5127 53.1243 90.2251 52.1089 90.2251H35.8619C34.8465 90.2251 34.0426 89.5127 33.8311 88.507L32.3079 77.8636C29.8116 76.8579 27.5692 75.517 25.4537 73.9246L15.3417 77.9474C14.4109 78.2407 13.3532 77.9474 12.8454 77.0255L4.72196 63.1136C4.25655 62.2755 4.4681 61.1441 5.22968 60.5575L13.8186 53.9367C13.607 52.6796 13.5224 51.2968 13.5224 49.9978C13.5224 48.6988 13.6916 47.316 13.9032 46.0589L5.3143 39.4382C4.4681 38.8515 4.29886 37.7621 4.80658 36.8821L12.8877 22.9702C13.3955 22.0483 14.4532 21.7131 15.384 22.0483L25.4961 26.071C27.5692 24.5206 29.854 23.1378 32.3502 22.1321L33.8734 11.4887C34.0426 10.483 34.8465 9.77063 35.8619 9.77063H52.1089C53.1243 9.77063 53.9705 10.483 54.1398 11.4887L55.6629 22.1321C58.1592 23.1378 60.4016 24.4787 62.5171 26.071L72.6291 22.0483C73.56 21.755 74.6177 22.0483 75.1254 22.9702L83.2489 36.8821C83.7143 37.7202 83.5027 38.8515 82.7412 39.4382L74.1523 46.0589C74.3638 47.316 74.4485 48.6569 74.4485 49.9978ZM43.9868 67.3326C53.561 67.3326 61.3224 59.5711 61.3224 49.9969C61.3224 40.4228 53.561 32.6613 43.9868 32.6613C34.4126 32.6613 26.6512 40.4228 26.6512 49.9969C26.6512 59.5711 34.4126 67.3326 43.9868 67.3326Z" fill="#FF82BC"/>
<path d="M50.117 45.1439L49.5056 47.2299H37.8525L38.464 45.1439H50.117ZM44.6502 59.2067L38.0683 51.1503L38.0324 49.6397H41.3053C42.1565 49.6397 42.8818 49.5198 43.4812 49.28C44.0807 49.0342 44.5393 48.6686 44.857 48.183C45.1747 47.6915 45.3335 47.0741 45.3335 46.3308C45.3335 45.2338 45.0038 44.3736 44.3444 43.7502C43.6851 43.1208 42.672 42.8061 41.3053 42.8061H37.8525L38.464 40.792H41.3053C42.7679 40.792 43.9668 41.0348 44.9019 41.5203C45.843 41.9999 46.5384 42.6592 46.988 43.4984C47.4435 44.3317 47.6713 45.2758 47.6713 46.3308C47.6713 47.2839 47.4615 48.1621 47.0419 48.9653C46.6283 49.7626 45.9629 50.404 45.0458 50.8895C44.1346 51.375 42.9298 51.6178 41.4312 51.6178H41.3772L47.4555 59.0628V59.2067H44.6502ZM50.117 40.792L49.5056 42.878L40.3342 42.8061L40.9456 40.792H50.117Z" fill="#F7ACCE"/>
<path d="M24.0513 38.3314L24.8562 31.6439L30.2453 35.6847L24.0513 38.3314ZM35.2728 28.6069L35.0528 28.0667L35.2728 28.6069ZM50.0953 27.7232L49.941 28.2857L50.0953 27.7232ZM62.3928 36.0454L62.8577 35.693L62.3928 36.0454ZM26.7767 33.7306C29.0854 31.2883 31.9022 29.35 35.0528 28.0667L35.4928 29.1472C32.4975 30.3672 29.8195 32.21 27.6245 34.532L26.7767 33.7306ZM35.0528 28.0667C39.8806 26.1002 45.2223 25.7817 50.2496 27.1606L49.941 28.2857C45.1614 26.9748 40.0828 27.2776 35.4928 29.1472L35.0528 28.0667ZM50.2496 27.1606C55.2769 28.5395 59.7087 31.5387 62.8577 35.693L61.9279 36.3978C58.9341 32.4481 54.7206 29.5967 49.941 28.2857L50.2496 27.1606ZM62.8577 35.693C66.0067 39.8474 67.6968 44.9247 67.6661 50.1376L66.4995 50.1307C66.5287 45.1746 64.9218 40.3475 61.9279 36.3978L62.8577 35.693Z" fill="#EBEBEB"/>
<path d="M63.9228 61.6661L57.7289 64.3127L63.1179 68.3535L63.9228 61.6661ZM52.7013 71.3906L52.4813 70.8503L52.7013 71.3906ZM37.8788 72.2743L38.0331 71.7117L37.8788 72.2743ZM25.5814 63.9521L26.0462 63.5997L25.5814 63.9521ZM60.3496 65.4655C58.1547 67.7874 55.4766 69.6302 52.4813 70.8503L52.9214 71.9308C56.072 70.6475 58.8888 68.7092 61.1974 66.2669L60.3496 65.4655ZM52.4813 70.8503C47.8913 72.7199 42.8127 73.0227 38.0331 71.7117L37.7245 72.8369C42.7518 74.2157 48.0936 73.8973 52.9214 71.9308L52.4813 70.8503ZM38.0331 71.7117C33.2535 70.4008 29.0401 67.5494 26.0462 63.5997L25.1165 64.3044C28.2655 68.4588 32.6973 71.458 37.7245 72.8369L38.0331 71.7117ZM26.0462 63.5997C23.0524 59.65 21.4455 54.8228 21.4747 49.8668L20.3081 49.8599C20.2773 55.0728 21.9675 60.1501 25.1165 64.3044L26.0462 63.5997Z" fill="#EBEBEB"/>
<circle cx="79.2982" cy="74.0054" r="16.2235" fill="#9D65FB"/>
<mask id="mask0_714_1101" style="mask-type:alpha" maskUnits="userSpaceOnUse" x="63" y="57" width="33" height="34">
<circle cx="79.2973" cy="74.0064" r="16.2235" fill="#BDEFD9"/>
</mask>
<g mask="url(#mask0_714_1101)">
<path fill-rule="evenodd" clip-rule="evenodd" d="M74.4485 49.9987C74.4485 51.3815 74.3638 52.6805 74.1946 53.9376L78.4467 57.248L82.6989 60.5583C83.5027 61.145 83.7143 62.1926 83.2066 63.1144L75.0831 77.0264C74.5754 77.9482 73.5176 78.2834 72.5868 77.9482L67.5308 75.9369L62.4748 73.9255C60.4016 75.5178 58.1169 76.8587 55.6206 77.8644L54.0975 88.5079C53.9705 89.5135 53.1243 90.2259 52.1089 90.2259H35.8619C34.8465 90.2259 34.0426 89.5135 33.8311 88.5079L32.3079 77.8644C29.8116 76.8587 27.5692 75.5178 25.4537 73.9255L15.3417 77.9482C14.4109 78.2415 13.3532 77.9482 12.8454 77.0264L4.72196 63.1144C4.25655 62.2764 4.4681 61.145 5.22968 60.5583L13.8186 53.9376C13.607 52.6805 13.5224 51.2977 13.5224 49.9987C13.5224 48.6997 13.6916 47.3169 13.9032 46.0598L5.3143 39.439C4.4681 38.8524 4.29886 37.7629 4.80658 36.8829L12.8877 22.971C13.3955 22.0492 14.4532 21.7139 15.384 22.0492L25.4961 26.0719C27.5692 24.5215 29.854 23.1386 32.3502 22.133L33.8734 11.4895C34.0426 10.4838 34.8465 9.77148 35.8619 9.77148H52.1089C53.1243 9.77148 53.9705 10.4838 54.1398 11.4895L55.6629 22.133C58.1592 23.1386 60.4016 24.4796 62.5171 26.0719L72.6291 22.0492C73.56 21.7558 74.6177 22.0492 75.1254 22.971L83.2489 36.8829C83.7143 37.721 83.5027 38.8524 82.7412 39.439L74.1523 46.0598C74.3638 47.3169 74.4485 48.6578 74.4485 49.9987ZM43.9868 67.3334C53.561 67.3334 61.3224 59.572 61.3224 49.9978C61.3224 40.4236 53.561 32.6622 43.9868 32.6622C34.4126 32.6622 26.6512 40.4236 26.6512 49.9978C26.6512 59.572 34.4126 67.3334 43.9868 67.3334Z" fill="#7D47E2"/>
<path fill-rule="evenodd" clip-rule="evenodd" d="M89.465 69.2674L76.8683 81.8641L69.1274 74.1233L72.2489 71.0018L76.8683 75.6212L86.3436 66.146L89.465 69.2674Z" fill="#E0CFFF"/>
</g>
</svg>
