<svg width="20" height="21" viewBox="0 0 20 21" fill="none" xmlns="http://www.w3.org/2000/svg">
<g clip-path="url(#clip0_8487_22317)">
<path d="M12.0915 8.40823C12.1646 7.47973 11.9513 6.55114 11.4804 5.7476C11.0094 4.94407 10.3035 4.30421 9.45767 3.91427C8.61185 3.52433 7.66683 3.40306 6.74996 3.56678C5.83309 3.73051 4.98844 4.17137 4.32986 4.82995C3.67128 5.48854 3.23042 6.33318 3.06669 7.25005C2.90297 8.16692 3.02424 9.11195 3.41418 9.95776C3.80412 10.8036 4.44397 11.5095 5.24751 11.9805C6.05105 12.4514 6.97964 12.6647 7.90814 12.5916C7.98842 11.5087 8.45495 10.4907 9.22277 9.72286C9.99059 8.95504 11.0086 8.48851 12.0915 8.40823Z" fill="#A065FE"/>
<path d="M15.6647 9.72521C15.2004 9.25953 14.6403 8.90051 14.0232 8.67309C13.4061 8.44567 12.747 8.35531 12.0915 8.40827C12.0064 9.48943 11.5383 10.5047 10.7714 11.2716C10.0046 12.0385 8.98927 12.5065 7.90811 12.5917C7.84899 13.3529 7.98229 14.1167 8.29575 14.8129C8.60921 15.5091 9.09275 16.1153 9.70188 16.5756C10.311 17.036 11.0261 17.3357 11.7815 17.4472C12.5368 17.5587 13.308 17.4785 14.0242 17.2138C14.7403 16.9491 15.3784 16.5086 15.8797 15.9327C16.381 15.3568 16.7294 14.6641 16.8928 13.9182C17.0562 13.1724 17.0293 12.3975 16.8147 11.6648C16.6001 10.932 16.2047 10.265 15.6647 9.72521Z" fill="#5AD6A0"/>
<path d="M10.7706 11.2715C11.9254 10.1167 12.5154 8.83441 12.0884 8.4074C11.6614 7.9804 10.3791 8.57039 9.22426 9.7252C8.06946 10.88 7.47946 12.1623 7.90647 12.5893C8.33347 13.0163 9.61579 12.4263 10.7706 11.2715Z" fill="#7D47E5"/>
<path d="M12.5234 13.2714C12.2567 13.2113 12.0076 13.0903 11.7954 12.918C11.7222 12.8536 11.6637 12.774 11.6241 12.6849C11.5845 12.5957 11.5646 12.4991 11.5659 12.4015C11.5646 12.2901 11.5893 12.18 11.638 12.0798C11.6868 11.9797 11.7583 11.8923 11.8468 11.8246C12.0533 11.6665 12.3089 11.5863 12.5687 11.5981C12.7566 11.5945 12.9428 11.6348 13.1124 11.7159C13.2625 11.7877 13.39 11.8995 13.4809 12.039C13.5217 12.1077 13.5522 12.182 13.5715 12.2595C13.5778 12.2869 13.5779 12.3153 13.5718 12.3427C13.5656 12.3702 13.5534 12.3958 13.536 12.4179C13.5186 12.4399 13.4965 12.4578 13.4712 12.4701C13.446 12.4824 13.4183 12.4889 13.3902 12.4891C13.3472 12.4897 13.3053 12.4756 13.2713 12.4493C13.2373 12.423 13.2132 12.3859 13.203 12.3441C13.1821 12.2369 13.127 12.1394 13.0459 12.0662C12.9112 11.9557 12.7395 11.9007 12.5656 11.9122C12.4066 11.9026 12.249 11.9474 12.1186 12.039C12.0655 12.0807 12.0232 12.1346 11.9953 12.1961C11.9674 12.2577 11.9548 12.325 11.9585 12.3924C11.9585 12.4511 11.9722 12.5089 11.9984 12.5613C12.0246 12.6137 12.0627 12.6593 12.1095 12.6945C12.2673 12.8013 12.4434 12.8781 12.6291 12.921C12.8325 12.9762 13.0275 13.0585 13.209 13.1657C13.334 13.2388 13.438 13.3428 13.5111 13.4677C13.5792 13.5861 13.6136 13.7208 13.6107 13.8574C13.6143 13.9687 13.5905 14.0792 13.5416 14.1792C13.4926 14.2793 13.4199 14.3658 13.3298 14.4313C13.1129 14.5861 12.8499 14.6627 12.5838 14.6488C12.3883 14.6503 12.1947 14.6102 12.0159 14.531C11.8541 14.4649 11.714 14.3551 11.6112 14.2138C11.5614 14.144 11.5236 14.0664 11.4994 13.9842C11.4924 13.9568 11.4919 13.9282 11.4978 13.9005C11.5037 13.8729 11.5159 13.8469 11.5334 13.8247C11.5509 13.8026 11.5733 13.7847 11.5988 13.7725C11.6244 13.7604 11.6524 13.7543 11.6806 13.7547H11.7048C11.745 13.7553 11.7838 13.7698 11.8146 13.7957C11.8454 13.8215 11.8663 13.8572 11.8739 13.8967C11.9002 14.0076 11.9643 14.1058 12.0552 14.1745C12.208 14.2862 12.3947 14.3417 12.5838 14.3316C12.7505 14.3426 12.9163 14.298 13.055 14.2047C13.1081 14.1654 13.1509 14.1138 13.1798 14.0544C13.2087 13.995 13.2229 13.9295 13.2211 13.8634C13.2246 13.7992 13.2124 13.7352 13.1855 13.6767C13.1587 13.6183 13.118 13.5673 13.067 13.5282C12.9018 13.4121 12.7179 13.3253 12.5234 13.2714Z" fill="#C2EFDA"/>
<path d="M12.7983 11.3502C12.7983 11.2401 12.7091 11.1509 12.599 11.1509C12.4889 11.1509 12.3996 11.2401 12.3996 11.3502V11.7187C12.3996 11.8288 12.4889 11.9181 12.599 11.9181C12.7091 11.9181 12.7983 11.8288 12.7983 11.7187V11.3502Z" fill="#C2EFDA"/>
<path d="M12.7983 14.5097C12.7983 14.3996 12.7091 14.3103 12.599 14.3103C12.4889 14.3103 12.3996 14.3996 12.3996 14.5097V14.8782C12.3996 14.9883 12.4889 15.0775 12.599 15.0775C12.7091 15.0775 12.7983 14.9883 12.7983 14.8782V14.5097Z" fill="#C2EFDA"/>
<path d="M7.54563 10.1662C7.52137 10.1666 7.49739 10.161 7.47579 10.15C7.45419 10.1389 7.43565 10.1227 7.42179 10.1028L6.32233 8.50191C6.30192 8.46904 6.29491 8.42958 6.30275 8.39168C6.31059 8.35379 6.33267 8.32035 6.36445 8.29827C6.39622 8.27618 6.43526 8.26713 6.47351 8.27299C6.51176 8.27885 6.5463 8.29916 6.57001 8.32975C6.6591 8.47389 6.79308 8.58478 6.95134 8.64535C7.1096 8.70593 7.28338 8.71284 7.44595 8.66502C7.56447 8.63628 7.67042 8.56975 7.7478 8.47548C7.82517 8.38121 7.86977 8.26432 7.87486 8.14247C7.88996 7.47192 7.87486 6.65035 7.87486 6.63223C7.87486 6.59217 7.89077 6.55376 7.9191 6.52544C7.94742 6.49711 7.98583 6.4812 8.02589 6.4812C8.06475 6.4833 8.10152 6.49948 8.12931 6.52672C8.15711 6.55396 8.17403 6.59039 8.17691 6.62921C8.17691 6.62921 8.19201 7.46286 8.17691 8.13945C8.17131 8.32651 8.10532 8.50673 7.98881 8.65318C7.87231 8.79963 7.71153 8.90445 7.53053 8.95197C7.36474 9.00606 7.18761 9.01544 7.01704 8.97915L7.67853 9.92759C7.70116 9.96063 7.71003 10.0012 7.70326 10.0407C7.69649 10.0801 7.67462 10.1154 7.64228 10.139C7.61391 10.1584 7.57995 10.168 7.54563 10.1662Z" fill="#E3D2FF"/>
<path d="M8.67232 6.74394H6.43112C6.39106 6.74394 6.35265 6.72803 6.32432 6.69971C6.296 6.67139 6.28009 6.63297 6.28009 6.59292C6.28086 6.55311 6.29702 6.51514 6.32518 6.48698C6.35334 6.45883 6.3913 6.44267 6.43112 6.44189H8.67232C8.71238 6.44189 8.75079 6.45781 8.77911 6.48613C8.80744 6.51445 8.82335 6.55287 8.82335 6.59292C8.82335 6.63297 8.80744 6.67139 8.77911 6.69971C8.75079 6.72803 8.71238 6.74394 8.67232 6.74394Z" fill="#E3D2FF"/>
<path d="M8.67226 7.7498H6.43105C6.391 7.7498 6.35259 7.73389 6.32426 7.70557C6.29594 7.67725 6.28003 7.63883 6.28003 7.59878C6.28003 7.55872 6.29594 7.52031 6.32426 7.49199C6.35259 7.46367 6.391 7.44775 6.43105 7.44775H8.67226C8.71232 7.44775 8.75073 7.46367 8.77905 7.49199C8.80738 7.52031 8.82329 7.55872 8.82329 7.59878C8.82329 7.63883 8.80738 7.67725 8.77905 7.70557C8.75073 7.73389 8.71232 7.7498 8.67226 7.7498Z" fill="#E3D2FF"/>
<path d="M12.5475 5.46634C12.5213 5.46566 12.4958 5.45803 12.4735 5.44423C12.4512 5.43043 12.433 5.41096 12.4207 5.38781L11.9072 4.43031C11.8976 4.41055 11.8926 4.38886 11.8926 4.36688C11.8926 4.3449 11.8976 4.32321 11.9072 4.30345C11.9166 4.28379 11.9301 4.26636 11.9468 4.2523C11.9634 4.23824 11.9829 4.22788 12.0038 4.2219L13.0218 3.96818C13.0589 3.95985 13.0979 3.96619 13.1306 3.98588C13.1632 4.00558 13.187 4.0371 13.1969 4.07389C13.2019 4.09235 13.2031 4.11161 13.2004 4.13053C13.1977 4.14944 13.1912 4.16763 13.1814 4.18398C13.1715 4.20034 13.1584 4.21454 13.1429 4.22572C13.1274 4.23691 13.1099 4.24485 13.0912 4.24908L12.2545 4.4575L12.6653 5.25189C12.6826 5.28607 12.686 5.32562 12.6747 5.36224C12.6635 5.39885 12.6384 5.42967 12.6049 5.44822C12.5873 5.45838 12.5678 5.46457 12.5475 5.46634Z" fill="#C2EFDA"/>
<path d="M6.90834 17.0922C6.87723 17.0922 6.84693 17.0823 6.8219 17.0638C6.79688 17.0453 6.77848 17.0193 6.7694 16.9895C6.75893 16.9526 6.76315 16.9132 6.78118 16.8794C6.7992 16.8456 6.82963 16.8201 6.86606 16.8083L7.72992 16.5485L7.28591 15.8115C7.27598 15.7952 7.26936 15.7772 7.26642 15.7584C7.26347 15.7395 7.26427 15.7203 7.26876 15.7018C7.27325 15.6833 7.28134 15.6658 7.29257 15.6505C7.30381 15.6351 7.31797 15.6221 7.33423 15.6121C7.36745 15.5936 7.40642 15.5883 7.44337 15.5973C7.48033 15.6062 7.51255 15.6288 7.53359 15.6605L8.07426 16.5666C8.08585 16.5853 8.09296 16.6064 8.09502 16.6282C8.09708 16.6501 8.09404 16.6722 8.08614 16.6926C8.07823 16.7131 8.06568 16.7315 8.04947 16.7463C8.03325 16.7612 8.01382 16.772 7.9927 16.7781L6.95063 17.0801C6.93757 17.0871 6.92315 17.0913 6.90834 17.0922Z" fill="#E3D2FF"/>
<path d="M7.90807 16.7661H7.85974C6.87354 16.4262 5.9812 15.8589 5.25496 15.1101C4.52872 14.3613 3.98896 13.452 3.67937 12.4559C3.6689 12.4191 3.67312 12.3796 3.69115 12.3458C3.70917 12.312 3.7396 12.2865 3.77603 12.2747C3.79428 12.2691 3.81345 12.2671 3.83244 12.269C3.85143 12.2708 3.86988 12.2764 3.88671 12.2854C3.90355 12.2943 3.91845 12.3066 3.93055 12.3213C3.94266 12.3361 3.95174 12.3531 3.95726 12.3713C4.253 13.3233 4.76894 14.1921 5.46323 14.9074C6.15753 15.6227 7.01064 16.1643 7.95338 16.4883C7.97144 16.4944 7.98812 16.504 8.00245 16.5166C8.01679 16.5292 8.0285 16.5445 8.03692 16.5616C8.04534 16.5787 8.0503 16.5973 8.05151 16.6163C8.05272 16.6354 8.05017 16.6545 8.04399 16.6725C8.03392 16.7003 8.01541 16.7243 7.99104 16.7411C7.96667 16.7579 7.93766 16.7666 7.90807 16.7661Z" fill="#E3D2FF"/>
<path d="M16.1238 8.56238C16.0936 8.562 16.0643 8.55219 16.0399 8.53432C16.0155 8.51645 15.9973 8.49141 15.9879 8.4627C15.6707 7.53888 15.145 6.70056 14.4514 6.01278C13.7579 5.325 12.9152 4.80625 11.9888 4.49679C11.9522 4.48436 11.922 4.45814 11.9045 4.42371C11.887 4.38929 11.8836 4.34939 11.8951 4.31254C11.9013 4.29447 11.9109 4.2778 11.9235 4.26346C11.936 4.24912 11.9513 4.23741 11.9684 4.22899C11.9856 4.22058 12.0042 4.21562 12.0232 4.21441C12.0422 4.21319 12.0613 4.21575 12.0794 4.22192C13.0486 4.54508 13.9302 5.08736 14.6557 5.80662C15.3813 6.52587 15.9312 7.40274 16.2628 8.36906C16.2689 8.38711 16.2715 8.4062 16.2703 8.42523C16.2691 8.44427 16.2641 8.46288 16.2557 8.47999C16.2473 8.49711 16.2356 8.5124 16.2212 8.52498C16.2069 8.53756 16.1902 8.54719 16.1722 8.55331C16.1567 8.55925 16.1403 8.56232 16.1238 8.56238Z" fill="#C2EFDA"/>
</g>
<defs>
<clipPath id="clip0_8487_22317">
<rect width="14" height="14" fill="white" transform="translate(3 3.49976)"/>
</clipPath>
</defs>
</svg>
