<svg width="20" height="21" viewBox="0 0 20 21" fill="none" xmlns="http://www.w3.org/2000/svg">
<path d="M14.2281 4.30005H2.74243C2.41105 4.30005 2.14243 4.56868 2.14243 4.90005V12.5096C2.14243 12.8409 2.41105 13.1096 2.74243 13.1096H14.2281C14.5595 13.1096 14.8281 12.8409 14.8281 12.5096V4.90005C14.8281 4.56868 14.5595 4.30005 14.2281 4.30005Z" fill="#5AD6A0"/>
<path d="M14.1246 16.7224C16.2653 16.7224 18.0008 14.9869 18.0008 12.8462C18.0008 10.7054 16.2653 8.96997 14.1246 8.96997C11.9838 8.96997 10.2484 10.7054 10.2484 12.8462C10.2484 14.9869 11.9838 16.7224 14.1246 16.7224Z" fill="#FFDD7F"/>
<path fill-rule="evenodd" clip-rule="evenodd" d="M14.8293 9.03389V12.5985C14.8293 12.9299 14.5607 13.1985 14.2293 13.1985H10.2642C10.2537 13.0825 10.2484 12.9649 10.2484 12.8462C10.2484 10.7054 11.9838 8.96997 14.1246 8.96997C14.3652 8.96997 14.6008 8.99191 14.8293 9.03389Z" fill="#F6BF44"/>
<path d="M12.3628 7.30005H8.83895C8.64434 7.30005 8.48657 7.45782 8.48657 7.65243V7.65243C8.48657 7.84704 8.64434 8.00481 8.83895 8.00481H12.3628C12.5574 8.00481 12.7152 7.84704 12.7152 7.65243C12.7152 7.45782 12.5574 7.30005 12.3628 7.30005Z" fill="#BDEFD9"/>
<path d="M10.6009 8.70947H8.83895C8.64434 8.70947 8.48657 8.86724 8.48657 9.06185V9.06185C8.48657 9.25647 8.64434 9.41423 8.83895 9.41423H10.6009C10.7955 9.41423 10.9532 9.25647 10.9532 9.06185C10.9532 8.86724 10.7955 8.70947 10.6009 8.70947Z" fill="#BDEFD9"/>
<path d="M12.7143 12.8457L13.5953 13.7267L15.5334 11.7886" stroke="white" stroke-width="0.8" stroke-linecap="round" stroke-linejoin="round"/>
<path d="M7.12305 8.53014V10.0747C7.12305 10.1756 7.08715 10.2611 7.01533 10.3314C6.94353 10.4017 6.85875 10.4368 6.76097 10.4368H4.03389C3.93611 10.4368 3.85131 10.4017 3.77951 10.3314C3.70771 10.2611 3.67179 10.1756 3.67179 10.0747V8.54388C3.58319 8.45834 3.52743 8.35902 3.50451 8.24596C3.48159 8.13292 3.48693 8.02138 3.52055 7.91138L3.71763 7.29264C3.74819 7.19792 3.79937 7.12228 3.87117 7.06576C3.94297 7.00924 4.02625 6.98096 4.12097 6.98096H6.65555C6.75333 6.98096 6.84041 7.01 6.91679 7.06806C6.99319 7.1261 7.04665 7.20096 7.07721 7.29264L7.27889 7.91138C7.31249 8.01834 7.31631 8.12756 7.29033 8.2391C7.26437 8.35062 7.20861 8.44764 7.12305 8.53014ZM5.81221 8.35598C5.89165 8.35598 5.96041 8.33 6.01847 8.27806C6.07653 8.2261 6.09943 8.16194 6.08721 8.08556L5.97263 7.34764H5.56013V8.08098C5.56013 8.1543 5.58381 8.21848 5.63117 8.27348C5.67853 8.32848 5.73889 8.35598 5.81221 8.35598ZM4.95513 8.35598C5.03153 8.35598 5.09797 8.32924 5.15451 8.27576C5.21103 8.22228 5.23929 8.15736 5.23929 8.08098V7.34764H4.82679L4.71221 8.08556C4.70305 8.15584 4.72215 8.21848 4.76951 8.27348C4.81687 8.32848 4.87875 8.35598 4.95513 8.35598ZM4.12097 8.35598C4.18819 8.35598 4.24625 8.33228 4.29513 8.28492C4.34403 8.23756 4.37305 8.18028 4.38221 8.11306L4.49679 7.34764H4.08429L3.87805 7.99848C3.85055 8.09014 3.86125 8.17264 3.91013 8.24596C3.95903 8.3193 4.02929 8.35598 4.12097 8.35598ZM6.67389 8.35598C6.76555 8.35598 6.83659 8.32006 6.88701 8.24826C6.93743 8.17646 6.94889 8.0932 6.92139 7.99848L6.71513 7.34764H6.30263L6.41721 8.11306C6.42639 8.18028 6.45541 8.23756 6.50429 8.28492C6.55319 8.33228 6.60971 8.35598 6.67389 8.35598ZM4.03389 10.0747H6.76097V8.71806C6.76707 8.71806 6.75943 8.71806 6.73805 8.71806C6.71665 8.71806 6.69527 8.71806 6.67389 8.71806C6.60665 8.71806 6.53791 8.70354 6.46763 8.67452C6.39735 8.64548 6.32555 8.60042 6.25221 8.5393C6.20027 8.5943 6.13763 8.63784 6.06429 8.66992C5.99097 8.70202 5.91151 8.71806 5.82597 8.71806C5.73735 8.71806 5.66021 8.7066 5.59451 8.68368C5.52881 8.66076 5.46389 8.6218 5.39971 8.5668C5.35083 8.6157 5.29125 8.65312 5.22097 8.6791C5.15069 8.70506 5.07277 8.71806 4.98721 8.71806C4.89555 8.71806 4.81305 8.70278 4.73971 8.67222C4.66639 8.64166 4.60221 8.59736 4.54721 8.5393C4.46777 8.60042 4.39139 8.64548 4.31805 8.67452C4.24471 8.70354 4.17903 8.71806 4.12097 8.71806C4.10263 8.71806 4.08507 8.71806 4.06825 8.71806C4.05145 8.71806 4.03999 8.71806 4.03389 8.71806V10.0747ZM6.76097 10.0747H4.03389C4.03999 10.0747 4.05145 10.0747 4.06825 10.0747C4.08507 10.0747 4.10263 10.0747 4.12097 10.0747C4.16375 10.0747 4.22179 10.0747 4.29513 10.0747C4.36847 10.0747 4.45249 10.0747 4.54721 10.0747C4.57777 10.0747 4.60985 10.0747 4.64347 10.0747C4.67707 10.0747 4.71297 10.0747 4.75117 10.0747C4.78937 10.0747 4.82833 10.0747 4.86805 10.0747C4.90777 10.0747 4.94749 10.0747 4.98721 10.0747C5.02083 10.0747 5.05521 10.0747 5.09033 10.0747C5.12547 10.0747 5.16139 10.0747 5.19805 10.0747C5.23471 10.0747 5.27061 10.0747 5.30575 10.0747C5.34089 10.0747 5.37221 10.0747 5.39971 10.0747C5.46999 10.0747 5.53875 10.0747 5.60597 10.0747C5.67319 10.0747 5.74651 10.0747 5.82597 10.0747C5.86875 10.0747 5.91075 10.0747 5.95201 10.0747C5.99325 10.0747 6.03145 10.0747 6.06659 10.0747C6.10173 10.0747 6.13533 10.0747 6.16743 10.0747C6.19951 10.0747 6.22777 10.0747 6.25221 10.0747C6.32555 10.0747 6.39889 10.0747 6.47221 10.0747C6.54555 10.0747 6.61277 10.0747 6.67389 10.0747C6.69527 10.0747 6.71665 10.0747 6.73805 10.0747C6.75943 10.0747 6.76707 10.0747 6.76097 10.0747Z" fill="#BDEFD9"/>
</svg>
