<svg width="40" height="40" viewBox="0 0 40 40" fill="none" xmlns="http://www.w3.org/2000/svg">
<path d="M27.9944 6.84986C27.074 6.84627 26.1619 7.02453 25.3105 7.37443C24.4591 7.72432 23.6853 8.23894 23.0333 8.88875L20 11.9388L30.6056 22.5443L33.6333 19.511C34.2856 18.8593 34.803 18.0855 35.1561 17.2338C35.5091 16.3821 35.6908 15.4691 35.6908 14.5471C35.6908 13.6251 35.5091 12.7121 35.1561 11.8604C34.803 11.0086 34.2856 10.2348 33.6333 9.58319L32.9611 8.88875C32.31 8.23476 31.536 7.71598 30.6836 7.36225C29.8312 7.00853 28.9173 6.82684 27.9944 6.82764" fill="#FFE1F0"/>
<path d="M12.0055 6.84986C11.0842 6.84614 10.1712 7.02433 9.31895 7.37421C8.46665 7.72409 7.69181 8.23877 7.03886 8.88875L6.36663 9.56097C5.71437 10.2126 5.19693 10.9864 4.84389 11.8382C4.49086 12.6899 4.30914 13.6029 4.30914 14.5249C4.30914 15.4469 4.49086 16.3598 4.84389 17.2116C5.19693 18.0633 5.71437 18.8371 6.36663 19.4888L9.39441 22.5221L20 11.9387L16.9722 8.88875C16.3207 8.23525 15.5466 7.71679 14.6943 7.3631C13.842 7.00941 12.9283 6.82744 12.0055 6.82764" fill="#FF85BF"/>
<path d="M20 11.9387L9.39441 22.5443L20 33.1443L30.6055 22.5443L20 11.9387Z" fill="#E768A2"/>
</svg>
