<svg xmlns="http://www.w3.org/2000/svg" viewBox="0 0 200 18.13"><defs><style>.cls-1{fill:#fff;}</style></defs><g id="Layer_2" data-name="Layer 2"><g id="Layer_1-2" data-name="Layer 1"><path class="cls-1" d="M130.53,1.68h3.59c.14,0,.38-.07.38.15s-.23.14-.37.17c-.31,0-.62.06-.93.12a1.1,1.1,0,0,0-1,1.3q0,4.88,0,9.77c0,.93,0,1.87,0,2.8a1.06,1.06,0,0,0,1,1.24c.36.07.73.09,1.09.14.11,0,.27,0,.28.15s-.18.17-.31.17h-7.44c-.09,0-.18,0-.19-.13s.09-.17.2-.18c.36-.06.72-.08,1.07-.16a1,1,0,0,0,.92-1.14c0-2,0-4,0-6,0-.34-.13-.45-.46-.45h-5.62c-.32,0-.42.12-.42.43,0,2,0,4,0,6a1,1,0,0,0,.9,1.15c.32.08.65.11,1,.16.11,0,.28,0,.28.15s-.18.16-.31.18h-7.34c-.1,0-.22,0-.22-.15s.11-.15.22-.16c.32,0,.65-.06,1-.12.87-.15,1.15-.49,1.15-1.38q0-6.18,0-12.36c0-.94-.28-1.27-1.22-1.43-.31-.05-.62-.07-.93-.1-.11,0-.21-.05-.2-.19s.12-.11.2-.12h7.44c.11,0,.23,0,.23.15s-.12.15-.22.16c-.33,0-.66.07-1,.14a1.09,1.09,0,0,0-1,1.23c0,1.78,0,3.56,0,5.35,0,.33.1.45.45.45h5.62c.31,0,.43-.12.43-.43,0-1.83,0-3.67,0-5.5a1,1,0,0,0-.78-1A4.37,4.37,0,0,0,127,2c-.14,0-.38.05-.38-.16s.27-.16.41-.16Z"/><path class="cls-1" d="M30.52,1.68h3.54c.14,0,.4-.11.4.16s-.25.13-.38.16h-.26c-1.47.16-1.71.43-1.71,1.89V15.75c0,1.1.25,1.39,1.36,1.55l.78.09c.1,0,.22,0,.22.15s-.11.15-.21.16H26.72c-.09,0-.18,0-.2-.13s.09-.17.2-.18a6.75,6.75,0,0,0,1.18-.19,1,1,0,0,0,.83-1c0-2.08,0-4.16,0-6.23,0-.28-.15-.36-.4-.36H22.63c-.29,0-.4.11-.4.4,0,2,0,4.05,0,6.08a1,1,0,0,0,.93,1.14c.26.07.54.09.81.14s.42-.06.4.19-.28.13-.44.14-.42,0-.62,0H16.71c-.09,0-.18,0-.19-.13s.08-.17.19-.18c.33,0,.66-.06,1-.12.91-.15,1.19-.48,1.19-1.39V3.62c0-1.05-.25-1.35-1.29-1.52C17.3,2.05,17,2,16.71,2c-.11,0-.21,0-.19-.18s.12-.11.2-.12h7.49c.09,0,.18,0,.18.15s-.08.14-.17.15c-.31.05-.62.07-.93.13a1.11,1.11,0,0,0-1.05,1.26c0,1.78,0,3.56,0,5.35,0,.34.13.44.46.44h5.62c.35,0,.44-.14.44-.46,0-1.77,0-3.54,0-5.3a1.13,1.13,0,0,0-1.08-1.29c-.24-.05-.48-.07-.72-.11s-.42.07-.4-.19.28-.13.44-.13Z"/><path class="cls-1" d="M43,17.71H36.12c-.09,0-.18,0-.19-.14s.09-.17.2-.17a5.59,5.59,0,0,0,1.28-.2,1,1,0,0,0,.86-1.12q0-6.37,0-12.73a1,1,0,0,0-.9-1.16A4.68,4.68,0,0,0,36.25,2c-.13,0-.33,0-.31-.17s.21-.13.33-.14h.21c4.18,0,8.37,0,12.55,0,.49,0,.66.12.65.63,0,1.47,0,3,0,4.42,0,.15.08.38-.16.43s-.27-.17-.34-.32A24.85,24.85,0,0,0,47.8,4.12a4,4,0,0,0-3.7-2c-.66,0-1.32,0-2,0-.33,0-.47.09-.47.44,0,2.07,0,4.15,0,6.23,0,.28.07.4.38.41,2.17.14,3.25-.58,4-2.64,0-.08,0-.17.08-.25s.09-.24.25-.21.12.15.13.25v.21c0,1.92,0,3.84,0,5.77,0,.15.09.39-.15.43s-.22-.22-.28-.38A5.79,5.79,0,0,0,45.42,11,3.5,3.5,0,0,0,41.9,9.6c-.22.05-.23.19-.23.35v7c0,.21,0,.37.31.37a20.23,20.23,0,0,0,3.48-.14,4.26,4.26,0,0,0,2.82-1.88,17.1,17.1,0,0,0,1.55-2.93c.07-.16.08-.43.35-.38s.17.3.17.48c0,1.56-.08,3.11-.08,4.67,0,.46-.13.63-.62.62C47.45,17.69,45.24,17.71,43,17.71Z"/><path class="cls-1" d="M149.34,4.62v9c0,.28,0,.56,0,.83a2.7,2.7,0,0,0,2.55,2.85l.2,0c.12,0,.32,0,.28.22s-.21.14-.34.14h-5.73c-.13,0-.35.08-.36-.16s.19-.15.31-.2l.15,0a2.52,2.52,0,0,0,2.29-2.7c.06-1.8,0-3.61,0-5.41,0-1.47,0-2.94,0-4.42A2.5,2.5,0,0,0,146.46,2L146.1,2c-.1,0-.16-.07-.14-.18a.13.13,0,0,1,.15-.11l.36,0c1.48,0,2.95,0,4.43,0a.87.87,0,0,1,.78.38q4,5.3,8.11,10.56c.11.14.19.33.39.4.14-.14.08-.32.08-.49V5.62a8.67,8.67,0,0,0-.06-.88,2.74,2.74,0,0,0-2.43-2.64,1.55,1.55,0,0,1-.31-.07c-.13,0-.37,0-.34-.21s.25-.13.4-.13q2.83,0,5.67,0c.14,0,.36-.08.39.13s-.21.19-.34.23c-1.72.47-2.22,1.05-2.36,2.83-.07.79,0,1.59,0,2.38,0,3.35,0,6.69,0,10,0,.23.16.6-.21.66s-.8.15-1.13-.28c-1.18-1.56-2.39-3.1-3.59-4.65l-6.27-8.1C149.57,4.85,149.5,4.79,149.34,4.62Z"/><path class="cls-1" d="M9.11,9.31V15.8c0,.9.27,1.25,1.16,1.44.41.08.83.1,1.24.15.12,0,.27,0,.25.18s-.14.13-.24.13H3.35c-.12,0-.27,0-.25-.17s.14-.14.24-.14a6.24,6.24,0,0,0,1.49-.22A1.08,1.08,0,0,0,5.75,16c0-4.47,0-8.94,0-13.41,0-.37-.13-.46-.48-.46a3,3,0,0,0-2,.79A12.2,12.2,0,0,0,.74,6.31C.6,6.55.57,7,.23,6.94S.06,6.4.06,6.13c0-1.32.07-2.64.08-3.95,0-.39.13-.5.51-.5q6.78,0,13.54,0c.4,0,.5.14.5.51,0,1.45.06,2.9.09,4.36,0,.15.05.34-.14.4s-.29-.12-.37-.27a17.35,17.35,0,0,0-1.86-2.94A3.74,3.74,0,0,0,9.75,2.1c-.48,0-.66.08-.65.61C9.13,4.91,9.11,7.11,9.11,9.31Z"/><path class="cls-1" d="M184.65,8.2V3.47a1.15,1.15,0,0,0-1.08-1.34c-.35-.07-.72-.09-1.08-.14-.11,0-.22,0-.2-.17s.11-.12.2-.13H190c.1,0,.22,0,.22.16S190.07,2,190,2c-.33,0-.66.07-1,.15a1.07,1.07,0,0,0-1,1.17c0,3.39-.11,6.79,0,10.18.12,2.4,1.54,3.7,4,3.8,2.77.11,4.48-1.37,4.57-4.15s0-5.44,0-8.16a2.74,2.74,0,0,0-2.46-2.89,1.55,1.55,0,0,1-.31-.07c-.12,0-.32,0-.32-.18s.23-.16.37-.16h5.88c.1,0,.22,0,.24.14s-.1.16-.2.19-.47.11-.7.18a2.36,2.36,0,0,0-1.75,2,7.06,7.06,0,0,0-.11,1.3c0,2.35,0,4.71,0,7.06a8.06,8.06,0,0,1-.15,1.55A4.63,4.63,0,0,1,193,18a10.54,10.54,0,0,1-4.54-.2,4.69,4.69,0,0,1-3.76-4.84c0-1.58,0-3.15,0-4.73Z"/><path class="cls-1" d="M138.55,9.69v-6c0-1.1-.25-1.39-1.35-1.57-.29,0-.59-.07-.88-.1-.09,0-.17-.05-.17-.15s.08-.14.17-.15h7.81c.08,0,.18,0,.19.13s-.1.16-.2.17c-.33,0-.66.06-1,.12-.95.16-1.22.49-1.22,1.42,0,4.11,0,8.21,0,12.32,0,1,.27,1.27,1.2,1.42.33.06.66.08,1,.12.1,0,.22,0,.22.16s-.13.14-.23.15h-7.75c-.11,0-.22,0-.2-.17s.1-.13.18-.14c.31,0,.63-.06.93-.11,1-.14,1.29-.46,1.29-1.46C138.56,13.78,138.55,11.73,138.55,9.69Z"/><path class="cls-1" d="M178.36,3.57a8.93,8.93,0,0,0-5.78-1.87c-2.49,0-5,0-7.49,0H165c-.15,0-.41-.09-.42.17s.24.13.38.15.52.06.78.11c.9.17,1.18.5,1.18,1.4V9.7c0,2.11,0,4.22,0,6.33a1,1,0,0,1-.88,1.16c-.35.1-.72.12-1.08.19-.14,0-.37-.06-.38.15s.25.17.4.17c2.73,0,5.45,0,8.17,0a7.68,7.68,0,0,0,5.27-2,8,8,0,0,0,2.4-5.7A7.31,7.31,0,0,0,178.36,3.57Zm-1.43,9.7c-.48,2.66-1.86,3.87-4.57,4-.5,0-1,0-1.5,0s-.51-.12-.51-.51c0-2.37,0-4.74,0-7.11s0-4.67,0-7c0-.42.1-.59.55-.56.72,0,1.45,0,2.18.1A4.09,4.09,0,0,1,176.55,5a12.1,12.1,0,0,1,.65,4.13A21,21,0,0,1,176.93,13.27Z"/><path class="cls-1" d="M75.94,11.15Z"/><path class="cls-1" d="M113.38,15.8a.94.94,0,0,0-1.17-.63c.09.19.33.32.26.63a1.82,1.82,0,0,0-.77,0c-.24.07-.36-.1-.41-.29a7.41,7.41,0,0,0-1-2,2.2,2.2,0,0,1-.24-2.3,12.28,12.28,0,0,0,.85-2,4.14,4.14,0,0,1,.31,2.18,3,3,0,0,0-.05,1.23,2.52,2.52,0,0,1,.09,1.55c.23-.2.37-.28.49-.41.62-.61.85-1.24.54-1.68a2.63,2.63,0,0,1-.4-1.63A6.92,6.92,0,0,0,108,4.06a12.69,12.69,0,0,0-6.32-1.42,2.83,2.83,0,0,1-1.3-.31,6,6,0,0,1-1.59-.85,1.09,1.09,0,0,0-.71-.27,2.94,2.94,0,0,0-2.78.8,1.16,1.16,0,0,1-.34.24c-.59.28-.83.89-1.21,1.35a3.87,3.87,0,0,0-1,1.49c-.09.34-.28.63-.18,1a1.3,1.3,0,0,1-.33,1.15c-.16.23-.5-.07-.75-.13l-.08,0a.64.64,0,0,0,.3.45c.43.22.34.54.25.91a4.51,4.51,0,0,0-.1,2.22,1.76,1.76,0,0,0,2.8,1.15c.41-.26.78-.59,1.17-.87.11-.08.28-.09.27-.27a.41.41,0,0,0-.3-.38.6.6,0,0,1-.4-.29A.42.42,0,0,0,95,9.79c-.21,0-.14.26-.19.39a2.69,2.69,0,0,1-.26.44.66.66,0,0,1-.8.21.57.57,0,0,1-.31-.65,3.63,3.63,0,0,1,1.07-2,1.85,1.85,0,0,0,.08.35c.05.15,0,.4.19.44s.22-.2.28-.33a1,1,0,0,1,1.07-.57,3.58,3.58,0,0,0,1.49-.18c.19-.08.3,0,.33.17a4.52,4.52,0,0,1-.1,2.16c-.11.42-.57.52-.86.77s-.45.28-.67.42a1.45,1.45,0,0,0-.74.7,9.53,9.53,0,0,0-.91,2.47c0,.09,0,.11-.13.13-.51.07-1,.39-1.53.31.06-.37.23-.7,0-1.1-.24.3-.43.43-.63,0a.45.45,0,0,0-.42-.27,2.65,2.65,0,0,1-1.46,2.26c0-.34.18-.65-.1-1-.32.74-1,.8-1.62.82-.47,0-.4-.49-.63-.77a3.19,3.19,0,0,1,1.68,0,2,2,0,0,0-.63-.94c-.24-.21-.17-.31.08-.43a4.87,4.87,0,0,1,2-.51,5,5,0,0,0-1.62-.46c0-1,.83-1.09,1.54-1.38-.4-.15-.74,0-1.1-.1a5.41,5.41,0,0,1,1.06-1.66l-1,.39a5.22,5.22,0,0,1,1.16-2,6.37,6.37,0,0,0-1.61.8,12.74,12.74,0,0,1,1.79-3,6,6,0,0,0-2,1.33,10.3,10.3,0,0,1,1.67-2.95.44.44,0,0,0-.44.09,4.17,4.17,0,0,0-.56.37,9.22,9.22,0,0,0-1.93,2.72,5,5,0,0,1,0-1.54.34.34,0,0,1,.32-.32A.89.89,0,0,0,89.23,4a6.21,6.21,0,0,0-.8-1.15c-.68-.74-.51-1-1.42-.18-.15.12-.32.22-.47.32s-.2.09-.23.06c-.37-.39-.46.06-.57.22-.26.37-.54.43-.84.12A3.29,3.29,0,0,0,80,3.41a.46.46,0,0,1-.57.14,7.79,7.79,0,0,1-1.82-1c-.14-.11-.3-.24-.46-.06a7.62,7.62,0,0,0-1.42,1.78c-.28.69,0,1.06.69,1.16.18,0,.4,0,.41.29a6.5,6.5,0,0,1,0,1.32l-1-1.2h0l-.07.1c.24.39.46.79.72,1.17a1.4,1.4,0,0,1,.22,1.22l-.12.31c0,.25.12.51-.09.72h-.12l.1.7c0,.14-.09.19-.2.24a2.68,2.68,0,0,1,0,.4c0,.12-.08.13-.14,0h-.09c-.08.13.21.43-.19.41h0c0,.08.24.33-.18.25-.62-.12-.83-.61-1.19-1.08.61.08.9.54,1.32.79H76c0-.24,0-.48-.38-.5-.06,0-.14-.15-.17-.24a12.43,12.43,0,0,0-.84-1.72c-.15-.06-.14-.16-.08-.28h0c-.18-.08-.32-.28-.59-.21a7.49,7.49,0,0,1,1.15,2A3.58,3.58,0,0,0,74,10a6.17,6.17,0,0,1,1,1.25c-.36.14-.76-.13-1,.3a1.34,1.34,0,0,1,1.38.74c.14.31.5.35.75.64a3.86,3.86,0,0,0-2.32.52v0a3.8,3.8,0,0,1,2.21.45,7.09,7.09,0,0,0-.93,1.32,3.46,3.46,0,0,1,1.39,0c.12,0,.35,0,.36.17a.48.48,0,0,1-.22.49,2,2,0,0,1-1.75.13c-.48-.21-.48-.72-.06-1.1.11-.1.3-.1.34-.29a1.18,1.18,0,0,0-1.38.51c-.14.3-.44.42-.58.63-.36.53-.84.4-1.3.45-.1,0-.27,0-.29-.05-.13-.71-.87-1.08-1-1.82a2.22,2.22,0,0,1,.05-1.06.23.23,0,0,1,.26-.19,4.47,4.47,0,0,0,2-.44,1.9,1.9,0,0,1-.59.77,1.6,1.6,0,0,0-.69,1.26.66.66,0,0,0,.23.6c.26.13.32-.2.51-.27s-.16.33.1.36a.46.46,0,0,0,.44-.24c.21-.46.58-.86.47-1.44,0-.36.25-.63.43-.92a5,5,0,0,0,.41-.65c.1-.2.17-.45-.17-.54a4.7,4.7,0,0,0-1.07-.19c-.4-.07-.74-.21-.51-.75a1,1,0,0,0,.06-.46,14.17,14.17,0,0,1-.29-2.67.77.77,0,0,0-.12-.33.87.87,0,0,0-.09.11,1.61,1.61,0,0,1-.07.92.55.55,0,0,0,0,.5,1.11,1.11,0,0,1,.1.89c0,.46-.17.41-.58.3-.6-.16-.24-.77-.61-1,0,0,0-.19-.1-.22-.69-.17-.48-.79-.69-1.22.29,0,.2.26.34.33,0-.31.06-.61.46-.26s.43-.25.69-.25l.32-.32c0-.37-.32-.47-.63-.51a.87.87,0,0,1,.89-.69c.28,0,.6-.1.58-.47s-.14-1,.35-1.35c.12-.09,0-.22-.06-.32a2.86,2.86,0,0,1-.39-2A.72.72,0,0,0,72.46.9c-.14-.15-.29-.3-.35.07,0,.2-.08.4-.36.3a1.57,1.57,0,0,0-1.25.15c-.19.09-.51.2-.62.11s0-.45,0-.67c0,0,0,0,0-.07a1.28,1.28,0,0,0-.8,1.12c-.09.6-.61,1.08-.55,1.74,0,0-.19.09-.24.17-.24.33-.71.57-.36,1.16a17.75,17.75,0,0,0-1.7-.84c-1.19-.49-2.4-.93-3.53-1.52A6.8,6.8,0,0,0,61,1.93c-.22,0-.49-.12-.6.16s.11.4.3.53a3.86,3.86,0,0,0,.6.32c.19.09.37.22.28.42-.18.4,0,.61.29.8a.46.46,0,0,1,.22.59C60.69,4.27,59.47,3.5,58.14,3c-.33-.11-.77-.39-1,0s.32.59.59.82c.12.11.32.15.28.38-.08.43.2.71.44,1s.9.63.91,1.28c0,.12.18.26.29.36s.51.42.83.67a1.5,1.5,0,0,0-1.08.55.73.73,0,0,1-1,.13,4.09,4.09,0,0,1-1.75-1.86,3.83,3.83,0,0,0-.7-1,1.56,1.56,0,0,0-1.91-.22,1.48,1.48,0,0,0-.63,1.68,2.82,2.82,0,0,0,1.14,1.51A5.65,5.65,0,0,0,58,9.39c.37,0,.47.09.43.47a3.39,3.39,0,0,1-.6,1.48.29.29,0,0,1,.1.12,2.87,2.87,0,0,0,.64-1.08c.11,1.1-.14,1.5-1.16,1.87-.53.19-1.09.33-1.6.56s-.6.51-.26,1a.89.89,0,0,1,.12,1,.71.71,0,0,1,.07.09.73.73,0,0,0,.07-1c-.37-.64-.25-.91.48-1.07a3.88,3.88,0,0,0,2.45-1.25c.24.58.2.72-.3,1.22-.11.13-.42.27-.23.45.39.33.13.61,0,.91s-.32.77-.45,1.16c-.06.17-.17.36.05.51l.12-.1c0-.57.37-1,.53-1.54.1-.32.36-.61,0-.94-.13-.14,0-.26.13-.35A1.44,1.44,0,0,0,59,11.16a2,2,0,0,1-.09-.77c0-.23,0-.4.34-.37s.5.09.32.58c.35,0,.28-.45.59-.51s.52-.07.42.41c.49-.78.6-.82.89-.41.06-.28.14-.55.41-.6.81.71.93,1.81,1.64,2.55a2.5,2.5,0,0,0,1.52.72c-.16.23-.33.13-.49.11a2.74,2.74,0,0,0-1,0c-.56.08-1.06.25-1.07,1a.66.66,0,0,1-.1.18c-.35-.54-.35-.54-.54-.27,0,.18,0,.35,0,.52.2.2,0,.31-.09.44a.57.57,0,0,0,0,.71,3.32,3.32,0,0,1,1.83.68A2.06,2.06,0,0,1,62,15.66c-.13-.09-.23-.2-.26.06.17.32.14.5-.27.61a.72.72,0,0,0-.52.93c.14-.08.26-.19.38-.19s.67-.54.68.22c0,.17.19.06.28,0A3.56,3.56,0,0,1,63.88,17c.35,0,.71,0,.93.39a.62.62,0,0,0,.52.26,3.69,3.69,0,0,0,1.48-.12c.3-.07.16-.23,0-.31a10.28,10.28,0,0,0-1.66-1.12,5.35,5.35,0,0,1-1.2-.71c-.37-.31-.41-.54,0-.83a6.63,6.63,0,0,0,1-1.07c.06-.09.11-.26.26-.14a.23.23,0,0,1,0,.33l-.5.6c-.08.11-.18.29,0,.33a.9.9,0,0,1,.56.29,3.39,3.39,0,0,0,.95-.43.29.29,0,0,0-.13-.26,5.34,5.34,0,0,1-.49-.45c-.17-.21-.24-.42.15-.45a6.35,6.35,0,0,0,1.92-.42.32.32,0,0,1,.36.1,11.28,11.28,0,0,1,1.16,1.33.91.91,0,0,0,.1-.13A4.27,4.27,0,0,0,68.58,13c-.13-.15-.7-.44,0-.63.06,0,.09-.07,0-.11-.36-.32,0-.59.08-.85s0-.55,0-.87c.45.08.78.2.74.71A1.88,1.88,0,0,0,70,12.94c.14.13.29.33.23.5-.29.72.34,1.17.51,1.74,0,.2.31.36,0,.53s-.48.17-.59-.19a.58.58,0,0,1-.1.12c.07.28.27.59-.21.69s-.95-.11-1.06-.76c-1,.09-.37,1-.7,1.42-.15.21,0,.59.28.79A3.46,3.46,0,0,1,70.68,17a.8.8,0,0,1,.15.2,1.33,1.33,0,0,0,1.38.38c.21,0,.67-.17.49-.65,0-.12.11-.12.18-.12a1.28,1.28,0,0,1,.7.14c0,.23-.3.36-.29.65a6.32,6.32,0,0,1,1.68,0,2.22,2.22,0,0,0,1.25-.25c.31-.18.54-.36.84,0,.17.2.49.15.79.06-.2-.24-.41-.46-.28-.75s.37-.18.56-.18c.38,0,.07.4.28.54a1.32,1.32,0,0,1,.22-.08c1.11-.24,2.25-.61,3.21.33.76.75,1.34.26,1.88-.23a1.62,1.62,0,0,1,1.35-.34c.54.06,1.05.27,1.55.35.25-.25-.21-.76.39-.85a.91.91,0,0,1,.93.32c.21.36-.22.55-.43.78a1,1,0,0,0,1.16-.14c.41-.35.81-.35,1.09.1s.46.23.58-.06.25-.31.51-.3a4.62,4.62,0,0,0,2.3-.49c.32-.14.63-.32,1,.05a2.15,2.15,0,0,0,.1-.46c-.06-.46.2-.54.57-.54h.31c.2,0,.41,0,.48.24s-.16.32-.33.38c-.37.14-.19.28,0,.41a2.37,2.37,0,0,0,.34.13c.17.1.46-.12.54.13s-.14.38-.27.54a.21.21,0,0,0,0,.14h.42c0-.09-.09-.19,0-.28l.58-1.51a.83.83,0,0,1,.26,1.19l.13.12h0a.54.54,0,0,1,.44.13,2,2,0,0,0,1.87.27c.1,0,.19-.09.29,0a1.14,1.14,0,0,0,1.1.08,7.6,7.6,0,0,1,4.15,0,4.81,4.81,0,0,0,2.78.16,4.92,4.92,0,0,1,2.89-.12,3.78,3.78,0,0,0,.47.06,2.61,2.61,0,0,0,2-.6A.92.92,0,0,0,113.38,15.8ZM74.93,11.48a1.07,1.07,0,0,1,.73.12C75.41,11.87,75.41,11.87,74.93,11.48ZM70.3,4.28c0-.4.46-.33.61-.56a1.28,1.28,0,0,0,.24-.58,1.08,1.08,0,0,1,.51-.75c.34-.23.62-.1.71.3a1.17,1.17,0,0,0,.23.49c.44.51.09.88-.2,1.24s0,.42,0,.56c.14.46-.1.52-.42.52a1,1,0,0,0-.84.52c-.07.12-.09.4-.34.3a.39.39,0,0,1-.22-.49.68.68,0,0,1,0-.19,1.74,1.74,0,0,1-.1-.19c-.14-.06-.35-.15-.2-.31s.11-.49.43-.24h.12C70.82,4.57,70.26,4.72,70.3,4.28Zm-6.06,9.13c-.25,0-.5-.09-.81.08.28,0,.5,0,.71.09s.23,0,.23.16-.11.2-.25.21l-.51,0c.06.17.38.07.3.28s-.45,0-.63.2c.28.25.28.25-.31.45.09.17.73,0,.33.42.14.23.68-.28.58.37,0,.05.51,0,.48.35.38-.19.47.44.85.24-.23.27-.54.09-.77.2-.41.19-.39-.23-.56-.35a5.21,5.21,0,0,0-1.74-.92c-.35-.1-.42-.23-.19-.52s.78-.7.82-1.3c0-.17.26-.23.47-.27a2.34,2.34,0,0,1,1-.06c.16,0,.47,0,.42.25S64.4,13.41,64.24,13.41ZM60.54,2.18a.73.73,0,0,1,.65,0l6.42,2.89c.41.19.62.5.39,1a.43.43,0,0,1-.52.28c-.08-.2.14-.28.14-.47-.62.13-1.25.44-1.87,0l.29-.2c-.15-.18.07-.17.1-.24v-.2a.94.94,0,0,0-.6-.34c-.39,0,0-.24,0-.41-.36.1-.71.24-1,0-.14-.12.22-.12.17-.29a2.9,2.9,0,0,1-1-.08c0-.17.22-.14.18-.29-.33,0-.68.21-1-.05a2.26,2.26,0,0,1,.2-.27c-.47,0-1,.2-1.3-.35h.75C61.8,2.8,61,2.8,60.54,2.18ZM65.1,5a1.91,1.91,0,0,1-1.72.1A1.28,1.28,0,0,1,65.1,5Zm-2.77-.44c.6-.51,1.2-.29,1.83-.06A2,2,0,0,1,62.33,4.53Zm3.18.55a.35.35,0,0,1,.33.22c0,.18-.16.19-.27.24a1.24,1.24,0,0,1-1.15-.11C64.84,5.3,65.12,5,65.51,5.08Zm-3.7-1.21c-.07-.09-.18-.18-.09-.3s.19,0,.27,0c.31.15.7.1.89.44A.75.75,0,0,1,61.81,3.87Zm-4.13-.36c-.11-.1-.34-.23-.25-.4s.3,0,.46,0a9.86,9.86,0,0,1,1.37.61,25.2,25.2,0,0,0,4,1.71c.26.06.28.18.09.36s-.68.58-1.18.29c0-.19.28-.19.3-.42-.45.1-.91.33-1.35-.06,0-.18.32-.14.3-.36a1.42,1.42,0,0,1-1.32-.17c.14-.15.37-.14.49-.37C60,4.78,59.51,5,59,4.44l.73-.15c-.14-.18-.32-.11-.46-.13A3.28,3.28,0,0,1,57.68,3.51Zm6,3.1a1.19,1.19,0,0,1-.7-.19.68.68,0,0,1,.4-.33ZM59.05,5.39c-.31-.31-.73-.53-.72-1.15.84.54,1.63,1,2.46,1.44a15.46,15.46,0,0,0,2.63,1.08c.14,0,.39,0,.34.28,0,.11,0,.3-.11.31s-.31,0-.34-.27-.12,0-.2,0l-.46.05c-.34,0-.63,0-.24-.63-.51.26-.87.45-1.2.22s.21-.27.1-.49A1.57,1.57,0,0,1,59.86,6c.08-.19.31-.12.45-.28A2,2,0,0,1,59.05,5.39Zm.48.68a14,14,0,0,0,4.13,1.55.44.44,0,0,1,.37.43c0,.31-.33.23-.5.18s-.64,0-.6-.45c0-.11-.14,0-.2,0a1.37,1.37,0,0,1-.66.06c-.11,0-.23,0-.28-.1S62,7.6,62,7.41a1.62,1.62,0,0,1-1,0c-.15,0-.33-.07-.28-.29s0-.14-.17-.13A1,1,0,0,1,59.53,6.07Zm4.75,3.38c-1-.76-2.16-.89-3.07-1.59.95.24,1.86.51,2.81.69.1,0,.19.06.11.16S64.18,9.09,64.28,9.45Zm1,1.25c0,.08-.12.06-.18,0a.48.48,0,0,0-.52-.2c-.06,0-.15-.1-.14-.19s.14-.08.22-.14l.62.34C65.38,10.57,65.35,10.65,65.3,10.7Zm.24,1.15c-.44-.14-.52-.28-.59-.95A2.14,2.14,0,0,1,65.54,11.85Zm-.62.05a1.48,1.48,0,0,1-.56-1.2A2.6,2.6,0,0,1,64.92,11.9Zm-.68-1.81c-.16,0-.4,0-.4-.24s.24-.17.38-.16.32,0,.37.23S64.39,10.1,64.24,10.09ZM57.47,7.86A1.2,1.2,0,0,1,56.65,7C57.06,7.26,57.2,7.62,57.47,7.86Zm-1.24-1.5a.78.78,0,0,1-.36-.71C56.1,5.82,56.32,6,56.23,6.36Zm-.37.11a.82.82,0,0,1-.57-.66c0-.1-.06-.22.08-.26s.19,0,.24.16A2.12,2.12,0,0,1,55.86,6.47Zm-1.22-.6a.09.09,0,0,1,.14-.08,1.06,1.06,0,0,1,.56.71.91.91,0,0,1,0,.17.21.21,0,0,1-.25-.09A1,1,0,0,1,54.64,5.87Zm.29,1.25a.57.57,0,0,1-.53-.31c-.13-.15-.42-.34-.22-.52s.37.15.51.31A.68.68,0,0,1,54.93,7.12ZM54.24,5.3a1.22,1.22,0,0,1,1.32,0A2.24,2.24,0,0,0,53.71,6.6,1.1,1.1,0,0,1,54.24,5.3Zm-.35,1.53a1.43,1.43,0,0,1,.83.9A1,1,0,0,1,53.89,6.83ZM55.1,8.28a.21.21,0,0,1-.21-.19,1.27,1.27,0,0,1,.53-1,1.22,1.22,0,0,1,1.07-.41s.07,0,.1.07-.09.16-.17.17A1.78,1.78,0,0,0,55.23,8.1C55.2,8.16,55.23,8.29,55.1,8.28Zm.65.1c-.1-.06-.32-.09-.23-.28s.21,0,.33,0l.2,0a.13.13,0,0,1,0-.05c0-.17-.37-.21-.27-.41s.33,0,.49-.08c0-.12-.27-.23-.1-.38s.28,0,.39.12.48.47.79.77l-.55,0c0,.14.24.06.23.27l-.53-.05c.11.2.43.11.54.38A3.44,3.44,0,0,1,55.75,8.38Zm1.79.75c-.2,0-.26-.12-.21-.32a.64.64,0,0,1,.89-.47,1.33,1.33,0,0,0,1.55-.26c.59-.53,1-.49,1.39.05.12.16.1.44.29.62s-.08.1-.16.14a3.43,3.43,0,0,1-1.62.51C58.86,9.4,58.22,9.09,57.54,9.13Zm4.18.12a2.93,2.93,0,0,1-2.55.51A.37.37,0,0,0,59,9.69,6.17,6.17,0,0,0,61.51,9c.09,0,.19-.1.26,0S61.79,9.18,61.72,9.25Zm4.07,4.83a1.64,1.64,0,0,1,.26.29l-.51,0c-.17,0-.42.11-.51-.08s.17-.31.31-.42S65.66,14,65.79,14.08Zm-.39-.93c-.16,0-.26-.11-.24-.28s.21-.22.36-.22a.2.2,0,0,1,.22.23C65.71,13.06,65.58,13.13,65.4,13.15Zm-1.21-.91A4.29,4.29,0,0,1,62.6,9.82c-.27-.41-.52-.81-.83-1.27l.31.11a.64.64,0,0,1,.43.08,2.44,2.44,0,0,0,.78.37c.2.1.89.05.36.65-.17.19.06.32.24.4s.35,0,.27.23-.22,0-.31-.06c-.27-.15-.18.06-.2.18a.92.92,0,0,1-.12.56,1.91,1.91,0,0,0,1.12.95,1.35,1.35,0,0,0,1.66-.47c.11-.12.15-.35.38-.38A1.71,1.71,0,0,1,64.19,12.24ZM65.54,11c.34.1.36.36.35.62,0,0-.1.08-.12.07A.76.76,0,0,1,65.54,11Zm2.71-1.9a2,2,0,0,0-.31,1.66c.14.52-.31,1.06,0,1.62,0,.09-.1.15-.21.2a4.62,4.62,0,0,1-1.43.41c-.11,0-.27.07-.31-.08s-.1-.36.1-.47a3.29,3.29,0,0,0,1.07-1.3c.15-.3.41-.19.7-.28l-.61-.15-.23.2a1.28,1.28,0,0,1-1.35-.27c.31-.12.63,0,.89-.23a3.38,3.38,0,0,1-1.32-.26c-.13-.07-.31-.12-.32-.3a.2.2,0,0,1,.18-.23c.18,0,.27.12.35.25l.11.16c.07-.32-.09-.44-.3-.55s-.35-.15-.52-.22-.3-.12-.3-.31.25-.13.38-.2c-.61-.44-.64-.49-.19-.73-.18-.29-.82-.27-.62-.8s.53-.16.81-.17c.07-.29-.22-.18-.32-.28s-.41-.15-.52-.33-.45-.42-.16-.71.51,0,.76.07c.08,0,.1.07.06.16a.49.49,0,0,0,.27.65c.21.12.09.3.1.45l.25.26V7.21c-.12-.24-.1-.37.21-.31s.43.1.72.18c-.3-.47-.82-.34-1.13-.62-.12-.09-.33-.16-.24-.33S65,6,65.19,6a13.32,13.32,0,0,1,2.49,1A1.37,1.37,0,0,1,68.25,9.13Zm0-4.23c-.16-.05-.33-.1-.32-.28s.19-.16.32-.15.24-.17.37-.24a.18.18,0,0,1,.23,0s0,.13,0,.14C68.91,4.78,68.61,5,68.3,4.9Zm4.47,9.3a.72.72,0,0,1-.49-.16c-.09-.08-.19-.17-.1-.31s.19,0,.3,0,.22.06.34.11.37-.09.34.17S72.92,14.19,72.77,14.2Zm-.83-2.8a.17.17,0,0,1,.25-.09,3.76,3.76,0,0,0,1.52.28c.4,0,.41.22.19.51a5.6,5.6,0,0,0-.8,1.33.23.23,0,0,1-.36.16c-.19-.11,0-.23,0-.34.11-.28.43-.58.2-.84s-.49.09-.75.12-.43.13-.65.18a.36.36,0,0,1-.33.09.53.53,0,0,1-.51-.18A3.71,3.71,0,0,0,71.94,11.4ZM69.48,2.55a1.1,1.1,0,0,1,.08-1.32,1.5,1.5,0,0,0,.38,1c.11.1.23.24,0,.38A.33.33,0,0,1,69.48,2.55Zm.79,8.75c.28-.58,0-1.08-.41-1.57a.81.81,0,0,1,.25-1.06c.2-.11.7.26.72.63s.1.62.52.74.51,1,.37,1.28a2.52,2.52,0,0,1-.34.51c-.2.21-.43.56-.69.45A1,1,0,0,1,70.27,11.3Zm0,5.57c-.33.06-.65.1-1,.14a2.5,2.5,0,0,0-1,.29c-.1-.41.18-.47.37-.61-.25-.22-.39-.45-.16-.77.44.69.72.79,1.62.6.18,0,.41-.16.45.12S70.41,16.84,70.27,16.87Zm.54-.63c-.22,0-.37-.13-.32-.18a2.62,2.62,0,0,1,.67-.39c.1-.05.21.09.18.18C71.25,16.15,71,16.16,70.81,16.24Zm.68.42c-.23.13-.45,0-.65-.2.21-.05.35-.38.58-.14C71.48,16.39,71.65,16.57,71.49,16.66Zm.55-.21a1.35,1.35,0,0,1,1.62.3C73.12,16.57,72.53,16.8,72,16.45Zm1.85.73c.84-.37,1.83.07,2.67-.65C76.39,17.41,75,17.55,73.89,17.18Zm1.57-.4a3.73,3.73,0,0,1-2.17-.59c-.27-.14-.06-.31,0-.32.41-.07.51-.35.6-.7a.5.5,0,0,1,.41-.36c-.17,1.47.08,1.61,2.25,1.32A1.44,1.44,0,0,1,75.46,16.78ZM111.68,16c.21,0,.29.15.31.34s-.09.42-.42.54a1,1,0,0,0,.07-.55C111.63,16.25,111.44,16.08,111.68,16Zm-.48-.12a.1.1,0,0,1-.07.16,3.14,3.14,0,0,1-1.82.08s-.06-.11-.12-.2a8.61,8.61,0,0,0,1.78-.11C111.06,15.83,111.15,15.83,111.2,15.91ZM107.14,5.17a1.92,1.92,0,0,0,.22-.74c0-.09,0-.17.15-.16s.18,0,.19.13c0,.57.44,1.06.4,1.65s.06.88.1,1.4a1,1,0,0,1-.29-.77c-.3.31-.09.63,0,.92a2.85,2.85,0,0,1,.15,1.64c-.18-.18-.15-.38-.23-.55,0,.4,0,.79,0,1.19a2.75,2.75,0,0,1,0,1.21c.17,0,.16-.14.28-.17.12.28,0,.49-.15.71s-.38.15-.55.09-.06-.23,0-.34a2.2,2.2,0,0,0,.1-1.67.45.45,0,0,1,0-.25,2.49,2.49,0,0,0-.29-2c.31.09.28.3.42.39.09-.14,0-.26,0-.38A3,3,0,0,1,107.43,6c0-.19.28-.62-.28-.62C107,5.37,107.11,5.23,107.14,5.17Zm-3.67-1.79c.08.44-.25.67-.39,1.09l.54-.46a3.11,3.11,0,0,0-.06,1.2l.09-.1a1.86,1.86,0,0,1,.29-1c.12-.16.24-.31.43-.07.76,0,1.12.22,1.11.81,0,.29-.11.54-.43.53s-.43-.27-.44-.54a3.19,3.19,0,0,1,.13-.59c-.17,0-.33,0-.39.22a1.35,1.35,0,0,1-.43.78c.48.1.48.1.28.61.34-.12.69-.28.7.25.53-.06.69-.65,1.18-.76h0c-.22-.16-.58-.3,0-.57a.86.86,0,0,1,0,.57h0c-.24.8-.55,1-1.39,1l-.1.09c1.18.18,1.83-.36,1.86-1.58a.46.46,0,0,1,.27-.49,9,9,0,0,1,.18,1.78,25.19,25.19,0,0,1,.1,2.75c0,.11,0,.28-.13.28a.58.58,0,0,1-.36-.17.39.39,0,0,1-.13-.32c.28-.68.29-.68.25-1.08a1.1,1.1,0,0,0,0,1.81.66.66,0,0,1,.35.76c0,.12.09.3-.12.35,0-.23-.56.15-.41-.35.1-.33-.25-.53-.34-.83-.13.36.42.79-.15,1.08-.19-.14-.09-.37-.2-.54-.16.14-.1.41-.33.51-.16-.11-.2-.3-.3-.45-.21.06-.14.84-.59.21,0,0-.09,0-.13,0-.36.13-.36.13-.36-.32-.25.1-.14.47-.41.54-.24-.25-.07-.56-.14-.87-.35.2-.14.63-.4.88a.75.75,0,0,1-.12-.6c0-1.09,0-2.18,0-3.26l0-.06,0,0c0-.68,0-1.36-.1-2A1.2,1.2,0,0,1,103.47,3.38Zm2.63,8.1s0,.1,0,.12a.25.25,0,0,1-.32-.07c-.13-.13-.24.1-.4,0,.08-.24.25-.17.39-.17A.4.4,0,0,1,106.1,11.48Zm-1.17,1.19a.11.11,0,0,1,0-.18,1.18,1.18,0,0,1,.56,0,.18.18,0,0,1,.15.23,4.6,4.6,0,0,1-.73,2.17,6.54,6.54,0,0,0-.64,1c-.1.19,0,.33.16.43a9,9,0,0,1,1.62.35l0,.15-1.58-.42h-1c.39-.72.65-1.41-.11-1.94-.44-.32-1-.14-1.47.44a2.38,2.38,0,0,1,.49-2.51c.45-.42,1,0,1.59-.07a1.83,1.83,0,0,1,0,.19c-.07.18-.36.47-.17.5s.44.55.89.24C105,13.1,105.33,13.11,104.93,12.67Zm2.67,1.12c-.36.2-.64-.14-1,0l.82.4c-.4.16-.71-.13-1,0a1.8,1.8,0,0,0,.61.29c.08,0,.17.06.14.17s-.14.08-.22.06l-.86-.25,0,.08.67.34c.15.06.3.1.25.32s-.25.22-.41.18a7.84,7.84,0,0,1-.94-.29c-.25-.1-.36-.25-.19-.55a7.5,7.5,0,0,0,.58-1.71.46.46,0,0,1,.75-.23.34.34,0,0,1,.09.12c0,.27,0,.27.18.35s.16.07.14.19-.29,0-.4.11C107,13.61,107.33,13.55,107.6,13.79Zm-1,2.48c-.11.38-.39.29-.67.2a2.92,2.92,0,0,0-.89-.23c-.19,0-.5.06-.5-.21a.47.47,0,0,1,.53-.5l.12-.11c0-.09-.17-.14-.1-.26s.2-.05.3,0a2.92,2.92,0,0,0,1,.36c.16,0,.45,0,.44.16s-.3.1-.47.14l-.22.09C106.29,16,106.72,15.82,106.6,16.27Zm-4.11-1.06a.42.42,0,0,1,.39.52c-.09.14,0,.42-.29.46-.11,0-.61-.62-.56-.74A.38.38,0,0,1,102.49,15.21ZM104,12.9c.09-.2.16-.45.4-.42s.39.24.47.51A2.31,2.31,0,0,1,104,12.9Zm0-1.61a2,2,0,0,1,1.19.12A.9.9,0,0,1,104,11.29Zm-.19.12c-.24.19-.52-.12-.76,0,0,0-.08-.07-.07-.1a.12.12,0,0,1,.09-.1h.74Zm-1.65-8c.27,0,.27.25.25.47a.56.56,0,0,1-.17.44.49.49,0,0,1-.22-.47C102,3.66,101.88,3.4,102.11,3.38Zm-.33,1.26c0-.11,0-.43.29-.14s.37-.07.57-.25a11,11,0,0,1,.13,2.13c-.26-.07-.26-.27-.27-.44s0-.25-.21-.18a1.78,1.78,0,0,0,.28,1,1.89,1.89,0,0,1,0,1.44c-.25-.39.12-.76-.13-1.12a2.51,2.51,0,0,0-.12,1.48,2,2,0,0,1,0,1.07c-.18.67-.23,1.31.49,1.77-.62.13-1-.12-1-.68a2.08,2.08,0,0,1,.1-.82,2.92,2.92,0,0,0,0-1.58,1.13,1.13,0,0,1,0-.77,2,2,0,0,0,0-1.61A2.43,2.43,0,0,1,101.78,4.64Zm.9,5v1.13A.87.87,0,0,1,102.68,9.66Zm-4-7.58c-.18.16.18.55-.24.61-.08,0-.15,0-.15-.08C98.26,2.34,98.45,2.2,98.68,2.08ZM94.59,3.3a2.84,2.84,0,0,0,.92-.06V3.12L95.1,3c0-.29.68.17.36-.4,0-.09.16-.06.25-.08s.23.08.21,0c-.16-.73.35-.08.45-.24s-.14-.35.06-.44.29.13.47.2c.11-.1,0-.74.4-.19.1.14.15.09.18-.05s.14-.21.27-.12.09.25,0,.36a1.67,1.67,0,0,1-.65.29l.1.2v.24c.25-.57.61-.13.87-.07s-.06.2-.17.25a5.53,5.53,0,0,1-1.5.55c-.78.11-1.57.2-2.38.3C94,3.37,94.31,3.33,94.59,3.3Zm-1.4,1.8a.6.6,0,0,1-.14.78c-.09.09-.17,0-.19-.07C92.77,5.5,92.92,5.29,93.19,5.1Zm.94,3.21c-.42,0-.3.67-.76.61.3.24-.33.36-.08.62.08.08-.09.15-.18.2s-.27.06,0,.22-.23.18-.25.37c.46.05.33.24.07.45.44,0,.59.58,1.11.4s1-.39,1.09-1.12c.26.22.39.51.83.57-.68.4-1,.95-1.64,1.18a1.54,1.54,0,0,1-2.1-.93,4.57,4.57,0,0,1,.13-2.71C92.4,8,92.51,8,92.7,8a3.7,3.7,0,0,0,1.48.08C94.27,8.21,94.18,8.31,94.13,8.31Zm.53-.63c-.36-.18-.62.1-.92.13A2.86,2.86,0,0,1,92,7.53a6.31,6.31,0,0,0,2.55-.35c.14,0,.36-.21.4,0S94.82,7.75,94.66,7.68ZM98,7c0,.1-.06.21-.11.31s-.08.3-.25.3,0-.25-.16-.33c-.18.15-.17.51-.48.48-.16,0,0-.21-.08-.35-.16.2-.26.43-.52.47-.12-.17.13-.24.06-.42-.42.44-1.11.41-1.47,1-.13-.51.14-.79.27-1.12.06-.17.2-.37.05-.53s-.33,0-.48.06a10.41,10.41,0,0,1-1.56.37c-.55.09-.59,0-.41-.47a3,3,0,0,1,.81-1.37,1.49,1.49,0,0,0-.28-.73c-.25-.27,0-.38.18-.48a2,2,0,0,1,1-.32l1.86-.15h0A10.64,10.64,0,0,0,98.21,3h0a4,4,0,0,1,1.83-.7c0,.25-.15.26-.24.27a1.86,1.86,0,0,0-1.11.54c-.19.17-.34,0-.48-.11h0a.59.59,0,0,1-.19.56l.19.08c.19-.3.69-.16.83-.56.55.42.69-.28,1-.39a.66.66,0,0,1,.79.17,1.77,1.77,0,0,1,.47,2.32,1.16,1.16,0,0,0-.12.45,2.48,2.48,0,0,1-1.1,1.74,2.21,2.21,0,0,0-.51-.86c-.69-.67-.71-.72-.66-1.62-.25.36-.25.36,0,1.59.39-.06.51.27.65.49s-.11.36-.24.49a3.19,3.19,0,0,1-.95.71c-.29-.49.06-.82.24-1.19-.19,0-.15-.21-.29-.27-.08.2,0,.46-.21.6C98,7.28,98.1,7.07,98,7Zm.37,2.19c0-.27.32-.24.37-.45s-.26,0-.4-.18a4.4,4.4,0,0,0,1.49-1.24c.18.25.08.52.29.71.48-.69,1.24-1.17,1.43-2.19a2.31,2.31,0,0,1-.42,2,5.87,5.87,0,0,1-2.83,2.27c-.2-.45.26-.55.45-.77C98.61,9.17,98.35,9.42,98.32,9.18Zm-2.65,3.4a1.57,1.57,0,0,1,.68-.83c.78-.41,1.42-1.05,2.24-1.4a7.09,7.09,0,0,0,2.62-2.24c.08-.11.17-.21.36-.44a14.4,14.4,0,0,1-.46,3.69c-.09.36-.18.61.33.54,0,.17-.12.24-.19.53.89-.93,1.86-.42,2.76-.46a3.2,3.2,0,0,1-1.41.06c-.26,0-.39,0-.52.24a1.93,1.93,0,0,1-1.09.84l.54,0c0,.41-.36.32-.61.47l.51.07c0,.27-.33.24-.43.42.11.16.37-.09.42.14s-.2.21-.28.35.47,0,.28.24.08.24.12.36-.2.22-.26.37c.1.14.35-.14.38.13s-.16.21-.29.26-.32.12-.48.19c-.34.15-.56.16-.65-.31,0-.29-.13-.65-.6-.64-.13,0-.15-.24-.17-.39-.16-1.3-.31-2.6-.49-4.05a3.25,3.25,0,0,0,0,1.88c-.21,0-.16-.24-.31-.25-.13.55-.13.55-.58.13-.12.12.16.33-.06.4s-.32-.18-.48-.25c-.15.15.16.34,0,.46s-.24-.21-.44-.19c-.07.18.37.6-.23.54,0,0,0,0-.06.06-.15.39-.15.39-.58.24C95.33,13.45,95.34,13.45,95.67,12.58ZM90.2,13c-.45.2-.89.4-1.34.58-.29.12-.47-.13-.85-.17A3.21,3.21,0,0,1,90.2,13ZM89,12c.29,0,.49,0,.59.24a.11.11,0,0,1-.09.15C89.22,12.47,89.08,12.33,89,12Zm.12-.31a1.54,1.54,0,0,1,1-.26C89.81,11.75,89.59,12.12,89.1,11.73Zm1.36-1.63c-.25,1-.48,1.24-1.35,1.34A4.66,4.66,0,0,1,90.46,10.1Zm.25-1.65c-.69.87-.69,2-1.63,2.62A2.74,2.74,0,0,1,90.71,8.45ZM88.55,7.34a7.69,7.69,0,0,1,1.71-2.49,18.83,18.83,0,0,0-1.21,3.07l.1.1A4.09,4.09,0,0,1,90.69,6.5a11.43,11.43,0,0,0-1.84,4.64,1.83,1.83,0,0,1-.1-1h-.12c-.17-.21-.07-.46-.07-.69l-.12-.24v-.5l-.11-.24A1.56,1.56,0,0,1,88.55,7.34Zm.6-2.81a.6.6,0,0,1-.47.59c-.09,0-.18,0-.19-.11s.4-.68.53-.67S89.15,4.44,89.15,4.53ZM80.38,3.46a3,3,0,0,1,4.13-.1c.25.25.29.4-.12.49a8.4,8.4,0,0,1-2.06.23,7.25,7.25,0,0,1-1.85-.21C80.17,3.8,80.18,3.67,80.38,3.46ZM75.94,4.81c0-.09,0-.24.12-.22a.71.71,0,0,1,.6.58C76.31,5.22,76.05,5.14,75.94,4.81Zm.47,7.06a24.41,24.41,0,0,0,.73-5.59,2,2,0,0,0-.84-1.94c-.19-.11-.13-.2,0-.33a8.81,8.81,0,0,1,1-1.15c.14-.14.24-.12.4,0a8.27,8.27,0,0,0,8.06.79,4.33,4.33,0,0,0,1.56-.92c.33-.33.56-.28.81.09a2,2,0,0,0,.23.28,3.27,3.27,0,0,1,.62.83c.13.36-.37.45-.52.73A3.53,3.53,0,0,0,88,6.14a20.26,20.26,0,0,0,.69,5.8.8.8,0,0,1-.37,1,2.58,2.58,0,0,1-1.28.46,8.46,8.46,0,0,0-2.47.78,5.6,5.6,0,0,1-2.1.48,6.22,6.22,0,0,1-2-.45,16.3,16.3,0,0,0-3-.72c-.48-.06-.79-.57-1.14-.9S76.36,12.11,76.41,11.87ZM75,13.27a1.69,1.69,0,0,1,1.89.26C76.17,14.06,75.68,13.22,75,13.27ZM77,16.73a.21.21,0,0,1,.26-.13c.26.15,0,.38.16.66C77,17.12,76.93,17,77,16.73ZM87.76,16c-.72.19-1.31.14-1.67-.66a.73.73,0,0,0-.66-.35,2.67,2.67,0,0,1,1,1.48c0,.27,0,.41-.28.28a4.21,4.21,0,0,0-1.48-.24c-.27,0-.36-.08-.38-.35a.74.74,0,0,0-.54-.63c.38.57.38,1-.1,1.36s-.68.78-1.11.51c-.6-.37-1.65-.5-1.25-1.68-.29.2-.34.23-.32.46.06.38-.11.42-.43.4a6.2,6.2,0,0,0-1.55.11c-.09,0-.21.14-.27,0a.33.33,0,0,1,0-.29,3.8,3.8,0,0,1,.84-1.22,1.38,1.38,0,0,0-1,.82.52.52,0,0,1-.6.34c-.35,0-.69,0-1.1,0a2.58,2.58,0,0,1,1.05-1.79c-.51-.11-.64.54-1.07.46a3.55,3.55,0,0,0-1.12-.18,1.74,1.74,0,0,1,1.83-1,18.36,18.36,0,0,1,3.35.88,4.79,4.79,0,0,0,3.49-.13,9.16,9.16,0,0,1,3-.9,2.36,2.36,0,0,1,2,1.08c-.75-.11-1.4.29-2-.2a5.32,5.32,0,0,1,.72,1.14c.1.21.07.33-.19.31Zm.89,1a.64.64,0,0,1-.68.33c.24-.11.07-.6.51-.51C88.57,16.74,88.72,16.78,88.65,16.91Zm1.58-1c-.29.22-.38.41-.08.73a.44.44,0,0,1-.12.62c-.49-.7-1.42-.51-2.06-1a7.53,7.53,0,0,0,2.42-.63A1,1,0,0,1,90.23,15.87Zm.57.84c-.2,0-.42-.06-.47-.32s.21-.28.35-.34a2.51,2.51,0,0,0,1.52-2c.34,0,0,1,.69.33.09.44-.18.71-.26,1,.22.12.35-.19.57-.1s-.74.57.15.7A3.77,3.77,0,0,1,90.8,16.71Zm5.7-.7c-.14.38-.53.5-1.1.32.24-.22.49-.4.32-.72s-.42-.32-.71-.32H94.8c-.76,0-.84.12-.78.81l-.82-.32A2.44,2.44,0,0,1,96,15.13C96.33,15.3,96.66,15.53,96.5,16Zm.06-1c-.45-.12-.89-.24-1.33-.38s-.4-.34,0-.54l.1-.09c-.15-.18-.13-.39.11-.3a9.1,9.1,0,0,0,1.5.5s0,.12.06.18-.2.13-.3.2c.22,0,.25.15.19.32S96.67,15,96.56,15Zm.2.36c.52-.25.46-.73.43-1.11a.92.92,0,0,1,.69-1c1-.43,1.19-.31,1.24.76a4.11,4.11,0,0,0,.32,1.62c.19.4,0,.61-.36.76a1.85,1.85,0,0,1-1.83-.58A1.92,1.92,0,0,0,96.76,15.35Zm3,1.62a1.63,1.63,0,0,1-1.85.08c-.27-.14-.52-.3-.36-.67,1.37.53,1.74.44,2.46-.64A1,1,0,0,1,99.74,17Zm.54.31c-.11,0-.28,0-.3-.11s.13-.21.28-.23l.45-.09-.23-.11c-.28,0-.28-.18,0-.24a5.78,5.78,0,0,0,1.39-.56c.07,0,.14,0,.18,0s0,.22-.12.31l.1.07c.12,0,.25-.2.36,0s-.09.24-.18.31A3,3,0,0,1,100.28,17.28Zm5.77.16A17.55,17.55,0,0,0,102.2,17c.51-.53,1-.92.86-1.63-.11-.4-.48-.38-.82-.36a.61.61,0,0,1,1-.24c.59.38.53.9-.23,1.94a8.93,8.93,0,0,1,2.84.33,1.42,1.42,0,0,0,1.68-.71c.21,0,.14.26.26.38l.44-.54c.15.29-.15.49-.12.69s.41.05.58.25A3.7,3.7,0,0,1,106.05,17.44Zm2.85-.78c-.06.2-.22.12-.35.11s-.14-.16-.11-.27a.83.83,0,0,0-.25-.95s-.08.07-.09.1c-.09.37-.19.68-.61.24a1.25,1.25,0,0,0-.36-.2h0a.65.65,0,0,1-.4,1,2.16,2.16,0,0,1,.4-1h0a4.23,4.23,0,0,1,.47-1.36c.17-.28.32-.32.52,0a5.3,5.3,0,0,1,.86,1.81A1.06,1.06,0,0,1,108.9,16.66Zm.06-1.47c-.08-.21.25-.14.26-.32-.21-.09-.52.08-.63-.23s.21-.12.24-.24c-.19-.18-.75,0-.52-.53-.37,0-.51-.32-.7-.55a1.86,1.86,0,0,1-.28-.43c-.14-.57-.53-.69-1-.67s-.8,0-1.2,0c-.1,0-.28.07-.26-.13s.17-.13.29-.12c1,.06,2,.09,3,.2.46,0,.5-.07.42-.45-.12-.65,0-1.32,0-2,0-.46,0-.92,0-1.38a.65.65,0,0,1,.31-.61.75.75,0,0,1-.17-.72c.15,0,.17.16.28.19l.12-.12a2,2,0,0,1-.52-1.52c0-.32-.07-.64-.11-1.06a8.28,8.28,0,0,1,2.09,2,6.91,6.91,0,0,1,1.26,4.44,2.12,2.12,0,0,0,.34,1.23c.14.22.22.43,0,.65-.16,0,0-.24-.21-.29a1.2,1.2,0,0,1-.26,1,4.49,4.49,0,0,1-.2-1.76,5.29,5.29,0,0,0-.4-3.09c-.12-.26-.25-.29-.47-.21s-.26,0-.3.19c.15.07.44-.08.45.19a.73.73,0,0,1-.61.74c.06.18.34.05.3.2-.08.3-.44.29-.66.44.07.19.27,0,.39.15-.09.32-.46.31-.68.53l.38,0c-.08.26-.33.31-.47.46.06.12.28,0,.28.14s-.34.3-.51.52c.15.08.45-.08.42.28s-.17.32-.24.49c.49,0,.5,0,.22.55.21.06.71-.14.41.4,0,.06-.09.1,0,.14.34.11.34.12.16.46.35-.13.54-.09.38.33,0,0-.08.1,0,.16.3.16.3.17.11.46.07.17.34-.12.36.14s-.2.18-.31.2a4.34,4.34,0,0,1-1.14,0c-.11,0-.28,0-.33-.1s.23-.11.26-.26C109.31,15.24,109.05,15.42,109,15.19ZM110,17l-.66-.12c-.11,0-.26,0-.2-.22s.06-.27.26-.26a5.06,5.06,0,0,0,1.64-.16c.15,0,.28,0,.33.14a.29.29,0,0,1-.16.39A2.78,2.78,0,0,1,110,17Zm2.76,0a2.85,2.85,0,0,1-1.7.35c1.07-.44,1.2-.64,1-1.37.26-.16.46.33.65.11s-.06-.49-.13-.86c.36.26.6.48.62.84A.9.9,0,0,1,112.8,17Z"/><path class="cls-1" d="M108.49,9.3a1.86,1.86,0,0,0,0,.42A1.51,1.51,0,0,0,108.49,9.3Z"/><path class="cls-1" d="M74.72,8.65l.11.19h0a3.6,3.6,0,0,1,1.09,1.38c.06.13.11.26.17.4h0a.45.45,0,0,0,.06-.12,14.62,14.62,0,0,0-.82-2.11C75,7.64,74.47,7,74.05,6.3a6.07,6.07,0,0,1,2.32,2.9h0A.6.6,0,0,0,76.45,9a17.18,17.18,0,0,0-1.79-4.14,4.46,4.46,0,0,1,1.11,1h0a.15.15,0,0,1,.14,0h0a3.35,3.35,0,0,0-2.06-1.64,8.21,8.21,0,0,1,1.63,2.91A5.51,5.51,0,0,0,73.21,5.7a15.89,15.89,0,0,1,2,3l-.69-.31h0C74.52,8.5,74.63,8.56,74.72,8.65Z"/><path class="cls-1" d="M60.78,13a.86.86,0,0,0,.46-.57,4,4,0,0,1-2.07,1.06c0,.08.4.31-.06.33s-.13.12,0,.21c-.29.26.17.91-.57.92.2.2.47,0,.54.18s-.22.25-.31.42c.21.18.38-.15.58,0-.24.25.36.4.09.67.08.05.38,0,.18.21a1.18,1.18,0,0,1-.89.42c0-.32.3-.25.38-.41-.2,0-.38,0-.46-.28a.58.58,0,0,0-.56-.45l0,.07s-.08.06-.13.06c.46.11.55.41.48.9-.07.72,0,1,.79.86a1.23,1.23,0,0,1,.27,0c.42,0,.84,0,.5-.67.3.16.24.51.53.6.17-.36-.05-.61-.24-.83a6.69,6.69,0,0,1-.84-1.53,1.13,1.13,0,0,1,.27-1.32c.19-.21.3-.21.35.09s0,.45.32.42a2,2,0,0,1-.09-.22A.84.84,0,0,1,60.78,13Z"/><path class="cls-1" d="M54.32,16.94a4.1,4.1,0,0,1,.57-.06c.36.05,0,.33.12.5.44-.17.86-.36,1.29,0a.19.19,0,0,0,.24,0,2.3,2.3,0,0,1,1.5-.22A2.39,2.39,0,0,0,54.32,16.94Zm.65-.21c.22-.25.45-.35.57-.28.33.19.68.05,1,.11s-.28.34.12.31a.72.72,0,0,1,.53.06A2.92,2.92,0,0,1,55,16.73Z"/><path class="cls-1" d="M55.34,14.61h-.09a.22.22,0,0,1,0,.06s0-.05,0-.07l-.09,0c-.1,0-.25,0-.19-.13a2.68,2.68,0,0,0,0-1,.94.94,0,0,1,.53-.77A7.2,7.2,0,0,1,57,12.1a1.69,1.69,0,0,0,.93-.57c-.08,0-.12-.1-.08-.19a5,5,0,0,1-2,.95c-.8.26-1,.58-1,1.4a1.47,1.47,0,0,1-.17.74c-.19.42-.5.84-.21,1.39.3-.53.93-.55,1.3-.93a.15.15,0,0,1-.14-.05C55.38,14.94,55.45,14.62,55.34,14.61Z"/><path class="cls-1" d="M68.35,15.16A1.07,1.07,0,0,0,67,14.79,1,1,0,0,0,66.44,16a1,1,0,0,0,1,.82c-.19-.33-.33-.63.17-.71a.23.23,0,0,0,.17-.3C67.58,15.26,67.93,15.18,68.35,15.16ZM67,16.46a.74.74,0,0,1-.28-1.08A.84.84,0,0,1,67.85,15,1.37,1.37,0,0,0,67,16.46Z"/><path class="cls-1" d="M79.79,17.05a1.84,1.84,0,0,0,1.7.32C81.06,16.75,80.48,16.94,79.79,17.05Z"/><path class="cls-1" d="M83.75,17.47a1.93,1.93,0,0,0,1.63-.35C84.75,16.93,84.17,16.79,83.75,17.47Z"/><path class="cls-1" d="M71.84,7.16h0c.05-.06.11-.1.19-.06a.29.29,0,0,0-.19-.22A.32.32,0,0,1,71.84,7.16Z"/><path class="cls-1" d="M71.28,8.33c-.26.11-.44-.2-.61-.36a.44.44,0,0,1-.12-.11l0,0a.24.24,0,0,0,0,.09h0c.13.32.49.43.77.61s.22-.11.29-.22a1.54,1.54,0,0,0,.21-.31c0-.18.07-.37.1-.55a.58.58,0,0,0,0-.19.5.5,0,0,1,0-.12l-.1.12a.47.47,0,0,1-.06.09.2.2,0,0,1,0,.11A.77.77,0,0,1,71.28,8.33Z"/><path class="cls-1" d="M80.56,2.27A5.21,5.21,0,0,0,79.73,1c0-.06-.09-.1-.17-.05s-.06.11,0,.17A4,4,0,0,0,80.56,2.27Z"/><path class="cls-1" d="M82.57,0a2.62,2.62,0,0,0,0,1.79Z"/><path class="cls-1" d="M85.35,1c0-.07,0-.14,0-.18s-.12,0-.13,0a8.23,8.23,0,0,0-.8,1.41l.14.08Z"/><path class="cls-1" d="M70.14,15.44h0a4.89,4.89,0,0,0-.7-1.21.17.17,0,0,1-.17,0c.27.46.54.91.8,1.37C70.05,15.57,70.09,15.5,70.14,15.44Z"/><path class="cls-1" d="M79.57,2.92c.09.05.2-.08.15-.13-.25-.25-.53-.48-.78-.69-.15,0-.22.08-.16.17A2.62,2.62,0,0,0,79.57,2.92Z"/><path class="cls-1" d="M81.47,1.9s.1,0,.1-.07c.06-.26-.1-.48-.18-.71,0-.06-.08-.13-.16-.09s-.1.17,0,.26S81.27,1.75,81.47,1.9Z"/><path class="cls-1" d="M86.18,2.15a1.33,1.33,0,0,0-.73.76A1.22,1.22,0,0,0,86.18,2.15Z"/><path class="cls-1" d="M97,16.94v0c-.18.13-.34.31-.57.3v0c-.06.08-.1.15-.16.22h0a1.38,1.38,0,0,0,1-.48h0A.2.2,0,0,1,97,16.94Z"/><path class="cls-1" d="M83.85.9c-.36.46-.41.68-.25,1.08A3.06,3.06,0,0,0,83.85.9Z"/><path class="cls-1" d="M83,1.83c.15-.07.15-.22.17-.35s0-.19-.13-.17-.15.2-.16.34S82.93,1.82,83,1.83Z"/><path class="cls-1" d="M61.63,13.82v.06l0,0c-.08-.09,0-.31-.21-.29s-.22.23-.24.39a.15.15,0,0,1-.13.14c-.1,0-.06-.13-.07-.2s0-.42-.27-.45a.23.23,0,0,0-.21.08.53.53,0,0,1,.18-.21c-.44,0-.28.46-.37.73,0,0,0,.06-.05.09a.39.39,0,0,0,.14-.1v0a.66.66,0,0,1,0,.28c.28-.06.2-.39.42-.58a.69.69,0,0,0,.13.55c.08.1.23.19.28.06.15-.4.41-.14.62-.14a.51.51,0,0,1-.14-.35c.11.07.07-.16.14-.17a.42.42,0,0,0-.11-.15A.47.47,0,0,0,61.63,13.82Zm-1.21,0a.3.3,0,0,1-.05.16.89.89,0,0,1,.08-.43A2.23,2.23,0,0,0,60.42,13.86Z"/><path class="cls-1" d="M75,15.63a1.4,1.4,0,0,0,1.2,0s.07-.08.06-.13a.18.18,0,0,0-.18-.15,1.61,1.61,0,0,0-.62,0,.37.37,0,0,1-.41-.18.3.3,0,0,1,.06-.38C74.88,15.08,74.72,15.34,75,15.63Z"/><path class="cls-1" d="M69.49,14.19h0v0l-.12,0a.31.31,0,0,1,.07.09Z"/><path class="cls-1" d="M70.16,15.44l0,.08a.27.27,0,0,0,0-.12Z"/><path class="cls-1" d="M58.24,11.43a.33.33,0,0,1-.29.11.27.27,0,0,1,0,.22l.1-.09Z"/><path class="cls-1" d="M55.25,14.6h0Z"/><path class="cls-1" d="M56.28,12.46l.3-.08a3,3,0,0,0-.32.06,1.36,1.36,0,0,0-1,.62.81.81,0,0,1,.31-.3A2.75,2.75,0,0,1,56.28,12.46Z"/><path class="cls-1" d="M57.93,11.76a1.72,1.72,0,0,1-.35.25A.7.7,0,0,0,57.93,11.76Z"/><path class="cls-1" d="M57.94,11.54a.13.13,0,0,0,0-.08.19.19,0,0,0,0,.07Z"/><path class="cls-1" d="M75.26,5.54a8.53,8.53,0,0,1,1.22,3.31v0a.39.39,0,0,0,0-.15l0-.25c-.14-.38-.28-.76-.43-1.14.29.22.35.56.5.86A1.25,1.25,0,0,0,76.27,7c-.25-.32-.58-.58-.55-1V6C75.41,6,75.4,5.64,75.26,5.54Z"/><path class="cls-1" d="M76.45,9V9h0l.12.37c0-.18-.06-.35-.09-.53A.35.35,0,0,1,76.45,9Z"/><path class="cls-1" d="M75.72,6h0s.07,0,.12,0l-.07-.06Z"/><path class="cls-1" d="M94,5.43c.23-.35.95-.14.9-.8,0,0,.13,0,.18,0a2.86,2.86,0,0,1,.8-.25c.76-.24,1.54-.39,2.29-.68a1.26,1.26,0,0,0-.67,0h0a5.15,5.15,0,0,1-.56.16c-.21,0-.43.08-.64.13,0,.13-.14.18-.4.12h-.06a3.8,3.8,0,0,0-2.06,1.31.14.14,0,0,1-.19,0A.27.27,0,0,0,94,5.43Z"/><path class="cls-1" d="M76.24,9.3a4.31,4.31,0,0,0-1.08-1.68,7.82,7.82,0,0,1,.54,1,3.76,3.76,0,0,1,.58,1.08.94.94,0,0,1,0,.09v0c0-.11,0-.24,0-.35A.18.18,0,0,1,76.24,9.3Z"/><path class="cls-1" d="M76.21,10.32h0v0a1.15,1.15,0,0,1,.06-.17h0c-.09-.23-.18-.46-.28-.68A7.9,7.9,0,0,1,76.21,10.32Z"/><path class="cls-1" d="M76.36,9.25a.74.74,0,0,0,0,.14h0a.2.2,0,0,0,.13,0,1.42,1.42,0,0,0-.08-.18A.11.11,0,0,1,76.36,9.25Z"/><path class="cls-1" d="M76.26,10.55c0-.08,0-.15-.05-.23s0,.11,0,.16h0a2.25,2.25,0,0,1,.08.24C76.3,10.68,76.27,10.61,76.26,10.55Z"/><path class="cls-1" d="M88.63,8.79c.05-.13.1-.26.16-.38A1.06,1.06,0,0,0,88.63,8.79Z"/><path class="cls-1" d="M104.33,6.19a3.8,3.8,0,0,1-.43-.47A1.29,1.29,0,0,0,104.33,6.19Z"/><path class="cls-1" d="M66.91,9.94c.11,0,.24,0,.35,0s.2,0,.17-.11c-.24.09,0-.31-.25-.23a.46.46,0,0,0-.18.1.6.6,0,0,1-.63-.08.12.12,0,0,1-.06-.11c.11-.23.33-.1.51-.14a1,1,0,0,0,.24-.09.49.49,0,0,0-.61-.17.53.53,0,0,1-.73-.39c0-.46.35-.18.53-.23s.24,0,.22-.09a.63.63,0,0,0,0-.22c0-.11-.15,0-.2,0-.26.18-.47.05-.68-.08L65.38,8a.54.54,0,0,1,.16.27.89.89,0,0,0,.3.06c-.12,0-.21,0-.24.12.07.28.14.57.47.69a.14.14,0,0,1,.11.1c-.06,0-.18,0-.24-.05s.18.06.18.16a.77.77,0,0,0,.07.27.53.53,0,0,1,0-.13.24.24,0,0,0,.17.19.5.5,0,0,1,.25.14h.21l-.17.11c0,.05,0,.11,0,.19v0s0,0,0,.06h0s.08,0,.1.07l.08-.06C66.65,10.11,66.61,10,66.91,9.94Z"/><path class="cls-1" d="M66.32,9.79l.23.26a.19.19,0,0,1,.09-.11.15.15,0,0,0,0-.11A.44.44,0,0,1,66.32,9.79Z"/><path class="cls-1" d="M65.09,7.85a.69.69,0,0,1,0-.13.33.33,0,0,1,.21-.21s0,0,0,.06-.21.26-.11.3a.6.6,0,0,1,.11.06.18.18,0,0,1,0-.16c.09-.18.28-.15.46-.1a1.13,1.13,0,0,0,.62.11c-.12-.1-.12-.34-.3-.29-.37.09-.59-.14-.86-.28a.6.6,0,0,0,.09.18.1.1,0,0,0-.09,0C65.34,7.57,64.93,7.72,65.09,7.85Zm.39-.34h-.15s0-.08,0-.11A.42.42,0,0,0,65.48,7.51Z"/><path class="cls-1" d="M65.89,9.16A1.24,1.24,0,0,1,65.68,9l0,.08S65.82,9.13,65.89,9.16Z"/><path class="cls-1" d="M65.48,8.25a.39.39,0,0,1-.11-.06,3.07,3.07,0,0,1,.17.42.2.2,0,0,1,.06-.15,1,1,0,0,0-.06-.18Z"/><path class="cls-1" d="M66.73,10.32v0h0Z"/><path class="cls-1" d="M98.94,6.5l-.3.5C99,7,99.09,6.82,98.94,6.5Z"/><polygon class="cls-1" points="96.34 3.77 96.35 3.76 96.34 3.77 96.34 3.77"/><path class="cls-1" d="M93.64,4.46a1.93,1.93,0,0,0,.91-.14c.13-.06.19-.16.31,0s.19.06.31,0a1.65,1.65,0,0,1,.7-.21L96.33,4a1.15,1.15,0,0,0,0-.21h0a.56.56,0,0,1-.38.15,12.19,12.19,0,0,0-2.32.37c-.23.08-.33.19-.3.42C93.45,4.64,93.37,4.43,93.64,4.46Z"/><path class="cls-1" d="M109.1,8.14c-.21-.05-.32,0-.47.27a1.46,1.46,0,0,0-.14.89A2.07,2.07,0,0,1,109,8.24a.26.26,0,0,1,.08.32c0,.11-.24.24,0,.32s.18-.13.2-.25,0-.19.12-.17a.17.17,0,0,1,.14.23c0,.08-.08.16-.1.24a.12.12,0,0,0,.07.16A.12.12,0,0,0,109.7,9c0-.39.31-.27.51-.34a3.94,3.94,0,0,1-.55-.26A1.38,1.38,0,0,1,109.1,8.14Z"/><path class="cls-1" d="M109.1,8.14l.18.06.38.2a2.33,2.33,0,0,0,.85.07,2.39,2.39,0,0,1-1.78-.74A1.22,1.22,0,0,0,109.1,8.14Z"/><path class="cls-1" d="M104.35,4.5c-.06-.15.19-.28,0-.43A.63.63,0,0,0,104.35,4.5Z"/><path class="cls-1" d="M76,10.62v0a.25.25,0,0,1,.06.16v-.05s0-.05,0-.06v0l-.14-.1Z"/><path class="cls-1" d="M75.14,9.34l.28.47c-.09-.16-.18-.32-.29-.48Z"/><path class="cls-1" d="M76,11.15v0s0,0,0,0h0v0Z"/><path class="cls-1" d="M76.08,10.62l0,.05s0,.05.08.07a.61.61,0,0,1,0-.12Z"/><path class="cls-1" d="M75.1,9.27c-.08-.15-.18-.29-.27-.43s-.17-.13-.27-.19a3.08,3.08,0,0,1,.57.68Z"/><path class="cls-1" d="M75.6,10.11,75.52,10a.86.86,0,0,1-.1-.16c.06.1.12.2.17.3a2.25,2.25,0,0,0,.33.46c-.1-.14-.21-.28-.3-.42S75.61,10.13,75.6,10.11Z"/><polygon class="cls-1" points="70.42 7.72 70.41 7.72 70.42 7.73 70.42 7.72"/><path class="cls-1" d="M96.94,16.83l0,0a1.48,1.48,0,0,0-.06-.39,1,1,0,0,0-.31.57A.47.47,0,0,1,96.94,16.83Z"/><path class="cls-1" d="M97,16.92h0l.09-.06a.35.35,0,0,0-.13,0A.16.16,0,0,0,97,16.92Z"/><path class="cls-1" d="M96.43,17.18a.67.67,0,0,0,.12-.2h0a.58.58,0,0,1-.32.2.65.65,0,0,0,.18,0Z"/><path class="cls-1" d="M102.11,4.92s0-.09,0-.15a.42.42,0,0,0-.05-.27l-.1.18A.72.72,0,0,0,102.11,4.92Z"/><path class="cls-1" d="M102.31,5.3a.39.39,0,0,1,0,.21v.25a1.63,1.63,0,0,0,.09-.19A.36.36,0,0,0,102.31,5.3Z"/><path class="cls-1" d="M75.91,11.17h0v0l0,0a1.3,1.3,0,0,1-.28,0A.73.73,0,0,0,75.91,11.17Z"/><path class="cls-1" d="M95.67,14.13a6,6,0,0,0,.69.2A1.83,1.83,0,0,0,95.67,14.13Z"/><path class="cls-1" d="M63.34,10.61c-.19-.31-.38-.61-.59-.92l-.07,0h0l0,.06a13.74,13.74,0,0,0,.83,1.36c0-.12-.05-.22-.07-.33A.31.31,0,0,1,63.34,10.61Z"/><path class="cls-1" d="M63.4,10.57l.06.17c.1.06.14-.13.19-.23C63.57,10.64,63.52,10.74,63.4,10.57Z"/><path class="cls-1" d="M62.38,9.11c.13.19.26.39.37.58a1.23,1.23,0,0,1,.27.22c-.19-.33-.38-.66-.57-1-.05-.07,0-.12.06-.16C62.22,8.78,62.28,9,62.38,9.11Z"/><path class="cls-1" d="M97.61,3.41a2.78,2.78,0,0,1-1.26.36h0c.42.36.78-.19,1.18-.08h0c.08-.33.3-.16.48-.12C97.94,3.36,97.8,3.3,97.61,3.41Z"/><path class="cls-1" d="M96.34,3.77h0Z"/><polygon class="cls-1" points="96.34 3.77 96.34 3.77 96.34 3.77 96.34 3.77"/><polygon class="cls-1" points="98.22 3.02 98.21 3.01 98.21 3.01 98.22 3.02"/><path class="cls-1" d="M96.17,3.21c.29-.24.69-.34.91-.68,0,0,.07,0,.1,0S97,2.41,97,2.46l-.09,0a2.17,2.17,0,0,1-1.13.59,1.35,1.35,0,0,0-.22.14C95.74,3.23,96,3.32,96.17,3.21Z"/><path class="cls-1" d="M96.86,2.51l.22-.18c-.57.17-1,.68-1.57.79a.78.78,0,0,0,.22,0C96.09,2.88,96.51,2.76,96.86,2.51Z"/><path class="cls-1" d="M66,5.67a.92.92,0,0,0,.38.09,1,1,0,0,0-.67.11,2.82,2.82,0,0,0,1.93-.47A5.69,5.69,0,0,1,66,5.67Zm.91,0a.91.91,0,0,1-.44.09A2,2,0,0,0,67,5.67Z"/><path class="cls-1" d="M76.18,9.67l-.12-.33A2.19,2.19,0,0,0,76.18,9.67Z"/><path class="cls-1" d="M76.3,10h0v0Z"/><path class="cls-1" d="M76.31,9.78a1.21,1.21,0,0,1,0,.19v0c0,.14.1.23.24.07C76.35,10.06,76.34,9.91,76.31,9.78Z"/><path class="cls-1" d="M76.3,10a.61.61,0,0,1,0,.13l.08.19a1.2,1.2,0,0,0,0-.33Z"/><path class="cls-1" d="M75.62,8.53c.12.3.25.61.37.92a7.55,7.55,0,0,0-.29-.84S75.65,8.55,75.62,8.53Z"/><path class="cls-1" d="M88.63,10.1a.78.78,0,0,0,.2-.42,2,2,0,0,0-.08.43c.21-.6.42-1.2.62-1.8A5.27,5.27,0,0,0,88.63,10.1ZM89,9.18c0,.11-.08.24-.12.37A1,1,0,0,1,89,9.18Z"/><path class="cls-1" d="M109,7.08a.84.84,0,0,0,.25.38,1,1,0,0,0-.37-.26,2.45,2.45,0,0,0,1.4.89A8.88,8.88,0,0,1,109,7.08Zm.64.66a.74.74,0,0,1-.32-.22A1.66,1.66,0,0,0,109.6,7.74Z"/><path class="cls-1" d="M67.06,10.58c0-.17.15-.07.22-.06.33.05.44,0,.3-.39-.23.11-.44.24-.71.11,0,0,0,.08,0,.09v0c.07,0,.14,0,.12.07s0,.16,0,.2.15.06.24.1S67.06,10.64,67.06,10.58Z"/><path class="cls-1" d="M67,10.64a1.31,1.31,0,0,1-.12-.27h0l0,0a.06.06,0,0,0,0,0s0,0,0,0,0,0,0,0l-.05,0c.08.19.15.4.23.6A.25.25,0,0,0,67,10.64Z"/><path class="cls-1" d="M104.59,6.45l-.18-.18a1.06,1.06,0,0,1-.72-.91.05.05,0,0,0,0,0c0-.05-.07-.07-.11-.11A1.31,1.31,0,0,0,104.59,6.45Z"/><path class="cls-1" d="M104.41,6.27a1.84,1.84,0,0,0,.28.09,1.2,1.2,0,0,1-.36-.17Z"/><path class="cls-1" d="M103.9,5.72a2.37,2.37,0,0,1-.25-.61c0,.09,0,.16,0,.25A2.12,2.12,0,0,0,103.9,5.72Z"/><path class="cls-1" d="M96.5,14.43a1.86,1.86,0,0,1-1-.33l-.3,0a3.21,3.21,0,0,0,1.47.49C96.62,14.51,96.56,14.48,96.5,14.43Z"/><path class="cls-1" d="M96.36,14.33l.14.1a1.58,1.58,0,0,0,.47-.07A1.77,1.77,0,0,1,96.36,14.33Z"/><path class="cls-1" d="M95.67,14.13,95.3,14l.2.12Z"/><polygon class="cls-1" points="107.13 15.69 107.13 15.69 107.13 15.69 107.13 15.69"/><path class="cls-1" d="M101.71,16.39a2,2,0,0,1-.81.3,1.35,1.35,0,0,0-.19.16,2.66,2.66,0,0,0,1.27-.5Z"/><path class="cls-1" d="M101.71,16.39l.17-.11-1.4.46a3,3,0,0,0,.42,0A1.7,1.7,0,0,1,101.71,16.39Z"/><path class="cls-1" d="M88.59,9c0,.13,0,.27,0,.41.2-.46.39-.92.59-1.39a.88.88,0,0,0-.2.18A2.52,2.52,0,0,1,88.59,9Z"/><path class="cls-1" d="M89,8.2a2.31,2.31,0,0,1,.1-.28,1.54,1.54,0,0,0-.26.49A.83.83,0,0,1,89,8.2Z"/><path class="cls-1" d="M88.63,8.79a1.93,1.93,0,0,1-.19.38A1.22,1.22,0,0,0,88.59,9C88.6,8.93,88.62,8.86,88.63,8.79Z"/><path class="cls-1" d="M71.24,12.8c.13,0,.15-.14.2-.24,0,.09,0,.15.13.15,0-.32.41-.43.46-.84C71.66,12.16,71.3,12.36,71.24,12.8Z"/><path class="cls-1" d="M104.5,16.42s0,0,0-.05a.25.25,0,0,0,0,.08S104.49,16.44,104.5,16.42Z"/><path class="cls-1" d="M88.34,8.43a.29.29,0,0,0,.18-.18,1.84,1.84,0,0,0-.07.42L89,7.21C88.6,7.56,88.57,8,88.34,8.43Zm.32-.59-.09.25A.62.62,0,0,1,88.66,7.84Z"/><path class="cls-1" d="M108.1,6.05l-.19.63C108.24,6.55,108,6.24,108.1,6.05Z"/><polygon class="cls-1" points="76.59 8.25 76.59 8.25 76.59 8.24 76.59 8.25"/><path class="cls-1" d="M76.54,8.11a.16.16,0,0,0,0-.12Z"/><path class="cls-1" d="M76.59,8.25v0h0a.35.35,0,0,1,0,.11h0l.1.26a.79.79,0,0,0-.07-.41Z"/><path class="cls-1" d="M76.63,8.13a.34.34,0,0,1,0,.12.22.22,0,0,0,.19.1.83.83,0,0,1-.15-.23Z"/><path class="cls-1" d="M105.36,15.56l-.29,0a2.3,2.3,0,0,0,1.07.38.61.61,0,0,0-.15-.13A1.44,1.44,0,0,1,105.36,15.56Z"/><path class="cls-1" d="M106,15.78l.37,0-1.17-.4c.06.06.12.09.17.14A1.17,1.17,0,0,1,106,15.78Z"/><path class="cls-1" d="M71,5.26a.35.35,0,0,1-.36.24.78.78,0,0,1-.05.14c.25,0,.47-.15.53-.42S71,5,70.88,4.9s0,0,0,.08S71.12,5.07,71,5.26Z"/><path class="cls-1" d="M70.86,5s-.08,0-.1-.08a.66.66,0,0,1,.08.13S70.86,5,70.86,5Z"/><path class="cls-1" d="M70.72,5.41a.53.53,0,0,1-.19,0,.65.65,0,0,0,.15,0A.15.15,0,0,0,70.72,5.41Z"/><polygon class="cls-1" points="106.09 5.37 106.09 5.37 106.09 5.38 106.09 5.37"/><path class="cls-1" d="M67,5.2l-.87,0c.13.13.3.09.44.09-.14,0-.31,0-.44.11A1.05,1.05,0,0,0,67,5.2Z"/><path class="cls-1" d="M59.39,16.24l-.33.22C59.26,16.52,59.4,16.5,59.39,16.24Z"/><path class="cls-1" d="M55.21,14.53s-.05,0-.09,0l.09,0Z"/><path class="cls-1" d="M55.29,14.57l0,0,.08,0S55.3,14.59,55.29,14.57Z"/><path class="cls-1" d="M77.41,13a4.35,4.35,0,0,1,2.38.55,5.75,5.75,0,0,0,3.35.65c1.63-.28,3.12-1.17,4.81-1.3-.19-.34-.59-.36-.85-.56.15-.38.5-.6.68-.93-.37-.11-.65.14-1,.1a1.23,1.23,0,0,1,.08-.25,4.92,4.92,0,0,0,.07-3.56,2.45,2.45,0,0,1-.06-2.15c-.18,0-.26,0-.31,0-.28.18-.53.32-.52-.22,0-.15-.11-.17-.22-.1-.47.41-.91.1-1.33-.07a4.4,4.4,0,0,0-3.83-.08c-.23.1-.51.28-.72.15-.38-.24-.58-.16-.69.23-.23,0-.25-.33-.55-.29a6.22,6.22,0,0,1-.46,2.41,4.72,4.72,0,0,0,0,3.81c-.39.08-.78,0-1.09.26l1,.55C77.8,12.44,77.51,12.61,77.41,13Zm.5-.3c.77-.42.83-.41,1.39.36ZM82.22,14c-.16,0-.25-.09-.23-.27s.09-.2.23-.2.2.14.22.29S82.37,14,82.22,14Zm-3.16-2.77c0-.24.19-.15.28-.15.64,0,1.28,0,1.91,0a.51.51,0,0,1,.51.28c.08.16.12.27-.11.27H79.13c.21-.15.29-.22.42-.3Zm-.23-.9c.73,0,1.48,0,2.24,0,.21,0,.27.24.32.52H79.13c-.2,0-.37,0-.12-.24S78.79,10.57,78.83,10.32Zm-.14-.68c0-.09.12-.1.19-.1h1.77c.31,0,.32.21.35.41s-.22.15-.33.16a7.66,7.66,0,0,1-.83,0h0a2.2,2.2,0,0,0-.68,0C78.68,10.25,78.77,9.86,78.69,9.64ZM82,11.8c.16,0,.23.15.34.22s.49.31.66-.08a.2.2,0,0,1,.19-.13h2.31c-.48.65-1.11.49-1.69.49-1,0-2.12,0-3.16.06a1.35,1.35,0,0,1-1.12-.56Zm4.25-2.49H84.58c.4-.54.48-.56,1.69-.44,0,.18-.26.07-.29.28S86.23,9.11,86.27,9.31Zm.06.19c0,.34-.29.24-.42.36l.38.14v.07H83.87C84.58,9.11,85.51,9.7,86.33,9.5Zm-.08.81c-.12.23-.3.15-.41.25s.28,0,.27.27H83.65c-.1,0-.22,0-.18-.17s.15-.34.39-.34Zm-.26.75c-.1.3-.33.12-.47.23s.2.08.2.24a.17.17,0,0,1-.1.06H83.46c-.13,0-.33.07-.35-.12s.08-.42.31-.42C84.27,11,85.11,11.06,86,11.06Zm-3.51,1.51c-.22.54-.78.08-1.13.47s-.58-.47-1-.47Zm-.19.63c0-.15.09-.27.25-.27a.27.27,0,0,1,.28.29c0,.19-.18.08-.24.14S82.28,13.37,82.29,13.2Zm.59.79c-.21,0-.19-.15-.2-.28s.12-.22.26-.24.23.15.27.29S83,14,82.88,14Zm-.29-1.43H84.7c-.19.19-.52.07-.56.42-.17,0-.44.23-.51-.14s-.22-.1-.33-.12A1.46,1.46,0,0,1,82.59,12.56Zm4.61.15-1.92.64A1.66,1.66,0,0,1,87.2,12.71Zm0-1c-.24.41-.46.74-1,.7C86.41,11.91,86.77,11.77,87.24,11.68Zm-.87-5.76c-.26,1.06.44,1.89.57,2.85a4.52,4.52,0,0,1-3.06,4.94c-.13,0-.33.24-.43,0s.17-.28.33-.34a4,4,0,0,0,2.76-4.5,3.67,3.67,0,0,0-1.39-2.11A1.52,1.52,0,0,0,86.37,5.92Zm-.63-.43c.22.27.26.5.1.72s-.63.28-1,.21A1.37,1.37,0,0,0,85.74,5.49Zm-.67.14c.1,0,.23,0,.23.15s-.25.24-.42.3-.19,0-.17-.13A.38.38,0,0,1,85.07,5.63ZM86,8c.23.41,0,.6-.24.55-.94-.19-1.24.6-1.75,1a4.08,4.08,0,0,0-1.19,2.27c-.09.36-.31.08-.4,0A5.38,5.38,0,0,1,81,8.94c0-.39-.07-.39-.41-.19a.36.36,0,0,1,.19.48c-.06.18-.27.12-.41.12-.47,0-.93,0-1.4,0-.13,0-.38.07-.32-.17,0-.09,0-.37.33-.33A4.24,4.24,0,0,1,80.09,9,1.11,1.11,0,0,0,80,8.78c-.07-.11-.22-.2-.14-.35s.22-.09.34-.09a.5.5,0,0,0,.47-.15c.09-.09.26-.15.2-.32a.3.3,0,0,0-.36-.16c-.45.11-.93-.08-1.41,0a2,2,0,0,1,1.34-.89c.18,0,.56,0,.25-.39-.09-.12.13-.44.36-.54a3.63,3.63,0,0,1,3.3.17C84.64,6.93,85.57,7.22,86,8Zm-7.22.57c0-.11.09-.12.15-.17C79.3,8,79.3,8,80.58,8c-.13.27-.33.24-.51.21s-.4,0-.44.2c-.07.42-.36.25-.59.28S78.81,8.66,78.77,8.53Zm2.28-3.37a4.28,4.28,0,0,1,3.38.2c.1,0,.24.08.22.24s-.13.33-.38.2a3.44,3.44,0,0,0-3.06-.19c-.22.1-.34,0-.4-.2S80.94,5.2,81.05,5.16Zm-.61.3c.16,0,.23.12.26.25s-.06.19-.14.18-.33-.08-.36-.23S80.32,5.46,80.44,5.46Zm-1,.13c0-.1,0-.23.16-.22a.27.27,0,0,1,.2.13c0,.4.38.47.68.6a1,1,0,0,1-1,0C79.39,6,79.45,5.76,79.47,5.59ZM78.33,8A9.08,9.08,0,0,0,79,5.57c.07,1,1,.73,1.44.94.06.17,0,.16,0,.16a2.27,2.27,0,0,0-1.91,2.06,4,4,0,0,0,2.92,4.68l.1,0c.15,0,.34.07.27.29s-.23.09-.35.06a4.34,4.34,0,0,1-3.07-2.71A4.18,4.18,0,0,1,78.33,8Zm-.63,3.76a.6.6,0,0,1,.88.41A2.05,2.05,0,0,1,77.7,11.74Z"/><path class="cls-1" d="M81.83,16.37c0-.24.09-.47.12-.71A.44.44,0,0,0,81.83,16.37Z"/><path class="cls-1" d="M82.6,16.48v-.8A.59.59,0,0,0,82.6,16.48Z"/><path class="cls-1" d="M100.16,5c.06-.23-.26-.24-.21-.43s.31,0,.45,0c-.06-.2-.4-.17-.38-.38s.3,0,.45-.14l-.39-.25c.2-.28.47-.08.74-.12a.8.8,0,0,0-.94-.23c-.32.13-.22.44-.19.69a2.94,2.94,0,0,1-.16,1A.56.56,0,0,1,100.16,5Z"/><path class="cls-1" d="M95.75,4.82c0,.07-.13.14,0,.21.34.21.61.08.87-.25C96.29,4.53,96,4.49,95.75,4.82Z"/><path class="cls-1" d="M103.51,8.92a1.77,1.77,0,0,0,.33-.43c.07-.11.14-.27.3-.21s.13.2.13.32,0,.5-.07.83c.23-.3.38-.72.59-.75.47-.06.2.51.42.74a1.5,1.5,0,0,0,.14-.19,5.08,5.08,0,0,1,1.28-2c.21-.19.14-.41.08-.64-.07.08-.15.2-.18.19-.23-.09-.13-.36-.23-.54-1.3,1.06-2.18.82-3-.79-.22.54.46,1,.1,1.47-.16-.06-.14-.28-.46-.39v0A2.78,2.78,0,0,1,103.51,8.92Zm1.65-1.13c-.65.26-.91.21-1.18-.2Z"/><path class="cls-1" d="M67.74,9.25c0-.67-.65-1.15-.68-1.94A2.19,2.19,0,0,0,67.74,9.25Z"/><path class="cls-1" d="M71.42,3.14A2.08,2.08,0,0,1,72.19,3C71.86,2.71,71.62,2.84,71.42,3.14Z"/><path class="cls-1" d="M59.53,8.64c.33-.18.63-.44,1-.63A1,1,0,0,0,59.53,8.64Z"/><path class="cls-1" d="M59.86,8.83c.23-.18.49-.31.72-.49A.66.66,0,0,0,59.86,8.83Z"/><path class="cls-1" d="M102.29,5.51c0-.31-.4-.48-.32-.83C101.64,5.12,102.12,5.26,102.29,5.51Z"/><path class="cls-1" d="M102.31,5.3a.88.88,0,0,0-.2-.38A1,1,0,0,0,102.31,5.3Z"/><path class="cls-1" d="M71.75,9.57c.14,0,.14-.12.14-.23A.26.26,0,0,1,71.75,9.57Z"/><path class="cls-1" d="M82.53,6.2c-.33,0-.41.45-.55.69-.32.52-.84,1.06-.63,1.73a19.81,19.81,0,0,0,1,2.27c.1.2.29.26.39,0a6.69,6.69,0,0,1,.84-1.53,1.38,1.38,0,0,0,.27-1,3.49,3.49,0,0,0-.8-1.53C82.83,6.64,82.81,6.2,82.53,6.2ZM83,7a.94.94,0,0,1-.85,0A.85.85,0,0,1,83,7Zm.59,1.83a2.22,2.22,0,0,1-.5.9,3.66,3.66,0,0,0-.56,1.08,1.73,1.73,0,0,1,.22-1.53c.17-.4.34-.79,0-1.2a2.77,2.77,0,0,1-.52,1.79,2.6,2.6,0,0,1-.64-1.58c0-.37.15-.6.58-.53a2.68,2.68,0,0,0,.63,0C83.46,7.72,83.78,8.13,83.57,8.81Zm-.29-1.42c0,.19-.18.16-.31.19s-.28,0-.34,0H82.3c-.14,0-.38,0-.38-.17s.24-.12.36-.14A5.25,5.25,0,0,1,83,7.21C83.1,7.2,83.27,7.22,83.28,7.39Z"/></g></g></svg>