<svg width="40" height="40" viewBox="0 0 40 40" fill="none" xmlns="http://www.w3.org/2000/svg">
<path d="M20.1363 22.111C18.8047 20.9512 17.1723 20.135 15.3252 19.8773C17.1294 19.3188 18.461 17.6435 18.461 15.6245C18.461 13.176 16.485 11.2 14.0365 11.2C11.5879 11.2 9.61194 13.176 9.61194 15.6245C9.61194 17.6006 10.9436 19.3188 12.7478 19.8773C8.2803 20.5216 4.80078 24.3447 4.80078 29.027H17.0864C17.0435 26.2778 18.2462 23.8293 20.1363 22.111Z" fill="#A065FE"/>
<path d="M27.6093 19.8773C29.4134 19.3188 30.7451 17.6435 30.7451 15.6245C30.7451 13.176 28.7691 11.2 26.3205 11.2C23.872 11.2 21.896 13.176 21.896 15.6245C21.896 17.6006 23.2277 19.3188 25.0319 19.8773C23.1847 20.135 21.5524 20.9512 20.2207 22.111C22.1108 23.7863 23.3136 26.2778 23.3136 29.027H35.5992C35.5563 24.3447 32.0767 20.5216 27.6093 19.8773Z" fill="#E3D2FF"/>
<path d="M20.1358 22.1111C18.2458 23.7864 17.043 26.2779 17.043 29.0271H23.2717C23.2717 26.2779 22.0689 23.8294 20.1358 22.1111Z" fill="#7D47E5"/>
<path d="M13.2201 25.3758L12.1462 24.3018L11.2871 25.161L13.2201 27.094L16.4849 23.7864L15.6687 22.9272L13.2201 25.3758Z" fill="#E3D2FF"/>
</svg>
