<svg xmlns="http://www.w3.org/2000/svg" width="180px" height="32px" viewBox="0 0 180 32" fill="#180048" style="min-width: 140px;"><path d="M50.8 19.7c0 1-1.1 1.5-1.9 1.7-.3-.4-.6-.9-.6-1.3 0-.8.6-1.3 1.3-1.3.6 0 1.2.2 1.2.9M13.8 29.9L20.7 18H16l2.3-4h10.9l-2.3 4H23l-7 12.1c7.7 0 14-6.3 14-14.1 0-7.7-6.3-14-14-14-.6 0-1.1 0-1.7.1L7.5 14H16l-2.3 4H2.9l8.8-15.3C6.1 4.5 2 9.8 2 16c0 7 5.1 12.8 11.8 13.9M16 0c8.8 0 16 7.2 16 16s-7.2 16.1-16 16.1S0 24.9 0 16C0 7.2 7.2 0 16 0M38 21.1h6.1l.4-1.7h-4l1.9-9h-2.2z" fill-rule="evenodd" clip-rule="evenodd"></path><path d="M51.6 21.1h2.3l-1.2-1.8c1.1-1.1 1.7-2.5 1.8-4h-1.9c0 .9-.4 1.8-.9 2.6l-1.5-2.2c1.4-.5 2.8-1.3 2.8-3s-1.7-2.4-3-2.4c-1.6 0-3.2.9-3.2 2.7 0 .9.3 1.4.8 2-1.6.5-2.9 1.5-2.9 3.3 0 2.2 1.8 3 3.7 3 1 0 2.2-.3 2.9-.8l.3.6zm-1.3-1.9c-.5.4-1.2.5-1.8.5-1 0-1.9-.4-1.9-1.5s.9-1.5 1.8-1.9l1.9 2.9zm.9-6.5c0 1-1.1 1.5-1.9 1.7-.3-.4-.6-.9-.6-1.3 0-.8.6-1.3 1.3-1.3.6-.1 1.2.1 1.2.9M54.2 12.1h2.9l-1.9 9h2.2l1.9-9H62l.4-1.7h-7.8z" fill-rule="evenodd" clip-rule="evenodd"></path><path d="M66.9 10.4h5.9l-.4 1.7h-3.7l-.6 2.6h3.6l-.3 1.7h-3.6l-1 4.7h-2.1zM73.6 13.2h2.1L74 21.1h-2.1l1.7-7.9zm.7-3.4h2.1l-.4 2h-2.1l.4-2zM76.9 14.3c.1-.5.2-.9.2-1.1h2l-.1.8c.6-.5 1.3-1 2.2-1 1.6 0 2.6 1 2.6 2.5 0 .6-.2 1.2-.3 1.7l-.8 3.8h-2.1l.8-3.7c.1-.5.2-1.1.2-1.7 0-.7-.5-1.1-1.1-1.1-1.4 0-1.9 1.3-2.2 2.5l-.8 4h-2.1l1.5-6.7zM89.1 19.9c-.7.9-1.4 1.4-2.6 1.4-1.4 0-2.4-.8-2.4-2.3 0-2.6 2.9-2.8 4.8-2.8h.7c.1-.2.1-.4.1-.7 0-.8-.9-1-1.6-1-.9 0-1.8.2-2.6.6l.3-1.6c.9-.3 1.8-.5 2.7-.5 1.6 0 3.1.6 3.1 2.4 0 1.1-.8 4.2-1 5.6h-1.7l.2-1.1zm-2-.1c1.5 0 2-1.1 2.3-2.3h-.7c-1 0-2.7.2-2.7 1.5.1.5.6.8 1.1.8M93.8 14.3c.1-.5.2-.9.2-1.1h2l-.1.8c.6-.5 1.3-1 2.2-1 1.5 0 2.6 1 2.6 2.5 0 .6-.2 1.2-.3 1.7l-.8 3.8h-2.1l.8-3.7c.1-.5.2-1.1.2-1.7 0-.7-.5-1.1-1.1-1.1-1.4 0-1.9 1.3-2.2 2.5l-.8 4h-2.1l1.5-6.7zM107.9 15c-.4-.3-.9-.4-1.5-.4-1.6 0-2.6 1.5-2.6 3 0 1 .3 2.1 1.7 2.1.5 0 1.1-.1 1.7-.4l-.2 1.6c-.6.3-1.3.4-2 .4-2 0-3.4-1.4-3.4-3.4 0-2.8 1.8-4.9 4.7-4.9.8 0 1.5.1 2.1.3l-.5 1.7zM109.6 13.2h2.1l-1.7 7.9h-2.1l1.7-7.9zm.7-3.4h2.1l-.4 2h-2.1l.4-2zM116.5 19.9c-.7.9-1.4 1.4-2.6 1.4-1.4 0-2.4-.8-2.4-2.3 0-2.6 2.9-2.8 4.8-2.8h.7c.1-.2.1-.4.1-.7 0-.8-.9-1-1.6-1-.9 0-1.8.2-2.6.6l.3-1.6c.9-.3 1.8-.5 2.7-.5 1.6 0 3.1.6 3.1 2.4 0 1.1-.8 4.2-1 5.6h-1.7l.2-1.1zm-2-.1c1.5 0 2-1.1 2.3-2.3h-.7c-1 0-2.7.2-2.7 1.5 0 .5.6.8 1.1.8M121.8 9.6h2l-2.4 11.5h-2.1zM135.6 12.5c-.6-.3-1.4-.6-2.2-.6-.8 0-1.8.3-1.8 1.2 0 1.7 3.6 1.6 3.6 4.6 0 2.6-2.1 3.6-4.4 3.6-1 0-2.1-.2-3.1-.6l.6-1.8c.8.4 1.7.7 2.6.7 1 0 2-.5 2-1.7 0-1.9-3.6-1.6-3.6-4.5 0-2.3 1.9-3.2 4-3.2.9 0 1.9.1 2.8.5l-.5 1.8zM138 17.8c0 1.5.8 2 2.2 2 .8 0 1.7-.2 2.4-.6l-.3 1.6c-.8.2-1.7.4-2.5.4-2.3 0-3.8-1.1-3.8-3.5 0-2.5 1.9-4.8 4.5-4.8 1.9 0 3.2 1 3.2 3 0 .6-.1 1.2-.2 1.8H138zm3.7-1.4v-.5c0-.8-.4-1.3-1.3-1.3-1.3 0-1.8.8-2.2 1.9h3.5zM154.9 13.2l-3.1 5.8-.8-5.9h-1.7c-1 0-2 .7-2.3 1.5l.3-1.5h-2c-.1.4-.1.7-.2 1.1l-1.4 6.8h2.1l.7-3.5c.3-1.5 1-2.7 2.5-2.7h.2l1.1 6.3h2.3l4.6-7.9h-2.3zm-5.5 1.6s.1 0 0 0c.1 0 0 0 0 0m.1.1c.1 0 .1 0 0 0 .1 0 .1 0 0 0m.1 0c.1 0 .1 0 0 0 .1 0 0 0 0 0m.2 0M157.7 13.2h2.1l-1.7 7.9H156l1.7-7.9zm.7-3.4h2.1l-.4 2H158l.4-2zM166.1 15c-.4-.3-.9-.4-1.5-.4-1.6 0-2.6 1.5-2.6 3 0 1 .3 2.1 1.7 2.1.5 0 1.1-.1 1.7-.4l-.2 1.6c-.6.3-1.3.4-2 .4-2 0-3.4-1.4-3.4-3.4 0-2.8 1.8-4.9 4.7-4.9.8 0 1.5.1 2.1.3l-.5 1.7z"></path><path d="M167.8 17.8c0 1.5.8 2 2.2 2 .8 0 1.7-.2 2.4-.6l-.3 1.6c-.8.2-1.7.4-2.5.4-2.3 0-3.8-1.1-3.8-3.5 0-2.5 1.9-4.8 4.5-4.8 1.9 0 3.2 1 3.2 3 0 .6-.1 1.2-.2 1.8h-5.5zm3.8-1.4v-.5c0-.8-.4-1.3-1.3-1.3-1.3 0-1.8.8-2.2 1.9h3.5zM179.6 14.9c-.5-.2-1.1-.4-1.7-.4-.6 0-1.4.2-1.4.8 0 1 2.7 1.4 2.7 3.3 0 2.1-1.8 2.7-3.6 2.7-.8 0-1.7-.1-2.4-.5l.4-1.6c.6.3 1.2.6 2 .6.7 0 1.4-.2 1.4-.9 0-1.3-2.7-1.4-2.7-3.4 0-1.9 1.8-2.5 3.4-2.5.8 0 1.5.1 2.2.3l-.3 1.6z"></path></svg>