<svg width="70" height="36" viewBox="0 0 70 36" fill="none" xmlns="http://www.w3.org/2000/svg">
<path d="M68.6916 0H1.30841C0.585796 0 0 0.596954 0 1.33333V34.6667C0 35.403 0.585796 36 1.30841 36H68.6916C69.4142 36 70 35.403 70 34.6667V1.33333C70 0.596954 69.4142 0 68.6916 0Z" fill="#180048"/>
<mask id="mask0" mask-type="alpha" maskUnits="userSpaceOnUse" x="16" y="23" width="7" height="7">
<path d="M22.9495 29.16H16.1294V23.1333H22.9495V29.16Z" fill="white"/>
</mask>
<g mask="url(#mask0)">
<path fill-rule="evenodd" clip-rule="evenodd" d="M16.6492 25.6179L20.6333 28.8429C21.2388 29.3332 22.1321 29.2456 22.6286 28.6472C23.1252 28.0489 23.0365 27.1666 22.4307 26.6759L18.4466 23.4512C17.8415 22.9609 16.9478 23.0482 16.4513 23.6466C15.9547 24.2452 16.0434 25.1276 16.6492 25.6179Z" fill="white"/>
</g>
<path fill-rule="evenodd" clip-rule="evenodd" d="M23.4696 18.3599H18.1038C17.3286 18.3599 16.7002 19.0045 16.7002 19.7999C16.7002 20.5952 17.3286 21.2399 18.1038 21.2399H23.4696C24.2448 21.2399 24.8735 20.5952 24.8735 19.7999C24.8735 19.0045 24.2448 18.3599 23.4696 18.3599Z" fill="white"/>
<path fill-rule="evenodd" clip-rule="evenodd" d="M12.3089 22.314L8.3192 25.5387C7.73401 26.012 7.64798 26.8637 8.12654 27.442C8.60541 28.02 9.46766 28.105 10.0528 27.632L14.0422 24.407C14.6271 23.9344 14.7134 23.0824 14.2349 22.504C13.756 21.926 12.8937 21.8407 12.3085 22.314H12.3089ZM13.7197 15.624L9.26027 17.9264C8.60607 18.264 8.34079 19.0857 8.66724 19.762C8.99369 20.4384 9.78854 20.713 10.4424 20.3754L14.9015 18.073C15.5557 17.7354 15.821 16.9137 15.4945 16.2374C15.1681 15.561 14.3732 15.2864 13.7193 15.624H13.7197ZM16.7006 13.6797C16.7006 14.8727 17.655 15.8397 18.8326 15.8397C20.0102 15.8397 20.9643 14.8727 20.9643 13.6797C20.9643 12.4864 20.0099 11.5197 18.8326 11.5197C17.655 11.5197 16.7006 12.4864 16.7006 13.6797ZM31.9795 7.19971H31.9802V7.20004L31.9795 7.19971Z" fill="white"/>
<mask id="mask1" mask-type="alpha" maskUnits="userSpaceOnUse" x="41" y="6" width="11" height="12">
<path d="M41.4722 6.51074H51.4822V17.1421H41.4722V6.51074Z" fill="white"/>
</mask>
<g mask="url(#mask1)">
<path fill-rule="evenodd" clip-rule="evenodd" d="M49.0534 10.6161H44.2149C44.3379 9.89741 44.6071 9.34341 45.0229 8.95174C45.4458 8.55341 46.0326 8.35241 46.7902 8.35241C47.1749 8.35241 47.5095 8.41341 47.7938 8.53441C48.0796 8.65574 48.3152 8.82041 48.5023 9.02941C48.6905 9.24012 48.8325 9.48933 48.9187 9.76041C49.0057 10.0284 49.0498 10.3137 49.0534 10.6161ZM51.1511 12.1304C51.2355 12.0981 51.3045 12.0424 51.3539 11.9664C51.404 11.8901 51.437 11.7887 51.4553 11.6621C51.4733 11.5361 51.4822 11.3801 51.4822 11.1921C51.4822 10.4491 51.3647 9.78674 51.1295 9.20541C50.894 8.62541 50.5663 8.13441 50.145 7.73441C49.724 7.33441 49.2225 7.03041 48.6423 6.82274C48.0616 6.61474 47.4264 6.51074 46.7372 6.51074C45.9198 6.51074 45.1851 6.64474 44.5335 6.91308C43.8826 7.18108 43.3298 7.54508 42.8777 8.00508C42.4242 8.46619 42.0693 9.018 41.8353 9.62574C41.5932 10.2461 41.4722 10.9084 41.4722 11.6117C41.4722 12.5144 41.6105 13.3101 41.8882 13.9977C42.166 14.6844 42.5467 15.2621 43.0315 15.7284C43.5159 16.1951 44.0864 16.5474 44.7412 16.7851C45.3958 17.0231 46.1036 17.1424 46.8641 17.1421C47.2475 17.1421 47.6433 17.1154 48.0512 17.0621C48.4605 17.0084 48.8639 16.9158 49.2562 16.7854C49.6527 16.6542 50.0339 16.4791 50.3929 16.2631C50.7582 16.0435 51.0898 15.7703 51.3768 15.4521L51.3984 15.4281L50.614 14.5044C50.5568 14.4297 50.4843 14.3687 50.4014 14.3257C50.3102 14.2813 50.21 14.2594 50.109 14.2617C49.9392 14.2617 49.7655 14.3104 49.5882 14.4061C49.3889 14.5127 49.1877 14.6158 48.9847 14.7151C48.7265 14.8393 48.4588 14.9421 48.1843 15.0224C47.8814 15.1144 47.519 15.1611 47.0973 15.1611C46.2413 15.1607 45.5593 14.9174 45.0438 14.4314C44.5365 13.9541 44.2398 13.2037 44.158 12.1781H50.8407C50.9637 12.1781 51.0667 12.1627 51.1508 12.1304" fill="white"/>
</g>
<path fill-rule="evenodd" clip-rule="evenodd" d="M58.1634 22.8253H53.3242C53.4472 22.1067 53.7164 21.5527 54.1322 21.161C54.5551 20.7627 55.1419 20.5617 55.8995 20.5617C56.2842 20.5617 56.6191 20.6227 56.9034 20.7437C57.1889 20.865 57.4244 21.0297 57.6115 21.2387C57.7997 21.4494 57.9417 21.6986 58.0279 21.9697C58.115 22.2377 58.1594 22.523 58.163 22.8253H58.1634ZM60.2604 24.3397C60.3448 24.3073 60.4138 24.2517 60.4632 24.1757C60.5133 24.0993 60.5463 23.998 60.5646 23.8713C60.5826 23.7453 60.5915 23.5893 60.5915 23.4013C60.5915 22.6583 60.474 21.996 60.2388 21.4147C60.0033 20.8347 59.6756 20.3437 59.2543 19.9437C58.8333 19.5437 58.3318 19.24 57.7515 19.032C57.1709 18.824 56.5357 18.72 55.8465 18.72C55.0294 18.72 54.2947 18.854 53.6428 19.1223C52.9919 19.3903 52.4394 19.7543 51.987 20.2143C51.5336 20.6755 51.1787 21.2273 50.9449 21.835C50.7028 22.455 50.5818 23.1177 50.5818 23.821C50.5818 24.7237 50.7201 25.5193 50.9982 26.207C51.2756 26.8937 51.6563 27.4713 52.1411 27.9377C52.6255 28.4043 53.196 28.7567 53.8512 28.9943C54.5054 29.2323 55.2132 29.3513 55.9737 29.3513C56.3571 29.3513 56.7529 29.3247 57.1608 29.2713C57.5701 29.2175 57.9735 29.1249 58.3658 28.9947C58.7623 28.8634 59.1435 28.6883 59.5025 28.4723C59.8679 28.2528 60.1994 27.9795 60.4865 27.6613L60.5084 27.6373L59.7236 26.7137C59.6665 26.639 59.5939 26.578 59.511 26.535C59.4198 26.4907 59.3196 26.4687 59.2186 26.471C59.0488 26.471 58.8751 26.5197 58.6979 26.6153C58.5248 26.7087 58.324 26.8113 58.0943 26.9243C57.8361 27.0486 57.5684 27.1513 57.2939 27.2317C56.991 27.3237 56.6286 27.37 56.207 27.37C55.3509 27.37 54.6689 27.1267 54.1534 26.6407C53.6461 26.1633 53.3494 25.413 53.2676 24.3873H59.9503C60.0733 24.3873 60.1767 24.372 60.2604 24.3397ZM39.0668 6.48001C38.9788 6.48001 38.9019 6.48268 38.8358 6.48734C38.7619 6.49301 38.6919 6.50734 38.6265 6.53134C38.5531 6.55911 38.4867 6.60331 38.4322 6.66068C38.3755 6.72145 38.3271 6.78973 38.2883 6.86368L35.255 12.417C35.1716 12.57 35.0941 12.729 35.0215 12.8953C35.0012 12.9413 34.9826 12.989 34.9626 13.0353L34.909 12.9067C34.8394 12.7447 34.7626 12.5861 34.6787 12.4313L31.6167 6.86334C31.5767 6.78751 31.526 6.7181 31.4662 6.65734C31.4106 6.60202 31.3443 6.55911 31.2716 6.53134C31.2041 6.50696 31.1337 6.49215 31.0622 6.48734C30.9854 6.48212 30.9083 6.47968 30.8313 6.48001H29.2305V16.8447H31.5899V10.5513C31.5899 10.509 31.5889 10.464 31.5879 10.4193L34.0219 15.1373C34.1006 15.2851 34.2152 15.4098 34.3549 15.4993C34.4955 15.5887 34.66 15.6317 34.8357 15.6313H35.0977C35.267 15.6345 35.4337 15.5887 35.5786 15.4993C35.7159 15.4127 35.8288 15.2887 35.9115 15.137L38.3099 10.4337C38.3092 10.4737 38.3082 10.5137 38.3082 10.5517V16.8447H40.6676V6.48001H39.0668ZM56.5416 14.9773H54.6428V8.31268H56.5416C57.0453 8.31268 57.4925 8.39068 57.8853 8.54268C58.2801 8.69534 58.6102 8.91168 58.882 9.19334C59.1542 9.47534 59.3648 9.82001 59.515 10.2337C59.6644 10.6457 59.7407 11.115 59.7407 11.645C59.7407 12.175 59.6644 12.645 59.515 13.0563C59.3648 13.4703 59.1542 13.815 58.882 14.097C58.6099 14.379 58.2801 14.595 57.8853 14.748C57.4928 14.9 57.0457 14.9773 56.5416 14.9773ZM61.7206 9.56068C61.4581 8.93838 61.0682 8.38038 60.5771 7.92401C60.0858 7.46768 59.4957 7.11301 58.8117 6.85968C58.1248 6.60568 57.3672 6.48001 56.5416 6.48001H52.2863V16.8103H56.5419C57.3669 16.8103 58.1244 16.6857 58.811 16.434C59.4953 16.1833 60.0861 15.8283 60.5774 15.3693C61.068 14.9114 61.4576 14.3525 61.7206 13.7297C61.9921 13.0943 62.1265 12.3977 62.1262 11.645C62.1265 10.8927 61.9921 10.196 61.7206 9.56068ZM31.8833 27.2673V19.008H29.3289V29.3383H37.1326V27.2673H31.8833ZM38.7308 19.08V29.52H41.2181V19.08H38.7308ZM50.4568 21.1113V19.08H42.6394V29.52H45.2245V25.706H49.6404V23.6667H45.2245V21.111L50.4568 21.1113Z" fill="white"/>
</svg>
