<svg width="254" height="181" viewBox="0 0 254 181" fill="none" xmlns="http://www.w3.org/2000/svg">
<rect width="254" height="181" rx="4" fill="#3D1F7A"/>
<path d="M20 61H218C226.837 61 234 68.1634 234 77V151C234 159.837 226.837 167 218 167H36C27.1634 167 20 159.837 20 151V61Z" fill="#291157"/>
<path d="M34.8807 81.7273H35.9318L38.4034 87.7642H38.4886L40.9602 81.7273H42.0114V89H41.1875V83.4744H41.1165L38.8438 89H38.0483L35.7756 83.4744H35.7045V89H34.8807V81.7273ZM44.2033 91.0455C44.0613 91.0455 43.9346 91.0336 43.8233 91.0099C43.7121 90.9886 43.6351 90.9673 43.5925 90.946L43.8056 90.2074C44.0092 90.2595 44.1891 90.2784 44.3453 90.2642C44.5016 90.25 44.6401 90.1802 44.7608 90.0547C44.8839 89.9316 44.9964 89.7315 45.0982 89.4545L45.2544 89.0284L43.2374 83.5455H44.1465L45.6522 87.892H45.709L47.2147 83.5455H48.1238L45.8084 89.7955C45.7042 90.0772 45.5752 90.3104 45.4213 90.495C45.2675 90.6821 45.0887 90.8205 44.8851 90.9105C44.6839 91.0005 44.4566 91.0455 44.2033 91.0455ZM53.3208 83.5455C53.2782 83.1856 53.1054 82.9062 52.8024 82.7074C52.4993 82.5085 52.1277 82.4091 51.6873 82.4091C51.3654 82.4091 51.0836 82.4612 50.8422 82.5653C50.603 82.6695 50.416 82.8127 50.2811 82.995C50.1485 83.1773 50.0822 83.3845 50.0822 83.6165C50.0822 83.8106 50.1284 83.9775 50.2207 84.1172C50.3154 84.2545 50.4361 84.3693 50.5829 84.4616C50.7297 84.5516 50.8836 84.6262 51.0446 84.6854C51.2056 84.7422 51.3535 84.7884 51.4885 84.8239L52.2271 85.0227C52.4165 85.0724 52.6272 85.1411 52.8592 85.2287C53.0936 85.3163 53.3173 85.4358 53.5304 85.5874C53.7458 85.7365 53.9234 85.9283 54.063 86.1626C54.2027 86.397 54.2725 86.6847 54.2725 87.0256C54.2725 87.4186 54.1696 87.7737 53.9636 88.0909C53.76 88.4081 53.4617 88.6603 53.0687 88.8473C52.6781 89.0343 52.2034 89.1278 51.6447 89.1278C51.1239 89.1278 50.6729 89.0438 50.2917 88.8757C49.9129 88.7076 49.6146 88.4732 49.3968 88.1726C49.1814 87.8719 49.0595 87.5227 49.0311 87.125H49.9402C49.9638 87.3996 50.0562 87.6269 50.2172 87.8068C50.3805 87.9844 50.5865 88.117 50.835 88.2045C51.086 88.2898 51.3559 88.3324 51.6447 88.3324C51.9809 88.3324 52.2827 88.2779 52.5502 88.169C52.8178 88.0578 53.0297 87.9039 53.1859 87.7074C53.3422 87.5085 53.4203 87.2765 53.4203 87.0114C53.4203 86.7699 53.3528 86.5734 53.2179 86.4219C53.0829 86.2704 52.9054 86.1473 52.6852 86.0526C52.465 85.9579 52.2271 85.875 51.9714 85.804L51.0765 85.5483C50.5083 85.3849 50.0585 85.1518 49.7271 84.8487C49.3957 84.5457 49.2299 84.1491 49.2299 83.6591C49.2299 83.2519 49.34 82.8968 49.5602 82.5938C49.7827 82.2884 50.081 82.0516 50.4551 81.8835C50.8315 81.7131 51.2517 81.6278 51.7157 81.6278C52.1845 81.6278 52.6011 81.7119 52.9657 81.88C53.3303 82.0457 53.6191 82.273 53.8322 82.5618C54.0476 82.8506 54.1613 83.1785 54.1731 83.5455H53.3208ZM57.979 83.5455V84.2557H55.1523V83.5455H57.979ZM55.9762 82.2386H56.8143V87.4375C56.8143 87.6742 56.8486 87.8518 56.9173 87.9702C56.9883 88.0862 57.0782 88.1643 57.1871 88.2045C57.2984 88.2424 57.4156 88.2614 57.5387 88.2614C57.631 88.2614 57.7068 88.2566 57.766 88.2472C57.8252 88.2353 57.8725 88.2259 57.908 88.2188L58.0785 88.9716C58.0217 88.9929 57.9424 89.0142 57.8406 89.0355C57.7388 89.0592 57.6097 89.071 57.4535 89.071C57.2167 89.071 56.9847 89.0201 56.7575 88.9183C56.5326 88.8165 56.3455 88.6615 56.1964 88.4531C56.0496 88.2448 55.9762 87.982 55.9762 87.6648V82.2386ZM61.397 89.1136C60.9046 89.1136 60.4725 88.9964 60.1009 88.7621C59.7315 88.5277 59.4427 88.1998 59.2344 87.7784C59.0284 87.357 58.9254 86.8646 58.9254 86.3011C58.9254 85.733 59.0284 85.237 59.2344 84.8132C59.4427 84.3894 59.7315 84.0604 60.1009 83.826C60.4725 83.5916 60.9046 83.4744 61.397 83.4744C61.8894 83.4744 62.3203 83.5916 62.6896 83.826C63.0613 84.0604 63.3501 84.3894 63.5561 84.8132C63.7644 85.237 63.8686 85.733 63.8686 86.3011C63.8686 86.8646 63.7644 87.357 63.5561 87.7784C63.3501 88.1998 63.0613 88.5277 62.6896 88.7621C62.3203 88.9964 61.8894 89.1136 61.397 89.1136ZM61.397 88.3608C61.7711 88.3608 62.0788 88.2649 62.3203 88.0732C62.5618 87.8814 62.7405 87.6293 62.8565 87.3168C62.9725 87.0043 63.0305 86.6657 63.0305 86.3011C63.0305 85.9366 62.9725 85.5968 62.8565 85.282C62.7405 84.9671 62.5618 84.7126 62.3203 84.5185C62.0788 84.3243 61.7711 84.2273 61.397 84.2273C61.023 84.2273 60.7152 84.3243 60.4737 84.5185C60.2322 84.7126 60.0535 84.9671 59.9375 85.282C59.8215 85.5968 59.7635 85.9366 59.7635 86.3011C59.7635 86.6657 59.8215 87.0043 59.9375 87.3168C60.0535 87.6293 60.2322 87.8814 60.4737 88.0732C60.7152 88.2649 61.023 88.3608 61.397 88.3608ZM65.1479 89V83.5455H65.9576V84.3693H66.0144C66.1138 84.0994 66.2937 83.8804 66.5542 83.7124C66.8146 83.5443 67.1081 83.4602 67.4348 83.4602C67.4964 83.4602 67.5733 83.4614 67.6657 83.4638C67.758 83.4661 67.8278 83.4697 67.8752 83.4744V84.3267C67.8468 84.3196 67.7817 84.3089 67.6799 84.2947C67.5804 84.2782 67.4751 84.2699 67.3638 84.2699C67.0987 84.2699 66.8619 84.3255 66.6536 84.4368C66.4476 84.5457 66.2843 84.6972 66.1635 84.8913C66.0452 85.0831 65.986 85.3021 65.986 85.5483V89H65.1479ZM70.9895 89.1136C70.464 89.1136 70.0106 88.9976 69.6294 88.7656C69.2507 88.5312 68.9583 88.2045 68.7523 87.7855C68.5487 87.3641 68.4469 86.8741 68.4469 86.3153C68.4469 85.7566 68.5487 85.2642 68.7523 84.8381C68.9583 84.4096 69.2447 84.0758 69.6117 83.8366C69.981 83.5952 70.4119 83.4744 70.9043 83.4744C71.1884 83.4744 71.4689 83.5218 71.7459 83.6165C72.0229 83.7112 72.275 83.8651 72.5023 84.0781C72.7296 84.2888 72.9107 84.5682 73.0456 84.9162C73.1806 85.2642 73.248 85.6927 73.248 86.2017V86.5568H69.0435V85.8324H72.3958C72.3958 85.5246 72.3342 85.25 72.2111 85.0085C72.0904 84.767 71.9176 84.5765 71.6926 84.4368C71.4701 84.2971 71.2073 84.2273 70.9043 84.2273C70.5705 84.2273 70.2817 84.3101 70.0378 84.4759C69.7963 84.6392 69.6105 84.8523 69.4803 85.1151C69.3501 85.3778 69.285 85.6596 69.285 85.9602V86.4432C69.285 86.8551 69.356 87.2043 69.498 87.4908C69.6425 87.7749 69.8425 87.9915 70.0982 88.1406C70.3539 88.2874 70.651 88.3608 70.9895 88.3608C71.2097 88.3608 71.4086 88.33 71.5861 88.2685C71.766 88.2045 71.9211 88.1098 72.0513 87.9844C72.1815 87.8565 72.2821 87.6979 72.3532 87.5085L73.1628 87.7358C73.0776 88.0104 72.9344 88.2519 72.7331 88.4602C72.5319 88.6662 72.2833 88.8272 71.9874 88.9432C71.6915 89.0568 71.3588 89.1136 70.9895 89.1136ZM77.3354 89V83.5455H78.1451V84.3693H78.2019C78.3013 84.0994 78.4812 83.8804 78.7417 83.7124C79.0021 83.5443 79.2956 83.4602 79.6223 83.4602C79.6839 83.4602 79.7608 83.4614 79.8532 83.4638C79.9455 83.4661 80.0153 83.4697 80.0627 83.4744V84.3267C80.0343 84.3196 79.9692 84.3089 79.8674 84.2947C79.7679 84.2782 79.6626 84.2699 79.5513 84.2699C79.2862 84.2699 79.0494 84.3255 78.8411 84.4368C78.6351 84.5457 78.4718 84.6972 78.351 84.8913C78.2327 85.0831 78.1735 85.3021 78.1735 85.5483V89H77.3354ZM83.177 89.1136C82.6515 89.1136 82.1981 88.9976 81.8169 88.7656C81.4382 88.5312 81.1458 88.2045 80.9398 87.7855C80.7362 87.3641 80.6344 86.8741 80.6344 86.3153C80.6344 85.7566 80.7362 85.2642 80.9398 84.8381C81.1458 84.4096 81.4322 84.0758 81.7992 83.8366C82.1685 83.5952 82.5994 83.4744 83.0918 83.4744C83.3759 83.4744 83.6564 83.5218 83.9334 83.6165C84.2104 83.7112 84.4625 83.8651 84.6898 84.0781C84.9171 84.2888 85.0982 84.5682 85.2331 84.9162C85.3681 85.2642 85.4355 85.6927 85.4355 86.2017V86.5568H81.231V85.8324H84.5833C84.5833 85.5246 84.5217 85.25 84.3986 85.0085C84.2779 84.767 84.1051 84.5765 83.8801 84.4368C83.6576 84.2971 83.3948 84.2273 83.0918 84.2273C82.758 84.2273 82.4692 84.3101 82.2253 84.4759C81.9838 84.6392 81.798 84.8523 81.6678 85.1151C81.5376 85.3778 81.4725 85.6596 81.4725 85.9602V86.4432C81.4725 86.8551 81.5435 87.2043 81.6855 87.4908C81.83 87.7749 82.03 87.9915 82.2857 88.1406C82.5414 88.2874 82.8385 88.3608 83.177 88.3608C83.3972 88.3608 83.5961 88.33 83.7736 88.2685C83.9535 88.2045 84.1086 88.1098 84.2388 87.9844C84.369 87.8565 84.4696 87.6979 84.5407 87.5085L85.3503 87.7358C85.2651 88.0104 85.1219 88.2519 84.9206 88.4602C84.7194 88.6662 84.4708 88.8272 84.1749 88.9432C83.879 89.0568 83.5463 89.1136 83.177 89.1136ZM90.432 91.0455V88.1619H90.361C90.2994 88.2614 90.2118 88.3868 90.0982 88.5384C89.9846 88.6875 89.8224 88.8213 89.6117 88.9396C89.401 89.0556 89.1204 89.1136 88.7701 89.1136C88.3155 89.1136 87.9142 88.9988 87.5662 88.7692C87.2182 88.5372 86.946 88.2105 86.7495 87.7891C86.553 87.3653 86.4547 86.8646 86.4547 86.2869C86.4547 85.714 86.553 85.2169 86.7495 84.7955C86.946 84.3741 87.2194 84.0485 87.5698 83.8189C87.9202 83.5893 88.325 83.4744 88.7843 83.4744C89.1394 83.4744 89.4199 83.5336 89.6259 83.652C89.8342 83.768 89.9928 83.9006 90.1017 84.0497C90.213 84.1965 90.2994 84.3172 90.361 84.4119H90.4604V83.5455H91.2701V91.0455H90.432ZM88.8837 88.3608C89.2199 88.3608 89.504 88.2732 89.736 88.098C89.968 87.9205 90.1444 87.6754 90.2651 87.3629C90.3858 87.0481 90.4462 86.6847 90.4462 86.2727C90.4462 85.8655 90.387 85.5092 90.2686 85.2038C90.1503 84.8961 89.9751 84.657 89.7431 84.4865C89.5111 84.3137 89.2246 84.2273 88.8837 84.2273C88.5286 84.2273 88.2327 84.3184 87.9959 84.5007C87.7615 84.6806 87.5852 84.9257 87.4668 85.2358C87.3508 85.5436 87.2928 85.8892 87.2928 86.2727C87.2928 86.661 87.352 87.0137 87.4703 87.331C87.5911 87.6458 87.7686 87.8968 88.003 88.0838C88.2398 88.2685 88.5333 88.3608 88.8837 88.3608ZM96.2417 86.7699V83.5455H97.0797V89H96.2417V88.0767H96.1848C96.057 88.3537 95.8581 88.5893 95.5882 88.7834C95.3184 88.9751 94.9775 89.071 94.5655 89.071C94.2246 89.071 93.9216 88.9964 93.6564 88.8473C93.3913 88.6958 93.1829 88.4685 93.0314 88.1655C92.8799 87.8601 92.8042 87.4754 92.8042 87.0114V83.5455H93.6422V86.9545C93.6422 87.3523 93.7535 87.6695 93.976 87.9062C94.2009 88.143 94.4874 88.2614 94.8354 88.2614C95.0437 88.2614 95.2556 88.2081 95.4711 88.1016C95.6889 87.995 95.8712 87.8317 96.0179 87.6115C96.1671 87.3913 96.2417 87.1108 96.2417 86.7699ZM100.902 89.1136C100.376 89.1136 99.9227 88.9976 99.5415 88.7656C99.1628 88.5312 98.8704 88.2045 98.6644 87.7855C98.4608 87.3641 98.359 86.8741 98.359 86.3153C98.359 85.7566 98.4608 85.2642 98.6644 84.8381C98.8704 84.4096 99.1568 84.0758 99.5238 83.8366C99.8931 83.5952 100.324 83.4744 100.816 83.4744C101.1 83.4744 101.381 83.5218 101.658 83.6165C101.935 83.7112 102.187 83.8651 102.414 84.0781C102.642 84.2888 102.823 84.5682 102.958 84.9162C103.093 85.2642 103.16 85.6927 103.16 86.2017V86.5568H98.9556V85.8324H102.308C102.308 85.5246 102.246 85.25 102.123 85.0085C102.002 84.767 101.83 84.5765 101.605 84.4368C101.382 84.2971 101.119 84.2273 100.816 84.2273C100.483 84.2273 100.194 84.3101 99.9499 84.4759C99.7085 84.6392 99.5226 84.8523 99.3924 85.1151C99.2622 85.3778 99.1971 85.6596 99.1971 85.9602V86.4432C99.1971 86.8551 99.2681 87.2043 99.4102 87.4908C99.5546 87.7749 99.7546 87.9915 100.01 88.1406C100.266 88.2874 100.563 88.3608 100.902 88.3608C101.122 88.3608 101.321 88.33 101.498 88.2685C101.678 88.2045 101.833 88.1098 101.963 87.9844C102.094 87.8565 102.194 87.6979 102.265 87.5085L103.075 87.7358C102.99 88.0104 102.846 88.2519 102.645 88.4602C102.444 88.6662 102.195 88.8272 101.9 88.9432C101.604 89.0568 101.271 89.1136 100.902 89.1136ZM108.299 84.767L107.546 84.9801C107.498 84.8546 107.429 84.7327 107.336 84.6143C107.246 84.4936 107.123 84.3942 106.967 84.3161C106.811 84.2379 106.611 84.1989 106.367 84.1989C106.033 84.1989 105.755 84.2758 105.532 84.4297C105.312 84.5812 105.202 84.7741 105.202 85.0085C105.202 85.2169 105.278 85.3814 105.429 85.5021C105.581 85.6229 105.818 85.7235 106.14 85.804L106.949 86.0028C107.437 86.1212 107.8 86.3023 108.039 86.5462C108.279 86.7876 108.398 87.099 108.398 87.4801C108.398 87.7926 108.308 88.072 108.128 88.3182C107.951 88.5644 107.702 88.7585 107.382 88.9006C107.063 89.0426 106.691 89.1136 106.267 89.1136C105.711 89.1136 105.251 88.9929 104.886 88.7514C104.521 88.5099 104.291 88.1572 104.194 87.6932L104.989 87.4943C105.065 87.7879 105.208 88.008 105.419 88.1548C105.632 88.3016 105.91 88.375 106.253 88.375C106.644 88.375 106.954 88.2921 107.184 88.1264C107.416 87.9583 107.532 87.7571 107.532 87.5227C107.532 87.3333 107.465 87.1747 107.333 87.0469C107.2 86.9167 106.997 86.8196 106.722 86.7557L105.813 86.5426C105.313 86.4242 104.946 86.2408 104.712 85.9922C104.48 85.7412 104.364 85.4276 104.364 85.0511C104.364 84.7434 104.45 84.4711 104.623 84.2344C104.798 83.9976 105.036 83.8118 105.337 83.6768C105.64 83.5419 105.983 83.4744 106.367 83.4744C106.907 83.4744 107.33 83.5928 107.638 83.8295C107.948 84.0663 108.168 84.3788 108.299 84.767ZM112.032 83.5455V84.2557H109.205V83.5455H112.032ZM110.029 82.2386H110.867V87.4375C110.867 87.6742 110.901 87.8518 110.97 87.9702C111.041 88.0862 111.131 88.1643 111.24 88.2045C111.351 88.2424 111.468 88.2614 111.591 88.2614C111.684 88.2614 111.76 88.2566 111.819 88.2472C111.878 88.2353 111.925 88.2259 111.961 88.2188L112.131 88.9716C112.074 88.9929 111.995 89.0142 111.893 89.0355C111.791 89.0592 111.662 89.071 111.506 89.071C111.269 89.071 111.037 89.0201 110.81 88.9183C110.585 88.8165 110.398 88.6615 110.249 88.4531C110.102 88.2448 110.029 87.982 110.029 87.6648V82.2386ZM115.521 89.1136C114.995 89.1136 114.542 88.9976 114.161 88.7656C113.782 88.5312 113.49 88.2045 113.284 87.7855C113.08 87.3641 112.978 86.8741 112.978 86.3153C112.978 85.7566 113.08 85.2642 113.284 84.8381C113.49 84.4096 113.776 84.0758 114.143 83.8366C114.512 83.5952 114.943 83.4744 115.436 83.4744C115.72 83.4744 116 83.5218 116.277 83.6165C116.554 83.7112 116.806 83.8651 117.034 84.0781C117.261 84.2888 117.442 84.5682 117.577 84.9162C117.712 85.2642 117.779 85.6927 117.779 86.2017V86.5568H113.575V85.8324H116.927C116.927 85.5246 116.865 85.25 116.742 85.0085C116.622 84.767 116.449 84.5765 116.224 84.4368C116.001 84.2971 115.739 84.2273 115.436 84.2273C115.102 84.2273 114.813 84.3101 114.569 84.4759C114.328 84.6392 114.142 84.8523 114.012 85.1151C113.881 85.3778 113.816 85.6596 113.816 85.9602V86.4432C113.816 86.8551 113.887 87.2043 114.029 87.4908C114.174 87.7749 114.374 87.9915 114.629 88.1406C114.885 88.2874 115.182 88.3608 115.521 88.3608C115.741 88.3608 115.94 88.33 116.117 88.2685C116.297 88.2045 116.452 88.1098 116.583 87.9844C116.713 87.8565 116.813 87.6979 116.884 87.5085L117.694 87.7358C117.609 88.0104 117.466 88.2519 117.264 88.4602C117.063 88.6662 116.815 88.8272 116.519 88.9432C116.223 89.0568 115.89 89.1136 115.521 89.1136ZM121.114 89.1136C120.659 89.1136 120.258 88.9988 119.91 88.7692C119.562 88.5372 119.29 88.2105 119.093 87.7891C118.897 87.3653 118.798 86.8646 118.798 86.2869C118.798 85.714 118.897 85.2169 119.093 84.7955C119.29 84.3741 119.563 84.0485 119.914 83.8189C120.264 83.5893 120.669 83.4744 121.128 83.4744C121.483 83.4744 121.764 83.5336 121.97 83.652C122.178 83.768 122.337 83.9006 122.445 84.0497C122.557 84.1965 122.643 84.3172 122.705 84.4119H122.776V81.7273H123.614V89H122.804V88.1619H122.705C122.643 88.2614 122.556 88.3868 122.442 88.5384C122.328 88.6875 122.166 88.8213 121.955 88.9396C121.745 89.0556 121.464 89.1136 121.114 89.1136ZM121.227 88.3608C121.564 88.3608 121.848 88.2732 122.08 88.098C122.312 87.9205 122.488 87.6754 122.609 87.3629C122.73 87.0481 122.79 86.6847 122.79 86.2727C122.79 85.8655 122.731 85.5092 122.612 85.2038C122.494 84.8961 122.319 84.657 122.087 84.4865C121.855 84.3137 121.568 84.2273 121.227 84.2273C120.872 84.2273 120.576 84.3184 120.34 84.5007C120.105 84.6806 119.929 84.9257 119.811 85.2358C119.695 85.5436 119.637 85.8892 119.637 86.2727C119.637 86.661 119.696 87.0137 119.814 87.331C119.935 87.6458 120.112 87.8968 120.347 88.0838C120.584 88.2685 120.877 88.3608 121.227 88.3608ZM132.438 83.446L132.197 84.2699H127.595L127.836 83.446H132.438ZM130.279 89L127.68 85.8182L127.666 85.2216H128.958C129.294 85.2216 129.581 85.1742 129.818 85.0795C130.054 84.9825 130.235 84.8381 130.361 84.6463C130.486 84.4522 130.549 84.2083 130.549 83.9148C130.549 83.4815 130.419 83.1418 130.159 82.8956C129.898 82.647 129.498 82.5227 128.958 82.5227H127.595L127.836 81.7273H128.958C129.536 81.7273 130.009 81.8232 130.379 82.0149C130.75 82.2043 131.025 82.4647 131.203 82.7962C131.383 83.1252 131.472 83.4981 131.472 83.9148C131.472 84.2912 131.39 84.638 131.224 84.9553C131.061 85.2701 130.798 85.5234 130.436 85.7152C130.076 85.907 129.6 86.0028 129.008 86.0028H128.987L131.387 88.9432V89H130.279ZM132.438 81.7273L132.197 82.5511L128.575 82.5227L128.816 81.7273H132.438ZM133.293 87.5085V86.7841L136.489 81.7273H137.015V82.8494H136.66L134.245 86.6705V86.7273H138.549V87.5085H133.293ZM136.717 89V87.2884V86.951V81.7273H137.555V89H136.717ZM142.195 81.6278C142.493 81.6302 142.792 81.687 143.09 81.7983C143.388 81.9096 143.661 82.0942 143.907 82.3523C144.153 82.608 144.351 82.9571 144.5 83.3999C144.649 83.8426 144.724 84.3977 144.724 85.0653C144.724 85.7116 144.662 86.2857 144.539 86.7876C144.418 87.2872 144.243 87.7086 144.013 88.0518C143.786 88.3951 143.509 88.6555 143.182 88.8331C142.858 89.0107 142.491 89.0994 142.081 89.0994C141.674 89.0994 141.311 89.0189 140.991 88.858C140.674 88.6946 140.414 88.4685 140.21 88.1797C140.009 87.8885 139.88 87.5511 139.823 87.1676H140.689C140.768 87.5014 140.923 87.7772 141.155 87.995C141.389 88.2105 141.698 88.3182 142.081 88.3182C142.643 88.3182 143.085 88.0732 143.41 87.5831C143.736 87.093 143.9 86.4006 143.9 85.5057H143.843C143.71 85.7045 143.553 85.8762 143.371 86.0206C143.188 86.165 142.986 86.2763 142.763 86.3544C142.541 86.4325 142.304 86.4716 142.053 86.4716C141.636 86.4716 141.254 86.3686 140.906 86.1626C140.56 85.9543 140.283 85.669 140.075 85.3068C139.869 84.9422 139.766 84.5256 139.766 84.0568C139.766 83.6117 139.866 83.2045 140.064 82.8352C140.266 82.4635 140.547 82.1676 140.91 81.9474C141.274 81.7273 141.703 81.6207 142.195 81.6278ZM142.195 82.4091C141.897 82.4091 141.628 82.4837 141.389 82.6328C141.152 82.7796 140.964 82.9785 140.824 83.2294C140.687 83.478 140.618 83.7538 140.618 84.0568C140.618 84.3598 140.685 84.6357 140.817 84.8842C140.952 85.1304 141.136 85.3269 141.368 85.4737C141.602 85.6181 141.868 85.6903 142.167 85.6903C142.392 85.6903 142.601 85.6465 142.795 85.5589C142.989 85.469 143.159 85.3471 143.303 85.1932C143.45 85.0369 143.565 84.8606 143.648 84.6641C143.73 84.4652 143.772 84.258 143.772 84.0426C143.772 83.7585 143.703 83.4922 143.566 83.2436C143.431 82.995 143.244 82.7938 143.005 82.6399C142.768 82.486 142.498 82.4091 142.195 82.4091ZM148.435 81.6278C148.734 81.6302 149.032 81.687 149.33 81.7983C149.629 81.9096 149.901 82.0942 150.147 82.3523C150.393 82.608 150.591 82.9571 150.74 83.3999C150.889 83.8426 150.964 84.3977 150.964 85.0653C150.964 85.7116 150.902 86.2857 150.779 86.7876C150.658 87.2872 150.483 87.7086 150.254 88.0518C150.026 88.3951 149.749 88.6555 149.423 88.8331C149.098 89.0107 148.731 89.0994 148.322 89.0994C147.915 89.0994 147.551 89.0189 147.232 88.858C146.914 88.6946 146.654 88.4685 146.45 88.1797C146.249 87.8885 146.12 87.5511 146.063 87.1676H146.93C147.008 87.5014 147.163 87.7772 147.395 87.995C147.629 88.2105 147.938 88.3182 148.322 88.3182C148.883 88.3182 149.326 88.0732 149.65 87.5831C149.977 87.093 150.14 86.4006 150.14 85.5057H150.083C149.951 85.7045 149.793 85.8762 149.611 86.0206C149.429 86.165 149.226 86.2763 149.004 86.3544C148.781 86.4325 148.544 86.4716 148.293 86.4716C147.877 86.4716 147.494 86.3686 147.146 86.1626C146.801 85.9543 146.524 85.669 146.315 85.3068C146.109 84.9422 146.006 84.5256 146.006 84.0568C146.006 83.6117 146.106 83.2045 146.305 82.8352C146.506 82.4635 146.788 82.1676 147.15 81.9474C147.514 81.7273 147.943 81.6207 148.435 81.6278ZM148.435 82.4091C148.137 82.4091 147.868 82.4837 147.629 82.6328C147.393 82.7796 147.204 82.9785 147.065 83.2294C146.927 83.478 146.859 83.7538 146.859 84.0568C146.859 84.3598 146.925 84.6357 147.058 84.8842C147.192 85.1304 147.376 85.3269 147.608 85.4737C147.842 85.6181 148.109 85.6903 148.407 85.6903C148.632 85.6903 148.841 85.6465 149.036 85.5589C149.23 85.469 149.399 85.3471 149.543 85.1932C149.69 85.0369 149.805 84.8606 149.888 84.6641C149.971 84.4652 150.012 84.258 150.012 84.0426C150.012 83.7585 149.943 83.4922 149.806 83.2436C149.671 82.995 149.484 82.7938 149.245 82.6399C149.008 82.486 148.738 82.4091 148.435 82.4091ZM153.371 88.0057L153.314 88.3892C153.273 88.6591 153.212 88.9479 153.129 89.2557C153.049 89.5634 152.965 89.8535 152.877 90.1257C152.789 90.398 152.717 90.6146 152.66 90.7756H152.021C152.052 90.6241 152.092 90.424 152.142 90.1754C152.192 89.9268 152.241 89.6487 152.291 89.3409C152.343 89.0355 152.386 88.723 152.419 88.4034L152.461 88.0057H153.371ZM161.173 86.7699V83.5455H162.011V89H161.173V88.0767H161.116C160.989 88.3537 160.79 88.5893 160.52 88.7834C160.25 88.9751 159.909 89.071 159.497 89.071C159.156 89.071 158.853 88.9964 158.588 88.8473C158.323 88.6958 158.115 88.4685 157.963 88.1655C157.812 87.8601 157.736 87.4754 157.736 87.0114V83.5455H158.574V86.9545C158.574 87.3523 158.685 87.6695 158.908 87.9062C159.133 88.143 159.419 88.2614 159.767 88.2614C159.975 88.2614 160.187 88.2081 160.403 88.1016C160.621 87.995 160.803 87.8317 160.95 87.6115C161.099 87.3913 161.173 87.1108 161.173 86.7699ZM167.41 84.767L166.657 84.9801C166.61 84.8546 166.54 84.7327 166.448 84.6143C166.358 84.4936 166.235 84.3942 166.078 84.3161C165.922 84.2379 165.722 84.1989 165.478 84.1989C165.144 84.1989 164.866 84.2758 164.644 84.4297C164.423 84.5812 164.313 84.7741 164.313 85.0085C164.313 85.2169 164.389 85.3814 164.541 85.5021C164.692 85.6229 164.929 85.7235 165.251 85.804L166.061 86.0028C166.548 86.1212 166.912 86.3023 167.151 86.5462C167.39 86.7876 167.509 87.099 167.509 87.4801C167.509 87.7926 167.419 88.072 167.24 88.3182C167.062 88.5644 166.813 88.7585 166.494 88.9006C166.174 89.0426 165.802 89.1136 165.379 89.1136C164.822 89.1136 164.362 88.9929 163.997 88.7514C163.633 88.5099 163.402 88.1572 163.305 87.6932L164.1 87.4943C164.176 87.7879 164.319 88.008 164.53 88.1548C164.743 88.3016 165.021 88.375 165.365 88.375C165.755 88.375 166.065 88.2921 166.295 88.1264C166.527 87.9583 166.643 87.7571 166.643 87.5227C166.643 87.3333 166.577 87.1747 166.444 87.0469C166.311 86.9167 166.108 86.8196 165.833 86.7557L164.924 86.5426C164.425 86.4242 164.058 86.2408 163.823 85.9922C163.591 85.7412 163.475 85.4276 163.475 85.0511C163.475 84.7434 163.562 84.4711 163.735 84.2344C163.91 83.9976 164.148 83.8118 164.448 83.6768C164.751 83.5419 165.095 83.4744 165.478 83.4744C166.018 83.4744 166.442 83.5928 166.749 83.8295C167.06 84.0663 167.28 84.3788 167.41 84.767ZM171.058 89.1136C170.532 89.1136 170.079 88.9976 169.698 88.7656C169.319 88.5312 169.027 88.2045 168.821 87.7855C168.617 87.3641 168.515 86.8741 168.515 86.3153C168.515 85.7566 168.617 85.2642 168.821 84.8381C169.027 84.4096 169.313 84.0758 169.68 83.8366C170.049 83.5952 170.48 83.4744 170.973 83.4744C171.257 83.4744 171.537 83.5218 171.814 83.6165C172.091 83.7112 172.343 83.8651 172.571 84.0781C172.798 84.2888 172.979 84.5682 173.114 84.9162C173.249 85.2642 173.316 85.6927 173.316 86.2017V86.5568H169.112V85.8324H172.464C172.464 85.5246 172.403 85.25 172.279 85.0085C172.159 84.767 171.986 84.5765 171.761 84.4368C171.538 84.2971 171.276 84.2273 170.973 84.2273C170.639 84.2273 170.35 84.3101 170.106 84.4759C169.865 84.6392 169.679 84.8523 169.549 85.1151C169.418 85.3778 169.353 85.6596 169.353 85.9602V86.4432C169.353 86.8551 169.424 87.2043 169.566 87.4908C169.711 87.7749 169.911 87.9915 170.167 88.1406C170.422 88.2874 170.719 88.3608 171.058 88.3608C171.278 88.3608 171.477 88.33 171.654 88.2685C171.834 88.2045 171.989 88.1098 172.12 87.9844C172.25 87.8565 172.35 87.6979 172.422 87.5085L173.231 87.7358C173.146 88.0104 173.003 88.2519 172.801 88.4602C172.6 88.6662 172.352 88.8272 172.056 88.9432C171.76 89.0568 171.427 89.1136 171.058 89.1136ZM179.776 83.5455V84.2557H176.949V83.5455H179.776ZM177.773 82.2386H178.611V87.4375C178.611 87.6742 178.645 87.8518 178.714 87.9702C178.785 88.0862 178.875 88.1643 178.984 88.2045C179.095 88.2424 179.212 88.2614 179.336 88.2614C179.428 88.2614 179.504 88.2566 179.563 88.2472C179.622 88.2353 179.669 88.2259 179.705 88.2188L179.875 88.9716C179.819 88.9929 179.739 89.0142 179.637 89.0355C179.536 89.0592 179.407 89.071 179.25 89.071C179.014 89.071 178.782 89.0201 178.554 88.9183C178.329 88.8165 178.142 88.6615 177.993 88.4531C177.846 88.2448 177.773 87.982 177.773 87.6648V82.2386ZM181.992 85.7188V89H181.154V81.7273H181.992V84.3977H182.063C182.191 84.116 182.382 83.8923 182.638 83.7266C182.896 83.5585 183.239 83.4744 183.668 83.4744C184.04 83.4744 184.365 83.549 184.645 83.6982C184.924 83.8449 185.141 84.071 185.294 84.3764C185.451 84.6795 185.529 85.0653 185.529 85.5341V89H184.691V85.5909C184.691 85.1577 184.578 84.8227 184.353 84.5859C184.131 84.3468 183.822 84.2273 183.426 84.2273C183.152 84.2273 182.906 84.2853 182.688 84.4013C182.472 84.5173 182.302 84.6866 182.176 84.9091C182.053 85.1316 181.992 85.4015 181.992 85.7188ZM189.349 89.1136C188.823 89.1136 188.37 88.9976 187.989 88.7656C187.61 88.5312 187.318 88.2045 187.112 87.7855C186.908 87.3641 186.806 86.8741 186.806 86.3153C186.806 85.7566 186.908 85.2642 187.112 84.8381C187.318 84.4096 187.604 84.0758 187.971 83.8366C188.34 83.5952 188.771 83.4744 189.264 83.4744C189.548 83.4744 189.828 83.5218 190.105 83.6165C190.382 83.7112 190.634 83.8651 190.862 84.0781C191.089 84.2888 191.27 84.5682 191.405 84.9162C191.54 85.2642 191.607 85.6927 191.607 86.2017V86.5568H187.403V85.8324H190.755C190.755 85.5246 190.694 85.25 190.57 85.0085C190.45 84.767 190.277 84.5765 190.052 84.4368C189.829 84.2971 189.567 84.2273 189.264 84.2273C188.93 84.2273 188.641 84.3101 188.397 84.4759C188.156 84.6392 187.97 84.8523 187.84 85.1151C187.709 85.3778 187.644 85.6596 187.644 85.9602V86.4432C187.644 86.8551 187.715 87.2043 187.857 87.4908C188.002 87.7749 188.202 87.9915 188.458 88.1406C188.713 88.2874 189.01 88.3608 189.349 88.3608C189.569 88.3608 189.768 88.33 189.945 88.2685C190.125 88.2045 190.28 88.1098 190.411 87.9844C190.541 87.8565 190.642 87.6979 190.713 87.5085L191.522 87.7358C191.437 88.0104 191.294 88.2519 191.093 88.4602C190.891 88.6662 190.643 88.8272 190.347 88.9432C190.051 89.0568 189.718 89.1136 189.349 89.1136ZM196.533 81.7273V89H195.695V81.7273H196.533ZM198.068 89V83.5455H198.906V89H198.068ZM198.494 82.6364C198.331 82.6364 198.19 82.5807 198.071 82.4695C197.955 82.3582 197.897 82.2244 197.897 82.0682C197.897 81.9119 197.955 81.7782 198.071 81.6669C198.19 81.5556 198.331 81.5 198.494 81.5C198.657 81.5 198.797 81.5556 198.913 81.6669C199.031 81.7782 199.091 81.9119 199.091 82.0682C199.091 82.2244 199.031 82.3582 198.913 82.4695C198.797 82.5807 198.657 82.6364 198.494 82.6364ZM201.279 85.7188V89H200.441V83.5455H201.251V84.3977H201.322C201.449 84.1207 201.644 83.8982 201.904 83.7301C202.164 83.5597 202.501 83.4744 202.912 83.4744C203.282 83.4744 203.605 83.5502 203.882 83.7017C204.159 83.8509 204.374 84.0781 204.528 84.3835C204.682 84.6866 204.759 85.0701 204.759 85.5341V89H203.921V85.5909C203.921 85.1624 203.81 84.8286 203.587 84.5895C203.365 84.348 203.059 84.2273 202.671 84.2273C202.403 84.2273 202.164 84.2853 201.954 84.4013C201.745 84.5173 201.581 84.6866 201.46 84.9091C201.339 85.1316 201.279 85.4015 201.279 85.7188ZM207.072 87.0114L207.058 85.9744H207.228L209.614 83.5455H210.651L208.109 86.1165H208.038L207.072 87.0114ZM206.29 89V81.7273H207.129V89H206.29ZM209.756 89L207.626 86.3011L208.222 85.7188L210.822 89H209.756ZM34.8807 105V97.7273H35.7188V100.412H35.7898C35.8513 100.317 35.9366 100.196 36.0455 100.05C36.1567 99.9006 36.3153 99.768 36.5213 99.652C36.7296 99.5336 37.0114 99.4744 37.3665 99.4744C37.8258 99.4744 38.2306 99.5893 38.581 99.8189C38.9313 100.049 39.2048 100.374 39.4013 100.795C39.5978 101.217 39.696 101.714 39.696 102.287C39.696 102.865 39.5978 103.365 39.4013 103.789C39.2048 104.21 38.9325 104.537 38.5845 104.769C38.2365 104.999 37.8352 105.114 37.3807 105.114C37.0303 105.114 36.7498 105.056 36.5391 104.94C36.3284 104.821 36.1662 104.687 36.0526 104.538C35.9389 104.387 35.8513 104.261 35.7898 104.162H35.6903V105H34.8807ZM35.7045 102.273C35.7045 102.685 35.7649 103.048 35.8857 103.363C36.0064 103.675 36.1828 103.92 36.4148 104.098C36.6468 104.273 36.9309 104.361 37.267 104.361C37.6174 104.361 37.9098 104.268 38.1442 104.084C38.3809 103.897 38.5585 103.646 38.6768 103.331C38.7976 103.014 38.858 102.661 38.858 102.273C38.858 101.889 38.7988 101.544 38.6804 101.236C38.5644 100.926 38.388 100.681 38.1513 100.501C37.9169 100.318 37.6222 100.227 37.267 100.227C36.9261 100.227 36.6397 100.314 36.4077 100.487C36.1757 100.657 36.0005 100.896 35.8821 101.204C35.7637 101.509 35.7045 101.866 35.7045 102.273ZM43.2649 105.114C42.7393 105.114 42.286 104.998 41.9048 104.766C41.526 104.531 41.2337 104.205 41.0277 103.786C40.8241 103.364 40.7223 102.874 40.7223 102.315C40.7223 101.757 40.8241 101.264 41.0277 100.838C41.2337 100.41 41.5201 100.076 41.8871 99.8366C42.2564 99.5952 42.6873 99.4744 43.1797 99.4744C43.4638 99.4744 43.7443 99.5218 44.0213 99.6165C44.2983 99.7112 44.5504 99.8651 44.7777 100.078C45.005 100.289 45.1861 100.568 45.321 100.916C45.456 101.264 45.5234 101.693 45.5234 102.202V102.557H41.3189V101.832H44.6712C44.6712 101.525 44.6096 101.25 44.4865 101.009C44.3658 100.767 44.1929 100.576 43.968 100.437C43.7455 100.297 43.4827 100.227 43.1797 100.227C42.8459 100.227 42.5571 100.31 42.3132 100.476C42.0717 100.639 41.8859 100.852 41.7557 101.115C41.6255 101.378 41.5604 101.66 41.5604 101.96V102.443C41.5604 102.855 41.6314 103.204 41.7734 103.491C41.9179 103.775 42.1179 103.991 42.3736 104.141C42.6293 104.287 42.9264 104.361 43.2649 104.361C43.4851 104.361 43.6839 104.33 43.8615 104.268C44.0414 104.205 44.1965 104.11 44.3267 103.984C44.4569 103.857 44.5575 103.698 44.6286 103.509L45.4382 103.736C45.353 104.01 45.2098 104.252 45.0085 104.46C44.8073 104.666 44.5587 104.827 44.2628 104.943C43.9669 105.057 43.6342 105.114 43.2649 105.114ZM47.6364 97.7273V105H46.7983V97.7273H47.6364ZM51.3873 105.114C50.8948 105.114 50.4628 104.996 50.0911 104.762C49.7218 104.528 49.4329 104.2 49.2246 103.778C49.0186 103.357 48.9157 102.865 48.9157 102.301C48.9157 101.733 49.0186 101.237 49.2246 100.813C49.4329 100.389 49.7218 100.06 50.0911 99.826C50.4628 99.5916 50.8948 99.4744 51.3873 99.4744C51.8797 99.4744 52.3105 99.5916 52.6799 99.826C53.0516 100.06 53.3404 100.389 53.5463 100.813C53.7547 101.237 53.8588 101.733 53.8588 102.301C53.8588 102.865 53.7547 103.357 53.5463 103.778C53.3404 104.2 53.0516 104.528 52.6799 104.762C52.3105 104.996 51.8797 105.114 51.3873 105.114ZM51.3873 104.361C51.7613 104.361 52.0691 104.265 52.3105 104.073C52.552 103.881 52.7308 103.629 52.8468 103.317C52.9628 103.004 53.0208 102.666 53.0208 102.301C53.0208 101.937 52.9628 101.597 52.8468 101.282C52.7308 100.967 52.552 100.713 52.3105 100.518C52.0691 100.324 51.7613 100.227 51.3873 100.227C51.0132 100.227 50.7054 100.324 50.464 100.518C50.2225 100.713 50.0437 100.967 49.9277 101.282C49.8117 101.597 49.7537 101.937 49.7537 102.301C49.7537 102.666 49.8117 103.004 49.9277 103.317C50.0437 103.629 50.2225 103.881 50.464 104.073C50.7054 104.265 51.0132 104.361 51.3873 104.361ZM56.1884 105L54.5265 99.5455H55.4071L56.5861 103.722H56.6429L57.8077 99.5455H58.7026L59.8532 103.707H59.91L61.089 99.5455H61.9696L60.3077 105H59.4838L58.2907 100.81H58.2054L57.0123 105H56.1884ZM68.2623 99.5455V100.256H65.4355V99.5455H68.2623ZM66.2594 98.2386H67.0975V103.438C67.0975 103.674 67.1318 103.852 67.2005 103.97C67.2715 104.086 67.3614 104.164 67.4703 104.205C67.5816 104.242 67.6988 104.261 67.8219 104.261C67.9142 104.261 67.99 104.257 68.0492 104.247C68.1084 104.235 68.1557 104.226 68.1912 104.219L68.3617 104.972C68.3049 104.993 68.2256 105.014 68.1238 105.036C68.022 105.059 67.8929 105.071 67.7367 105.071C67.4999 105.071 67.2679 105.02 67.0407 104.918C66.8158 104.817 66.6287 104.661 66.4796 104.453C66.3328 104.245 66.2594 103.982 66.2594 103.665V98.2386ZM71.6802 105.114C71.1878 105.114 70.7557 104.996 70.3841 104.762C70.0147 104.528 69.7259 104.2 69.5176 103.778C69.3116 103.357 69.2086 102.865 69.2086 102.301C69.2086 101.733 69.3116 101.237 69.5176 100.813C69.7259 100.389 70.0147 100.06 70.3841 99.826C70.7557 99.5916 71.1878 99.4744 71.6802 99.4744C72.1726 99.4744 72.6035 99.5916 72.9728 99.826C73.3445 100.06 73.6333 100.389 73.8393 100.813C74.0476 101.237 74.1518 101.733 74.1518 102.301C74.1518 102.865 74.0476 103.357 73.8393 103.778C73.6333 104.2 73.3445 104.528 72.9728 104.762C72.6035 104.996 72.1726 105.114 71.6802 105.114ZM71.6802 104.361C72.0543 104.361 72.362 104.265 72.6035 104.073C72.845 103.881 73.0237 103.629 73.1397 103.317C73.2557 103.004 73.3137 102.666 73.3137 102.301C73.3137 101.937 73.2557 101.597 73.1397 101.282C73.0237 100.967 72.845 100.713 72.6035 100.518C72.362 100.324 72.0543 100.227 71.6802 100.227C71.3062 100.227 70.9984 100.324 70.7569 100.518C70.5154 100.713 70.3367 100.967 70.2207 101.282C70.1047 101.597 70.0467 101.937 70.0467 102.301C70.0467 102.666 70.1047 103.004 70.2207 103.317C70.3367 103.629 70.5154 103.881 70.7569 104.073C70.9984 104.265 71.3062 104.361 71.6802 104.361ZM78.2436 107.045V99.5455H79.0533V100.412H79.1527C79.2143 100.317 79.2995 100.196 79.4084 100.05C79.5196 99.9006 79.6783 99.768 79.8842 99.652C80.0926 99.5336 80.3743 99.4744 80.7294 99.4744C81.1887 99.4744 81.5935 99.5893 81.9439 99.8189C82.2943 100.049 82.5677 100.374 82.7642 100.795C82.9607 101.217 83.0589 101.714 83.0589 102.287C83.0589 102.865 82.9607 103.365 82.7642 103.789C82.5677 104.21 82.2955 104.537 81.9474 104.769C81.5994 104.999 81.1982 105.114 80.7436 105.114C80.3932 105.114 80.1127 105.056 79.902 104.94C79.6913 104.821 79.5291 104.687 79.4155 104.538C79.3018 104.387 79.2143 104.261 79.1527 104.162H79.0817V107.045H78.2436ZM79.0675 102.273C79.0675 102.685 79.1278 103.048 79.2486 103.363C79.3693 103.675 79.5457 103.92 79.7777 104.098C80.0097 104.273 80.2938 104.361 80.63 104.361C80.9804 104.361 81.2727 104.268 81.5071 104.084C81.7438 103.897 81.9214 103.646 82.0398 103.331C82.1605 103.014 82.2209 102.661 82.2209 102.273C82.2209 101.889 82.1617 101.544 82.0433 101.236C81.9273 100.926 81.7509 100.681 81.5142 100.501C81.2798 100.318 80.9851 100.227 80.63 100.227C80.2891 100.227 80.0026 100.314 79.7706 100.487C79.5386 100.657 79.3634 100.896 79.245 101.204C79.1267 101.509 79.0675 101.866 79.0675 102.273ZM85.9425 105.128C85.5968 105.128 85.2831 105.063 85.0014 104.933C84.7197 104.8 84.496 104.609 84.3303 104.361C84.1645 104.11 84.0817 103.807 84.0817 103.452C84.0817 103.139 84.1432 102.886 84.2663 102.692C84.3894 102.495 84.554 102.341 84.7599 102.23C84.9659 102.119 85.1932 102.036 85.4418 101.982C85.6927 101.925 85.9448 101.88 86.1982 101.847C86.5296 101.804 86.7983 101.772 87.0043 101.751C87.2126 101.727 87.3641 101.688 87.4588 101.634C87.5559 101.579 87.6044 101.484 87.6044 101.349V101.321C87.6044 100.971 87.5085 100.698 87.3168 100.504C87.1274 100.31 86.8397 100.213 86.4538 100.213C86.0537 100.213 85.7401 100.301 85.5128 100.476C85.2855 100.651 85.1257 100.838 85.0334 101.037L84.2379 100.753C84.38 100.421 84.5694 100.163 84.8061 99.9787C85.0452 99.7917 85.3056 99.6615 85.5874 99.5881C85.8714 99.5123 86.1508 99.4744 86.4254 99.4744C86.6006 99.4744 86.8018 99.4957 87.0291 99.5384C87.2588 99.5786 87.4801 99.6626 87.6932 99.7905C87.9086 99.9183 88.0874 100.111 88.2294 100.369C88.3714 100.627 88.4425 100.973 88.4425 101.406V105H87.6044V104.261H87.5618C87.505 104.38 87.4103 104.506 87.2777 104.641C87.1451 104.776 86.9688 104.891 86.7486 104.986C86.5284 105.08 86.2597 105.128 85.9425 105.128ZM86.0703 104.375C86.4018 104.375 86.6811 104.31 86.9084 104.18C87.138 104.049 87.3108 103.881 87.4268 103.675C87.5452 103.469 87.6044 103.253 87.6044 103.026V102.259C87.5689 102.301 87.4908 102.34 87.37 102.376C87.2517 102.409 87.1143 102.438 86.9581 102.464C86.8042 102.488 86.6539 102.509 86.5071 102.528C86.3627 102.545 86.2455 102.559 86.1555 102.571C85.9377 102.599 85.7341 102.646 85.5447 102.71C85.3577 102.771 85.2062 102.865 85.0902 102.99C84.9766 103.113 84.9197 103.281 84.9197 103.494C84.9197 103.786 85.0275 104.006 85.2429 104.155C85.4607 104.302 85.7365 104.375 86.0703 104.375ZM90.3166 107.045C90.1745 107.045 90.0479 107.034 89.9366 107.01C89.8253 106.989 89.7484 106.967 89.7058 106.946L89.9189 106.207C90.1225 106.259 90.3024 106.278 90.4586 106.264C90.6149 106.25 90.7534 106.18 90.8741 106.055C90.9972 105.932 91.1097 105.732 91.2115 105.455L91.3677 105.028L89.3507 99.5455H90.2598L91.7654 103.892H91.8223L93.3279 99.5455H94.237L91.9217 105.795C91.8175 106.077 91.6885 106.31 91.5346 106.495C91.3807 106.682 91.202 106.821 90.9984 106.911C90.7972 107 90.5699 107.045 90.3166 107.045ZM98.9938 101.719V105H98.1557V99.5455H98.9654V100.398H99.0364C99.1642 100.121 99.3584 99.8982 99.6188 99.7301C99.8792 99.5597 100.215 99.4744 100.627 99.4744C100.997 99.4744 101.32 99.5502 101.597 99.7017C101.874 99.8509 102.089 100.078 102.243 100.384C102.397 100.687 102.474 101.07 102.474 101.534V105H101.636V101.591C101.636 101.162 101.525 100.829 101.302 100.589C101.079 100.348 100.774 100.227 100.386 100.227C100.118 100.227 99.8792 100.285 99.6685 100.401C99.4602 100.517 99.2956 100.687 99.1749 100.909C99.0542 101.132 98.9938 101.402 98.9938 101.719ZM106.221 105.114C105.729 105.114 105.297 104.996 104.925 104.762C104.556 104.528 104.267 104.2 104.059 103.778C103.853 103.357 103.75 102.865 103.75 102.301C103.75 101.733 103.853 101.237 104.059 100.813C104.267 100.389 104.556 100.06 104.925 99.826C105.297 99.5916 105.729 99.4744 106.221 99.4744C106.714 99.4744 107.145 99.5916 107.514 99.826C107.886 100.06 108.174 100.389 108.38 100.813C108.589 101.237 108.693 101.733 108.693 102.301C108.693 102.865 108.589 103.357 108.38 103.778C108.174 104.2 107.886 104.528 107.514 104.762C107.145 104.996 106.714 105.114 106.221 105.114ZM106.221 104.361C106.595 104.361 106.903 104.265 107.145 104.073C107.386 103.881 107.565 103.629 107.681 103.317C107.797 103.004 107.855 102.666 107.855 102.301C107.855 101.937 107.797 101.597 107.681 101.282C107.565 100.967 107.386 100.713 107.145 100.518C106.903 100.324 106.595 100.227 106.221 100.227C105.847 100.227 105.539 100.324 105.298 100.518C105.056 100.713 104.878 100.967 104.762 101.282C104.646 101.597 104.588 101.937 104.588 102.301C104.588 102.666 104.646 103.004 104.762 103.317C104.878 103.629 105.056 103.881 105.298 104.073C105.539 104.265 105.847 104.361 106.221 104.361ZM111.022 105L109.36 99.5455H110.241L111.42 103.722H111.477L112.642 99.5455H113.537L114.687 103.707H114.744L115.923 99.5455H116.804L115.142 105H114.318L113.125 100.81H113.039L111.846 105H111.022ZM117.78 105.057C117.605 105.057 117.455 104.994 117.329 104.869C117.204 104.743 117.141 104.593 117.141 104.418C117.141 104.242 117.204 104.092 117.329 103.967C117.455 103.841 117.605 103.778 117.78 103.778C117.955 103.778 118.106 103.841 118.231 103.967C118.357 104.092 118.419 104.242 118.419 104.418C118.419 104.534 118.39 104.64 118.331 104.737C118.274 104.834 118.197 104.912 118.1 104.972C118.005 105.028 117.899 105.057 117.78 105.057Z" fill="#C19DE8"/>
<path d="M35.6051 117.719V121H34.767V113.727H35.6051V116.398H35.6761C35.804 116.116 35.9957 115.892 36.2514 115.727C36.5095 115.558 36.8527 115.474 37.2812 115.474C37.6529 115.474 37.9785 115.549 38.2578 115.698C38.5372 115.845 38.7538 116.071 38.9077 116.376C39.0639 116.679 39.142 117.065 39.142 117.534V121H38.304V117.591C38.304 117.158 38.1915 116.823 37.9666 116.586C37.7441 116.347 37.4351 116.227 37.0398 116.227C36.7652 116.227 36.5189 116.285 36.3011 116.401C36.0857 116.517 35.9152 116.687 35.7898 116.909C35.6667 117.132 35.6051 117.402 35.6051 117.719ZM43.0474 115.545V116.256H40.2207V115.545H43.0474ZM41.0446 114.239H41.8826V119.438C41.8826 119.674 41.917 119.852 41.9856 119.97C42.0566 120.086 42.1466 120.164 42.2555 120.205C42.3668 120.242 42.484 120.261 42.6071 120.261C42.6994 120.261 42.7752 120.257 42.8343 120.247C42.8935 120.235 42.9409 120.226 42.9764 120.219L43.1468 120.972C43.09 120.993 43.0107 121.014 42.9089 121.036C42.8071 121.059 42.6781 121.071 42.5218 121.071C42.2851 121.071 42.0531 121.02 41.8258 120.918C41.6009 120.817 41.4139 120.661 41.2647 120.453C41.118 120.245 41.0446 119.982 41.0446 119.665V114.239ZM46.6802 115.545V116.256H43.8535V115.545H46.6802ZM44.6774 114.239H45.5154V119.438C45.5154 119.674 45.5498 119.852 45.6184 119.97C45.6895 120.086 45.7794 120.164 45.8883 120.205C45.9996 120.242 46.1168 120.261 46.2399 120.261C46.3322 120.261 46.408 120.257 46.4672 120.247C46.5263 120.235 46.5737 120.226 46.6092 120.219L46.7797 120.972C46.7228 120.993 46.6435 121.014 46.5417 121.036C46.4399 121.059 46.3109 121.071 46.1547 121.071C45.9179 121.071 45.6859 121.02 45.4586 120.918C45.2337 120.817 45.0467 120.661 44.8975 120.453C44.7508 120.245 44.6774 119.982 44.6774 119.665V114.239ZM47.9409 123.045V115.545H48.7505V116.412H48.85C48.9115 116.317 48.9967 116.196 49.1056 116.05C49.2169 115.901 49.3755 115.768 49.5815 115.652C49.7898 115.534 50.0716 115.474 50.4267 115.474C50.8859 115.474 51.2908 115.589 51.6412 115.819C51.9915 116.049 52.265 116.374 52.4615 116.795C52.658 117.217 52.7562 117.714 52.7562 118.287C52.7562 118.865 52.658 119.365 52.4615 119.789C52.265 120.21 51.9927 120.537 51.6447 120.769C51.2967 120.999 50.8954 121.114 50.4409 121.114C50.0905 121.114 49.81 121.056 49.5993 120.94C49.3886 120.821 49.2264 120.687 49.1127 120.538C48.9991 120.387 48.9115 120.261 48.85 120.162H48.7789V123.045H47.9409ZM48.7647 118.273C48.7647 118.685 48.8251 119.048 48.9458 119.363C49.0666 119.675 49.243 119.92 49.475 120.098C49.707 120.273 49.9911 120.361 50.3272 120.361C50.6776 120.361 50.97 120.268 51.2044 120.084C51.4411 119.897 51.6187 119.646 51.737 119.331C51.8578 119.014 51.9181 118.661 51.9181 118.273C51.9181 117.889 51.859 117.544 51.7406 117.236C51.6246 116.926 51.4482 116.681 51.2115 116.501C50.9771 116.318 50.6824 116.227 50.3272 116.227C49.9863 116.227 49.6999 116.314 49.4679 116.487C49.2359 116.657 49.0607 116.896 48.9423 117.204C48.8239 117.509 48.7647 117.866 48.7647 118.273ZM57.8983 116.767L57.1454 116.98C57.0981 116.855 57.0282 116.733 56.9359 116.614C56.8459 116.494 56.7228 116.394 56.5666 116.316C56.4103 116.238 56.2103 116.199 55.9664 116.199C55.6326 116.199 55.3545 116.276 55.1319 116.43C54.9118 116.581 54.8017 116.774 54.8017 117.009C54.8017 117.217 54.8774 117.381 55.0289 117.502C55.1805 117.623 55.4172 117.723 55.7392 117.804L56.5488 118.003C57.0365 118.121 57.3999 118.302 57.639 118.546C57.8781 118.788 57.9977 119.099 57.9977 119.48C57.9977 119.793 57.9077 120.072 57.7278 120.318C57.5502 120.564 57.3017 120.759 56.9821 120.901C56.6625 121.043 56.2908 121.114 55.867 121.114C55.3107 121.114 54.8502 120.993 54.4856 120.751C54.121 120.51 53.8902 120.157 53.7931 119.693L54.5886 119.494C54.6644 119.788 54.8076 120.008 55.0183 120.155C55.2314 120.302 55.5095 120.375 55.8528 120.375C56.2434 120.375 56.5536 120.292 56.7832 120.126C57.0152 119.958 57.1312 119.757 57.1312 119.523C57.1312 119.333 57.0649 119.175 56.9324 119.047C56.7998 118.917 56.5962 118.82 56.3216 118.756L55.4125 118.543C54.9129 118.424 54.546 118.241 54.3116 117.992C54.0796 117.741 53.9636 117.428 53.9636 117.051C53.9636 116.743 54.05 116.471 54.2228 116.234C54.398 115.998 54.6359 115.812 54.9366 115.677C55.2396 115.542 55.5829 115.474 55.9664 115.474C56.5062 115.474 56.93 115.593 57.2377 115.83C57.5479 116.066 57.7681 116.379 57.8983 116.767ZM59.87 121.057C59.6948 121.057 59.5445 120.994 59.419 120.869C59.2936 120.743 59.2308 120.593 59.2308 120.418C59.2308 120.242 59.2936 120.092 59.419 119.967C59.5445 119.841 59.6948 119.778 59.87 119.778C60.0452 119.778 60.1955 119.841 60.321 119.967C60.4465 120.092 60.5092 120.242 60.5092 120.418C60.5092 120.534 60.4796 120.64 60.4205 120.737C60.3636 120.834 60.2867 120.912 60.1896 120.972C60.0949 121.028 59.9884 121.057 59.87 121.057ZM59.87 117.009C59.6948 117.009 59.5445 116.946 59.419 116.82C59.2936 116.695 59.2308 116.545 59.2308 116.369C59.2308 116.194 59.2936 116.044 59.419 115.918C59.5445 115.793 59.6948 115.73 59.87 115.73C60.0452 115.73 60.1955 115.793 60.321 115.918C60.4465 116.044 60.5092 116.194 60.5092 116.369C60.5092 116.485 60.4796 116.592 60.4205 116.689C60.3636 116.786 60.2867 116.864 60.1896 116.923C60.0949 116.98 59.9884 117.009 59.87 117.009ZM64.5842 113.386L62.2404 122.094H61.4734L63.8171 113.386H64.5842ZM68.1486 113.386L65.8049 122.094H65.0378L67.3816 113.386H68.1486ZM71.358 121.114C70.8466 121.114 70.4063 120.993 70.0369 120.751C69.6676 120.51 69.3835 120.177 69.1847 119.754C68.9858 119.33 68.8864 118.846 68.8864 118.301C68.8864 117.747 68.9882 117.258 69.1918 116.835C69.3977 116.408 69.6842 116.076 70.0511 115.837C70.4205 115.595 70.8513 115.474 71.3438 115.474C71.7273 115.474 72.0729 115.545 72.3807 115.688C72.6884 115.83 72.9406 116.028 73.1371 116.284C73.3336 116.54 73.4555 116.838 73.5028 117.179H72.6648C72.6009 116.93 72.4588 116.71 72.2386 116.518C72.0208 116.324 71.7273 116.227 71.358 116.227C71.0313 116.227 70.7448 116.312 70.4986 116.483C70.2547 116.651 70.0642 116.889 69.9268 117.197C69.7919 117.502 69.7244 117.861 69.7244 118.273C69.7244 118.694 69.7907 119.061 69.9233 119.374C70.0582 119.686 70.2476 119.929 70.4915 120.102C70.7377 120.274 71.0265 120.361 71.358 120.361C71.5758 120.361 71.7734 120.323 71.951 120.247C72.1286 120.171 72.2789 120.062 72.402 119.92C72.5251 119.778 72.6127 119.608 72.6648 119.409H73.5028C73.4555 119.731 73.3383 120.021 73.1513 120.279C72.9666 120.535 72.7216 120.738 72.4162 120.89C72.1132 121.039 71.7604 121.114 71.358 121.114ZM77.157 115.545V116.256H74.2166V115.545H77.157ZM75.0973 121V114.793C75.0973 114.48 75.1707 114.22 75.3175 114.011C75.4643 113.803 75.6548 113.647 75.8892 113.543C76.1236 113.438 76.371 113.386 76.6314 113.386C76.8374 113.386 77.0054 113.403 77.1357 113.436C77.2659 113.469 77.3629 113.5 77.4268 113.528L77.1854 114.253C77.1428 114.239 77.0836 114.221 77.0078 114.2C76.9344 114.178 76.8374 114.168 76.7166 114.168C76.4396 114.168 76.2396 114.237 76.1165 114.377C75.9957 114.517 75.9354 114.722 75.9354 114.991V121H75.0973ZM78.3315 121V115.545H79.1412V116.369H79.198C79.2974 116.099 79.4773 115.88 79.7377 115.712C79.9982 115.544 80.2917 115.46 80.6184 115.46C80.68 115.46 80.7569 115.461 80.8493 115.464C80.9416 115.466 81.0114 115.47 81.0588 115.474V116.327C81.0304 116.32 80.9653 116.309 80.8635 116.295C80.764 116.278 80.6587 116.27 80.5474 116.27C80.2823 116.27 80.0455 116.326 79.8372 116.437C79.6312 116.546 79.4679 116.697 79.3471 116.891C79.2288 117.083 79.1696 117.302 79.1696 117.548V121H78.3315ZM84.1731 121.114C83.6475 121.114 83.1942 120.998 82.813 120.766C82.4342 120.531 82.1419 120.205 81.9359 119.786C81.7323 119.364 81.6305 118.874 81.6305 118.315C81.6305 117.757 81.7323 117.264 81.9359 116.838C82.1419 116.41 82.4283 116.076 82.7953 115.837C83.1646 115.595 83.5955 115.474 84.0879 115.474C84.372 115.474 84.6525 115.522 84.9295 115.616C85.2065 115.711 85.4586 115.865 85.6859 116.078C85.9132 116.289 86.0943 116.568 86.2292 116.916C86.3642 117.264 86.4316 117.693 86.4316 118.202V118.557H82.2271V117.832H85.5794C85.5794 117.525 85.5178 117.25 85.3947 117.009C85.274 116.767 85.1011 116.576 84.8762 116.437C84.6537 116.297 84.3909 116.227 84.0879 116.227C83.7541 116.227 83.4653 116.31 83.2214 116.476C82.9799 116.639 82.7941 116.852 82.6639 117.115C82.5337 117.378 82.4686 117.66 82.4686 117.96V118.443C82.4686 118.855 82.5396 119.204 82.6816 119.491C82.8261 119.775 83.0261 119.991 83.2818 120.141C83.5375 120.287 83.8346 120.361 84.1731 120.361C84.3933 120.361 84.5922 120.33 84.7697 120.268C84.9496 120.205 85.1047 120.11 85.2349 119.984C85.3651 119.857 85.4657 119.698 85.5368 119.509L86.3464 119.736C86.2612 120.01 86.118 120.252 85.9167 120.46C85.7155 120.666 85.4669 120.827 85.171 120.943C84.8751 121.057 84.5424 121.114 84.1731 121.114ZM88.3173 121.057C88.1421 121.057 87.9918 120.994 87.8663 120.869C87.7408 120.743 87.6781 120.593 87.6781 120.418C87.6781 120.242 87.7408 120.092 87.8663 119.967C87.9918 119.841 88.1421 119.778 88.3173 119.778C88.4925 119.778 88.6428 119.841 88.7683 119.967C88.8938 120.092 88.9565 120.242 88.9565 120.418C88.9565 120.534 88.9269 120.64 88.8677 120.737C88.8109 120.834 88.734 120.912 88.6369 120.972C88.5422 121.028 88.4357 121.057 88.3173 121.057ZM90.4604 121V115.545H91.2985V121H90.4604ZM90.8865 114.636C90.7232 114.636 90.5823 114.581 90.464 114.469C90.348 114.358 90.29 114.224 90.29 114.068C90.29 113.912 90.348 113.778 90.464 113.667C90.5823 113.556 90.7232 113.5 90.8865 113.5C91.0499 113.5 91.1896 113.556 91.3056 113.667C91.4239 113.778 91.4831 113.912 91.4831 114.068C91.4831 114.224 91.4239 114.358 91.3056 114.469C91.1896 114.581 91.0499 114.636 90.8865 114.636ZM93.6715 117.719V121H92.8335V115.545H93.6431V116.398H93.7141C93.842 116.121 94.0361 115.898 94.2965 115.73C94.5569 115.56 94.8931 115.474 95.305 115.474C95.6744 115.474 95.9975 115.55 96.2745 115.702C96.5515 115.851 96.7669 116.078 96.9208 116.384C97.0747 116.687 97.1516 117.07 97.1516 117.534V121H96.3136V117.591C96.3136 117.162 96.2023 116.829 95.9798 116.589C95.7572 116.348 95.4518 116.227 95.0636 116.227C94.796 116.227 94.5569 116.285 94.3462 116.401C94.1379 116.517 93.9734 116.687 93.8526 116.909C93.7319 117.132 93.6715 117.402 93.6715 117.719ZM101.254 113.386L98.9103 122.094H98.1433L100.487 113.386H101.254ZM104.506 121.099C104.089 121.099 103.714 121.017 103.38 120.851C103.047 120.685 102.779 120.458 102.578 120.169C102.377 119.88 102.266 119.551 102.248 119.182H103.1C103.133 119.511 103.282 119.783 103.547 119.999C103.815 120.212 104.134 120.318 104.506 120.318C104.804 120.318 105.069 120.248 105.301 120.109C105.536 119.969 105.719 119.777 105.852 119.533C105.987 119.287 106.054 119.009 106.054 118.699C106.054 118.382 105.984 118.099 105.845 117.85C105.708 117.599 105.518 117.402 105.277 117.257C105.035 117.113 104.759 117.039 104.449 117.037C104.227 117.035 103.998 117.069 103.764 117.14C103.529 117.209 103.337 117.297 103.185 117.406L102.361 117.307L102.801 113.727H106.58V114.509H103.54L103.284 116.653H103.327C103.476 116.535 103.663 116.437 103.888 116.359C104.113 116.281 104.347 116.241 104.591 116.241C105.036 116.241 105.433 116.348 105.781 116.561C106.131 116.772 106.406 117.061 106.605 117.428C106.806 117.795 106.907 118.214 106.907 118.685C106.907 119.149 106.802 119.563 106.594 119.928C106.388 120.29 106.104 120.576 105.742 120.787C105.38 120.995 104.968 121.099 104.506 121.099ZM108.331 121V115.545H109.17V121H108.331ZM108.758 114.636C108.594 114.636 108.453 114.581 108.335 114.469C108.219 114.358 108.161 114.224 108.161 114.068C108.161 113.912 108.219 113.778 108.335 113.667C108.453 113.556 108.594 113.5 108.758 113.5C108.921 113.5 109.061 113.556 109.177 113.667C109.295 113.778 109.354 113.912 109.354 114.068C109.354 114.224 109.295 114.358 109.177 114.469C109.061 114.581 108.921 114.636 108.758 114.636ZM112.906 123.159C112.501 123.159 112.153 123.107 111.862 123.003C111.571 122.901 111.328 122.766 111.134 122.598C110.942 122.432 110.79 122.255 110.676 122.065L111.344 121.597C111.42 121.696 111.515 121.81 111.631 121.938C111.747 122.068 111.906 122.18 112.107 122.275C112.311 122.372 112.577 122.42 112.906 122.42C113.347 122.42 113.71 122.314 113.996 122.101C114.283 121.888 114.426 121.554 114.426 121.099V119.991H114.355C114.294 120.091 114.206 120.214 114.092 120.361C113.981 120.505 113.82 120.634 113.609 120.748C113.401 120.859 113.119 120.915 112.764 120.915C112.324 120.915 111.929 120.811 111.578 120.602C111.23 120.394 110.954 120.091 110.751 119.693C110.549 119.295 110.449 118.812 110.449 118.244C110.449 117.686 110.547 117.199 110.744 116.785C110.94 116.368 111.214 116.046 111.564 115.819C111.914 115.589 112.319 115.474 112.778 115.474C113.134 115.474 113.415 115.534 113.624 115.652C113.834 115.768 113.995 115.901 114.107 116.05C114.22 116.196 114.308 116.317 114.369 116.412H114.455V115.545H115.264V121.156C115.264 121.625 115.158 122.006 114.945 122.3C114.734 122.596 114.45 122.812 114.092 122.95C113.737 123.089 113.342 123.159 112.906 123.159ZM112.878 120.162C113.214 120.162 113.498 120.085 113.73 119.931C113.962 119.777 114.138 119.556 114.259 119.267C114.38 118.978 114.44 118.633 114.44 118.23C114.44 117.837 114.381 117.49 114.263 117.19C114.144 116.889 113.969 116.653 113.737 116.483C113.505 116.312 113.219 116.227 112.878 116.227C112.523 116.227 112.227 116.317 111.99 116.497C111.756 116.677 111.579 116.919 111.461 117.222C111.345 117.525 111.287 117.861 111.287 118.23C111.287 118.609 111.346 118.944 111.464 119.235C111.585 119.524 111.763 119.751 111.997 119.917C112.234 120.08 112.527 120.162 112.878 120.162ZM116.798 123.045V115.545H117.608V116.412H117.707C117.769 116.317 117.854 116.196 117.963 116.05C118.074 115.901 118.233 115.768 118.439 115.652C118.647 115.534 118.929 115.474 119.284 115.474C119.743 115.474 120.148 115.589 120.499 115.819C120.849 116.049 121.122 116.374 121.319 116.795C121.515 117.217 121.614 117.714 121.614 118.287C121.614 118.865 121.515 119.365 121.319 119.789C121.122 120.21 120.85 120.537 120.502 120.769C120.154 120.999 119.753 121.114 119.298 121.114C118.948 121.114 118.667 121.056 118.457 120.94C118.246 120.821 118.084 120.687 117.97 120.538C117.857 120.387 117.769 120.261 117.707 120.162H117.636V123.045H116.798ZM117.622 118.273C117.622 118.685 117.683 119.048 117.803 119.363C117.924 119.675 118.1 119.92 118.332 120.098C118.564 120.273 118.848 120.361 119.185 120.361C119.535 120.361 119.827 120.268 120.062 120.084C120.299 119.897 120.476 119.646 120.594 119.331C120.715 119.014 120.776 118.661 120.776 118.273C120.776 117.889 120.716 117.544 120.598 117.236C120.482 116.926 120.306 116.681 120.069 116.501C119.835 116.318 119.54 116.227 119.185 116.227C118.844 116.227 118.557 116.314 118.325 116.487C118.093 116.657 117.918 116.896 117.8 117.204C117.681 117.509 117.622 117.866 117.622 118.273ZM126.33 118.77V115.545H127.168V121H126.33V120.077H126.273C126.145 120.354 125.946 120.589 125.676 120.783C125.406 120.975 125.065 121.071 124.653 121.071C124.312 121.071 124.009 120.996 123.744 120.847C123.479 120.696 123.271 120.469 123.119 120.165C122.968 119.86 122.892 119.475 122.892 119.011V115.545H123.73V118.955C123.73 119.352 123.841 119.67 124.064 119.906C124.289 120.143 124.575 120.261 124.923 120.261C125.132 120.261 125.344 120.208 125.559 120.102C125.777 119.995 125.959 119.832 126.106 119.612C126.255 119.391 126.33 119.111 126.33 118.77ZM131.245 113.727V121H130.365V114.651H130.322L128.546 115.83V114.935L130.365 113.727H131.245ZM134.587 121L132.925 115.545H133.806L134.985 119.722H135.041L136.206 115.545H137.101L138.252 119.707H138.308L139.487 115.545H140.368L138.706 121H137.882L136.689 116.81H136.604L135.411 121H134.587Z" fill="#6933D3"/>
<path d="M34 122.989H140.709V123.67H34V122.989Z" fill="#6933D3"/>
<path d="M34.7173 150V144.076H36.7189C37.1836 144.076 37.5635 144.16 37.8585 144.328C38.1555 144.494 38.3753 144.718 38.518 145.002C38.6607 145.285 38.7321 145.602 38.7321 145.951C38.7321 146.3 38.6607 146.617 38.518 146.902C38.3773 147.188 38.1594 147.415 37.8643 147.585C37.5693 147.753 37.1913 147.836 36.7305 147.836H35.2958V147.2H36.7073C37.0255 147.2 37.281 147.145 37.4738 147.035C37.6667 146.925 37.8065 146.777 37.8933 146.59C37.982 146.401 38.0263 146.188 38.0263 145.951C38.0263 145.713 37.982 145.501 37.8933 145.314C37.8065 145.127 37.6657 144.981 37.471 144.875C37.2762 144.767 37.0178 144.713 36.6958 144.713H35.4347V150H34.7173ZM41.5522 150.093C41.1511 150.093 40.7992 149.997 40.4965 149.806C40.1957 149.615 39.9604 149.348 39.7907 149.005C39.6229 148.662 39.5391 148.261 39.5391 147.802C39.5391 147.339 39.6229 146.935 39.7907 146.59C39.9604 146.245 40.1957 145.977 40.4965 145.786C40.7992 145.595 41.1511 145.499 41.5522 145.499C41.9533 145.499 42.3043 145.595 42.6051 145.786C42.9078 145.977 43.1431 146.245 43.3108 146.59C43.4805 146.935 43.5654 147.339 43.5654 147.802C43.5654 148.261 43.4805 148.662 43.3108 149.005C43.1431 149.348 42.9078 149.615 42.6051 149.806C42.3043 149.997 41.9533 150.093 41.5522 150.093ZM41.5522 149.479C41.8569 149.479 42.1076 149.401 42.3043 149.245C42.5009 149.089 42.6465 148.884 42.741 148.629C42.8355 148.374 42.8827 148.099 42.8827 147.802C42.8827 147.505 42.8355 147.228 42.741 146.972C42.6465 146.715 42.5009 146.508 42.3043 146.35C42.1076 146.192 41.8569 146.113 41.5522 146.113C41.2475 146.113 40.9969 146.192 40.8002 146.35C40.6035 146.508 40.4579 146.715 40.3634 146.972C40.2689 147.228 40.2217 147.505 40.2217 147.802C40.2217 148.099 40.2689 148.374 40.3634 148.629C40.4579 148.884 40.6035 149.089 40.8002 149.245C40.9969 149.401 41.2475 149.479 41.5522 149.479ZM45.4628 150L44.1092 145.557H44.8265L45.7868 148.959H45.8331L46.7818 145.557H47.5107L48.4478 148.947H48.4941L49.4544 145.557H50.1718L48.8181 150H48.147L47.1752 146.587H47.1057L46.1339 150H45.4628ZM52.7858 150.093C52.3577 150.093 51.9885 149.998 51.678 149.809C51.3695 149.618 51.1313 149.352 50.9636 149.011C50.7977 148.668 50.7148 148.268 50.7148 147.813C50.7148 147.358 50.7977 146.957 50.9636 146.61C51.1313 146.261 51.3647 145.989 51.6635 145.794C51.9644 145.598 52.3153 145.499 52.7164 145.499C52.9478 145.499 53.1763 145.538 53.4019 145.615C53.6275 145.692 53.8329 145.818 54.018 145.991C54.2031 146.163 54.3506 146.39 54.4605 146.674C54.5705 146.957 54.6254 147.306 54.6254 147.721V148.01H51.2007V147.42H53.9312C53.9312 147.169 53.8811 146.946 53.7808 146.749C53.6825 146.552 53.5417 146.397 53.3585 146.283C53.1773 146.169 52.9632 146.113 52.7164 146.113C52.4445 146.113 52.2092 146.18 52.0106 146.315C51.8139 146.448 51.6626 146.622 51.5565 146.836C51.4505 147.05 51.3974 147.279 51.3974 147.524V147.917C51.3974 148.253 51.4553 148.537 51.571 148.771C51.6886 149.002 51.8515 149.179 52.0598 149.3C52.2681 149.42 52.5101 149.479 52.7858 149.479C52.9651 149.479 53.1271 149.454 53.2717 149.404C53.4183 149.352 53.5446 149.275 53.6507 149.173C53.7567 149.069 53.8387 148.939 53.8965 148.785L54.556 148.97C54.4866 149.194 54.3699 149.391 54.206 149.56C54.0421 149.728 53.8396 149.859 53.5986 149.954C53.3576 150.046 53.0866 150.093 52.7858 150.093ZM55.6638 150V145.557H56.3233V146.228H56.3696C56.4506 146.008 56.5971 145.83 56.8092 145.693C57.0213 145.556 57.2605 145.488 57.5266 145.488C57.5767 145.488 57.6394 145.489 57.7146 145.491C57.7898 145.493 57.8467 145.495 57.8852 145.499V146.194C57.8621 146.188 57.8091 146.179 57.7261 146.167C57.6451 146.154 57.5593 146.147 57.4687 146.147C57.2527 146.147 57.0599 146.193 56.8902 146.283C56.7225 146.372 56.5894 146.495 56.4911 146.653C56.3946 146.81 56.3464 146.988 56.3464 147.189V150H55.6638ZM60.4219 150.093C59.9938 150.093 59.6246 149.998 59.3141 149.809C59.0056 149.618 58.7674 149.352 58.5997 149.011C58.4338 148.668 58.3509 148.268 58.3509 147.813C58.3509 147.358 58.4338 146.957 58.5997 146.61C58.7674 146.261 59.0007 145.989 59.2996 145.794C59.6005 145.598 59.9514 145.499 60.3525 145.499C60.5839 145.499 60.8124 145.538 61.038 145.615C61.2636 145.692 61.469 145.818 61.6541 145.991C61.8392 146.163 61.9867 146.39 62.0966 146.674C62.2066 146.957 62.2615 147.306 62.2615 147.721V148.01H58.8368V147.42H61.5673C61.5673 147.169 61.5172 146.946 61.4169 146.749C61.3186 146.552 61.1778 146.397 60.9946 146.283C60.8134 146.169 60.5993 146.113 60.3525 146.113C60.0806 146.113 59.8453 146.18 59.6467 146.315C59.45 146.448 59.2987 146.622 59.1926 146.836C59.0866 147.05 59.0335 147.279 59.0335 147.524V147.917C59.0335 148.253 59.0914 148.537 59.2071 148.771C59.3247 149.002 59.4876 149.179 59.6959 149.3C59.9042 149.42 60.1462 149.479 60.4219 149.479C60.6012 149.479 60.7632 149.454 60.9078 149.404C61.0544 149.352 61.1807 149.275 61.2868 149.173C61.3928 149.069 61.4748 148.939 61.5326 148.785L62.1921 148.97C62.1227 149.194 62.006 149.391 61.8421 149.56C61.6782 149.728 61.4757 149.859 61.2347 149.954C60.9937 150.046 60.7227 150.093 60.4219 150.093ZM64.9775 150.093C64.6073 150.093 64.2805 149.999 63.997 149.812C63.7135 149.623 63.4918 149.357 63.3317 149.014C63.1717 148.669 63.0917 148.261 63.0917 147.79C63.0917 147.324 63.1717 146.919 63.3317 146.575C63.4918 146.232 63.7145 145.967 63.9999 145.78C64.2853 145.593 64.615 145.499 64.9891 145.499C65.2784 145.499 65.5069 145.548 65.6746 145.644C65.8443 145.738 65.9735 145.846 66.0622 145.968C66.1528 146.087 66.2232 146.186 66.2734 146.263H66.3312V144.076H67.0138V150H66.3543V149.317H66.2734C66.2232 149.398 66.1519 149.501 66.0593 149.624C65.9668 149.745 65.8347 149.854 65.6631 149.951C65.4914 150.045 65.2629 150.093 64.9775 150.093ZM65.0701 149.479C65.3439 149.479 65.5753 149.408 65.7643 149.265C65.9533 149.121 66.0969 148.921 66.1953 148.667C66.2936 148.41 66.3428 148.114 66.3428 147.779C66.3428 147.447 66.2946 147.157 66.1982 146.908C66.1017 146.657 65.959 146.463 65.7701 146.324C65.5811 146.183 65.3478 146.113 65.0701 146.113C64.7809 146.113 64.5398 146.187 64.347 146.335C64.1561 146.482 64.0124 146.681 63.916 146.934C63.8215 147.185 63.7743 147.466 63.7743 147.779C63.7743 148.095 63.8225 148.382 63.9189 148.641C64.0172 148.897 64.1619 149.101 64.3528 149.254C64.5456 149.404 64.7847 149.479 65.0701 149.479ZM70.7422 150V144.076H71.4248V146.263H71.4827C71.5328 146.186 71.6022 146.087 71.6909 145.968C71.7816 145.846 71.9108 145.738 72.0785 145.644C72.2482 145.548 72.4777 145.499 72.7669 145.499C73.141 145.499 73.4708 145.593 73.7562 145.78C74.0415 145.967 74.2643 146.232 74.4243 146.575C74.5844 146.919 74.6644 147.324 74.6644 147.79C74.6644 148.261 74.5844 148.669 74.4243 149.014C74.2643 149.357 74.0425 149.623 73.7591 149.812C73.4756 149.999 73.1487 150.093 72.7785 150.093C72.4931 150.093 72.2646 150.045 72.093 149.951C71.9214 149.854 71.7893 149.745 71.6967 149.624C71.6042 149.501 71.5328 149.398 71.4827 149.317H71.4017V150H70.7422ZM71.4133 147.779C71.4133 148.114 71.4624 148.41 71.5608 148.667C71.6591 148.921 71.8028 149.121 71.9918 149.265C72.1807 149.408 72.4121 149.479 72.6859 149.479C72.9713 149.479 73.2095 149.404 73.4004 149.254C73.5932 149.101 73.7378 148.897 73.8343 148.641C73.9326 148.382 73.9818 148.095 73.9818 147.779C73.9818 147.466 73.9336 147.185 73.8371 146.934C73.7427 146.681 73.599 146.482 73.4062 146.335C73.2153 146.187 72.9752 146.113 72.6859 146.113C72.4083 146.113 72.1749 146.183 71.986 146.324C71.797 146.463 71.6543 146.657 71.5579 146.908C71.4615 147.157 71.4133 147.447 71.4133 147.779ZM75.9891 151.666C75.8734 151.666 75.7703 151.656 75.6796 151.637C75.589 151.62 75.5263 151.602 75.4916 151.585L75.6652 150.983C75.831 151.026 75.9776 151.041 76.1048 151.03C76.2321 151.018 76.3449 150.961 76.4433 150.859C76.5435 150.759 76.6351 150.596 76.718 150.37L76.8453 150.023L75.2024 145.557H75.9429L77.1693 149.098H77.2155L78.4419 145.557H79.1824L77.2965 150.648C77.2117 150.877 77.1066 151.067 76.9813 151.218C76.8559 151.37 76.7103 151.483 76.5445 151.556C76.3806 151.629 76.1955 151.666 75.9891 151.666Z" fill="white"/>
<path d="M92.9035 149.316V148.528H93.9781C94.2184 148.528 94.4142 148.479 94.5655 148.381C94.7168 148.279 94.8258 148.146 94.8926 147.981C94.9638 147.816 94.9994 147.634 94.9994 147.434C94.9994 147.171 94.9259 146.984 94.7791 146.873C94.6367 146.762 94.4476 146.706 94.2117 146.706H92.9035V145.898H94.2184C94.7702 145.898 95.1974 146.03 95.5 146.292C95.8026 146.55 95.9539 146.924 95.9539 147.414C95.9539 147.663 95.9138 147.903 95.8337 148.135C95.7536 148.361 95.6335 148.564 95.4733 148.742C95.3131 148.92 95.1106 149.06 94.8659 149.162C94.6211 149.265 94.3319 149.316 93.9981 149.316H92.9035ZM92.3828 150.704V145.898H93.3306V150.704H92.3828Z" fill="white"/>
<path d="M98.2109 150.784C97.6547 150.784 97.2341 150.693 96.9493 150.511C96.669 150.328 96.5288 150.032 96.5288 149.623C96.5288 149.36 96.5933 149.145 96.7224 148.976C96.8559 148.806 97.0406 148.682 97.2764 148.602C97.5167 148.517 97.7926 148.475 98.1041 148.475C98.2954 148.475 98.4623 148.491 98.6047 148.522C98.7471 148.548 98.8762 148.577 98.9919 148.608V149.209C98.9029 149.178 98.7894 149.151 98.6514 149.129C98.5135 149.102 98.38 149.089 98.2509 149.089C97.9617 149.089 97.7459 149.129 97.6035 149.209C97.4655 149.289 97.3966 149.425 97.3966 149.616C97.3966 149.799 97.4655 149.93 97.6035 150.01C97.7414 150.09 97.9394 150.13 98.1975 150.13C98.3533 150.13 98.5024 150.117 98.6448 150.09C98.7916 150.059 98.9207 150.012 99.0319 149.95L98.8984 150.21C98.8806 150.157 98.865 150.104 98.8517 150.05C98.8383 149.997 98.8272 149.941 98.8183 149.883C98.8139 149.825 98.8094 149.761 98.805 149.69C98.805 149.614 98.805 149.523 98.805 149.416V148.502C98.805 148.275 98.7694 148.103 98.6982 147.988C98.627 147.872 98.5224 147.796 98.3844 147.761C98.2465 147.721 98.0752 147.701 97.8705 147.701C97.6836 147.701 97.5034 147.721 97.3298 147.761C97.1563 147.796 97.0161 147.839 96.9093 147.888H96.8425V147.147C97.0027 147.089 97.183 147.047 97.3832 147.02C97.5835 146.989 97.7837 146.973 97.9839 146.973C98.2331 146.973 98.4623 146.995 98.6715 147.04C98.8851 147.084 99.0697 147.162 99.2255 147.273C99.3812 147.385 99.5014 147.543 99.5859 147.747C99.6749 147.948 99.7194 148.208 99.7194 148.528V149.369C99.7194 149.463 99.7194 149.581 99.7194 149.723C99.7239 149.861 99.7305 149.997 99.7394 150.13C99.7483 150.264 99.7617 150.371 99.7795 150.451L99.7595 150.504C99.6082 150.562 99.4435 150.613 99.2655 150.658C99.092 150.698 98.914 150.729 98.7315 150.751C98.5491 150.773 98.3755 150.784 98.2109 150.784Z" fill="white"/>
<path d="M101.111 152.253V152.173L101.992 150.057L103.08 147.06H104.028V147.14L102.039 152.253H101.111ZM101.772 150.978L100.31 147.14V147.06H101.304L102.279 149.97L101.772 150.978Z" fill="white"/>
<path d="M104.774 150.704V148.428C104.774 148.339 104.772 148.226 104.767 148.088C104.763 147.945 104.756 147.807 104.747 147.674C104.743 147.536 104.729 147.427 104.707 147.347L104.727 147.293C104.861 147.236 105.019 147.184 105.201 147.14C105.384 147.091 105.573 147.051 105.769 147.02C105.969 146.989 106.16 146.973 106.343 146.973C106.552 146.973 106.754 146.998 106.95 147.047C107.15 147.091 107.328 147.173 107.484 147.293C107.644 147.414 107.771 147.581 107.864 147.794C107.958 148.003 108.005 148.272 108.005 148.602V150.704H107.07V148.642C107.07 148.397 107.035 148.21 106.963 148.081C106.897 147.948 106.801 147.856 106.676 147.807C106.556 147.754 106.416 147.727 106.256 147.727C106.122 147.727 105.987 147.743 105.849 147.774C105.715 147.805 105.597 147.841 105.495 147.881L105.635 147.647C105.657 147.714 105.675 147.801 105.688 147.908C105.702 148.014 105.708 148.137 105.708 148.275V150.704H104.774ZM109.306 150.704V148.642C109.306 148.397 109.273 148.21 109.206 148.081C109.144 147.948 109.048 147.856 108.919 147.807C108.794 147.754 108.643 147.727 108.465 147.727C108.354 147.727 108.24 147.741 108.125 147.767C108.014 147.79 107.904 147.821 107.798 147.861L107.29 147.26C107.491 147.176 107.702 147.107 107.925 147.053C108.151 147 108.376 146.973 108.599 146.973C108.812 146.973 109.017 146.995 109.213 147.04C109.409 147.084 109.584 147.167 109.74 147.287C109.896 147.403 110.018 147.567 110.107 147.781C110.196 147.99 110.241 148.264 110.241 148.602V150.704H109.306Z" fill="white"/>
<path d="M113.337 150.771C113.003 150.771 112.705 150.733 112.443 150.658C112.18 150.582 111.958 150.469 111.775 150.317C111.593 150.161 111.453 149.963 111.355 149.723C111.261 149.483 111.215 149.198 111.215 148.869C111.215 148.477 111.288 148.141 111.435 147.861C111.582 147.576 111.789 147.358 112.056 147.207C112.327 147.051 112.643 146.973 113.003 146.973C113.408 146.973 113.738 147.058 113.991 147.227C114.245 147.391 114.427 147.623 114.539 147.921C114.65 148.215 114.697 148.553 114.679 148.936L114.672 149.156H111.815V148.542H113.764V148.502C113.764 148.23 113.7 148.023 113.571 147.881C113.446 147.738 113.255 147.667 112.997 147.667C112.837 147.667 112.692 147.703 112.563 147.774C112.438 147.841 112.338 147.957 112.263 148.121C112.191 148.286 112.156 148.511 112.156 148.795V148.936C112.156 149.216 112.209 149.436 112.316 149.596C112.423 149.752 112.57 149.863 112.757 149.93C112.943 149.997 113.159 150.03 113.404 150.03C113.622 150.03 113.813 150.01 113.978 149.97C114.143 149.93 114.272 149.883 114.365 149.83H114.432V150.584C114.307 150.638 114.154 150.682 113.971 150.718C113.793 150.753 113.582 150.771 113.337 150.771Z" fill="white"/>
<path d="M115.692 150.704V148.428C115.692 148.339 115.69 148.226 115.685 148.088C115.681 147.945 115.674 147.807 115.665 147.674C115.661 147.536 115.648 147.427 115.625 147.347L115.645 147.293C115.779 147.236 115.937 147.184 116.119 147.14C116.306 147.091 116.498 147.051 116.693 147.02C116.894 146.989 117.083 146.973 117.261 146.973C117.488 146.973 117.703 146.998 117.908 147.047C118.117 147.091 118.304 147.173 118.469 147.293C118.633 147.414 118.763 147.581 118.856 147.794C118.949 148.003 118.996 148.272 118.996 148.602V150.704H118.062V148.642C118.062 148.397 118.026 148.21 117.955 148.081C117.884 147.948 117.781 147.856 117.648 147.807C117.514 147.754 117.356 147.727 117.174 147.727C117.04 147.727 116.905 147.743 116.767 147.774C116.633 147.805 116.515 147.841 116.413 147.881L116.553 147.647C116.575 147.714 116.593 147.801 116.607 147.908C116.62 148.014 116.627 148.137 116.627 148.275V150.704H115.692Z" fill="white"/>
<path d="M121.733 150.758C121.417 150.758 121.148 150.711 120.925 150.618C120.707 150.524 120.54 150.382 120.424 150.19C120.313 149.995 120.258 149.743 120.258 149.436V146.119H121.192V149.363C121.192 149.59 121.245 149.752 121.352 149.85C121.459 149.948 121.624 149.997 121.846 149.997C121.931 149.997 122.013 149.988 122.093 149.97C122.178 149.952 122.251 149.93 122.313 149.903H122.373V150.651C122.293 150.682 122.2 150.707 122.093 150.724C121.986 150.747 121.866 150.758 121.733 150.758ZM119.677 147.807V147.06H122.187V147.807H119.677Z" fill="white"/>
<path d="M123.007 149.783H123.06C123.22 149.85 123.407 149.908 123.621 149.957C123.839 150.006 124.057 150.03 124.275 150.03C124.351 150.03 124.433 150.028 124.522 150.024C124.611 150.015 124.693 149.999 124.769 149.977C124.849 149.955 124.914 149.914 124.963 149.857C125.016 149.799 125.043 149.721 125.043 149.623C125.043 149.498 124.992 149.412 124.889 149.363C124.787 149.314 124.629 149.271 124.415 149.236L124.102 149.182C123.746 149.12 123.472 149.013 123.281 148.862C123.089 148.706 122.994 148.477 122.994 148.175C122.994 147.957 123.051 147.759 123.167 147.581C123.287 147.403 123.472 147.262 123.721 147.16C123.975 147.053 124.306 147 124.716 147C124.907 147 125.083 147.013 125.243 147.04C125.408 147.062 125.563 147.095 125.71 147.14V147.908H125.657C125.488 147.841 125.325 147.794 125.17 147.767C125.014 147.741 124.854 147.727 124.689 147.727C124.44 147.727 124.244 147.759 124.102 147.821C123.964 147.879 123.895 147.983 123.895 148.135C123.895 148.25 123.946 148.333 124.048 148.381C124.155 148.43 124.308 148.473 124.509 148.508L124.816 148.562C125.025 148.593 125.214 148.648 125.383 148.729C125.557 148.809 125.695 148.92 125.797 149.062C125.899 149.2 125.95 149.378 125.95 149.596C125.95 149.983 125.806 150.275 125.517 150.471C125.232 150.662 124.8 150.758 124.222 150.758C124.008 150.758 123.795 150.74 123.581 150.704C123.367 150.669 123.176 150.624 123.007 150.571V149.783Z" fill="white"/>
<path d="M96.0469 142.71C96.0469 142.207 96.1425 141.771 96.3339 141.402C96.5297 141.028 96.8167 140.739 97.195 140.534C97.5776 140.329 98.0471 140.227 98.6034 140.227C98.8303 140.227 99.0328 140.245 99.2108 140.28C99.3932 140.316 99.5445 140.363 99.6647 140.421V141.262H99.5979C99.4822 141.195 99.342 141.144 99.1774 141.108C99.0127 141.068 98.837 141.048 98.6501 141.048C98.2941 141.048 97.9959 141.112 97.7556 141.242C97.5153 141.371 97.3329 141.56 97.2083 141.809C97.0837 142.054 97.0214 142.354 97.0214 142.71C97.0214 143.066 97.0837 143.369 97.2083 143.618C97.3329 143.863 97.5153 144.049 97.7556 144.178C97.9959 144.308 98.2941 144.372 98.6501 144.372C98.837 144.372 99.0127 144.354 99.1774 144.319C99.342 144.279 99.4822 144.225 99.5979 144.158H99.6647V144.999C99.5445 145.057 99.3932 145.104 99.2108 145.14C99.0328 145.175 98.8303 145.193 98.6034 145.193C98.0471 145.193 97.5776 145.093 97.195 144.893C96.8167 144.692 96.5297 144.408 96.3339 144.038C96.1425 143.665 96.0469 143.222 96.0469 142.71Z" fill="white"/>
<path d="M102.181 145.193C101.624 145.193 101.204 145.102 100.919 144.919C100.639 144.737 100.499 144.441 100.499 144.032C100.499 143.769 100.563 143.553 100.692 143.384C100.826 143.215 101.01 143.09 101.246 143.01C101.486 142.926 101.762 142.884 102.074 142.884C102.265 142.884 102.432 142.899 102.574 142.93C102.717 142.957 102.846 142.986 102.962 143.017V143.618C102.873 143.587 102.759 143.56 102.621 143.538C102.483 143.511 102.35 143.498 102.221 143.498C101.931 143.498 101.716 143.538 101.573 143.618C101.435 143.698 101.366 143.834 101.366 144.025C101.366 144.207 101.435 144.339 101.573 144.419C101.711 144.499 101.909 144.539 102.167 144.539C102.323 144.539 102.472 144.526 102.614 144.499C102.761 144.468 102.89 144.421 103.002 144.359L102.868 144.619C102.85 144.566 102.835 144.512 102.821 144.459C102.808 144.405 102.797 144.35 102.788 144.292C102.784 144.234 102.779 144.17 102.775 144.098C102.775 144.023 102.775 143.932 102.775 143.825V142.91C102.775 142.683 102.739 142.512 102.668 142.396C102.597 142.281 102.492 142.205 102.354 142.169C102.216 142.129 102.045 142.109 101.84 142.109C101.653 142.109 101.473 142.129 101.3 142.169C101.126 142.205 100.986 142.247 100.879 142.296H100.812V141.555C100.972 141.497 101.153 141.455 101.353 141.428C101.553 141.397 101.753 141.382 101.954 141.382C102.203 141.382 102.432 141.404 102.641 141.448C102.855 141.493 103.039 141.571 103.195 141.682C103.351 141.793 103.471 141.951 103.556 142.156C103.645 142.356 103.689 142.617 103.689 142.937V143.778C103.689 143.871 103.689 143.989 103.689 144.132C103.694 144.27 103.7 144.405 103.709 144.539C103.718 144.672 103.731 144.779 103.749 144.859L103.729 144.913C103.578 144.971 103.413 145.022 103.235 145.066C103.062 145.106 102.884 145.137 102.701 145.16C102.519 145.182 102.345 145.193 102.181 145.193Z" fill="white"/>
<path d="M104.658 144.192H104.711C104.872 144.259 105.059 144.316 105.272 144.365C105.49 144.414 105.708 144.439 105.926 144.439C106.002 144.439 106.084 144.437 106.173 144.432C106.262 144.423 106.345 144.408 106.42 144.385C106.5 144.363 106.565 144.323 106.614 144.265C106.667 144.207 106.694 144.13 106.694 144.032C106.694 143.907 106.643 143.82 106.54 143.771C106.438 143.722 106.28 143.68 106.066 143.644L105.753 143.591C105.397 143.529 105.123 143.422 104.932 143.271C104.74 143.115 104.645 142.886 104.645 142.583C104.645 142.365 104.703 142.167 104.818 141.989C104.938 141.811 105.123 141.671 105.372 141.569C105.626 141.462 105.957 141.408 106.367 141.408C106.558 141.408 106.734 141.422 106.894 141.448C107.059 141.471 107.215 141.504 107.361 141.549V142.316H107.308C107.139 142.249 106.976 142.203 106.821 142.176C106.665 142.149 106.505 142.136 106.34 142.136C106.091 142.136 105.895 142.167 105.753 142.229C105.615 142.287 105.546 142.392 105.546 142.543C105.546 142.659 105.597 142.741 105.699 142.79C105.806 142.839 105.96 142.881 106.16 142.917L106.467 142.97C106.676 143.001 106.865 143.057 107.034 143.137C107.208 143.217 107.346 143.329 107.448 143.471C107.551 143.609 107.602 143.787 107.602 144.005C107.602 144.392 107.457 144.684 107.168 144.879C106.883 145.071 106.451 145.166 105.873 145.166C105.659 145.166 105.446 145.149 105.232 145.113C105.019 145.077 104.827 145.033 104.658 144.979V144.192Z" fill="white"/>
<path d="M108.529 145.113V141.168C108.529 141.079 108.526 140.966 108.522 140.828C108.517 140.685 108.511 140.547 108.502 140.414C108.497 140.28 108.484 140.174 108.462 140.093L108.482 140.04H109.463V141.909L109.263 141.602C109.401 141.54 109.55 141.488 109.71 141.448C109.875 141.404 110.064 141.382 110.277 141.382C110.495 141.382 110.698 141.411 110.885 141.468C111.076 141.522 111.241 141.613 111.379 141.742C111.521 141.867 111.632 142.034 111.712 142.243C111.793 142.447 111.833 142.703 111.833 143.01V145.113H110.898V143.057C110.898 142.821 110.863 142.639 110.791 142.51C110.72 142.376 110.62 142.285 110.491 142.236C110.366 142.183 110.22 142.156 110.05 142.156C109.957 142.156 109.859 142.165 109.757 142.183C109.659 142.2 109.565 142.221 109.476 142.243C109.392 142.265 109.325 142.285 109.276 142.303L109.463 141.882V145.113H108.529Z" fill="white"/>
<path d="M113.159 145.113V141.502C113.159 141.159 113.219 140.877 113.339 140.654C113.464 140.432 113.639 140.267 113.866 140.16C114.093 140.053 114.369 140 114.694 140C114.81 140 114.912 140.007 115.001 140.02C115.095 140.033 115.175 140.053 115.241 140.08V140.801H115.175C115.121 140.779 115.061 140.761 114.994 140.748C114.932 140.73 114.852 140.721 114.754 140.721C114.518 140.721 114.349 140.783 114.247 140.908C114.145 141.032 114.093 141.235 114.093 141.515V145.113H113.159ZM112.578 142.216V141.468H115.021V142.216H112.578Z" fill="white"/>
<path d="M115.718 145.113V142.783C115.718 142.694 115.716 142.581 115.711 142.443C115.707 142.301 115.7 142.163 115.691 142.029C115.687 141.891 115.674 141.782 115.651 141.702L115.671 141.649C115.796 141.604 115.941 141.564 116.105 141.529C116.274 141.493 116.45 141.466 116.633 141.448C116.819 141.426 117.006 141.415 117.193 141.415C117.273 141.415 117.36 141.417 117.454 141.422C117.547 141.426 117.64 141.435 117.734 141.448V142.209H117.674C117.607 142.192 117.531 142.18 117.447 142.176C117.362 142.167 117.28 142.163 117.2 142.163C117.058 142.163 116.917 142.174 116.779 142.196C116.641 142.218 116.524 142.245 116.426 142.276L116.566 142.063C116.624 142.183 116.653 142.39 116.653 142.683V145.113H115.718Z" fill="white"/>
<path d="M120.409 145.18C120.076 145.18 119.778 145.142 119.515 145.066C119.252 144.991 119.03 144.877 118.848 144.726C118.665 144.57 118.525 144.372 118.427 144.132C118.334 143.891 118.287 143.607 118.287 143.277C118.287 142.886 118.36 142.55 118.507 142.269C118.654 141.985 118.861 141.767 119.128 141.615C119.399 141.46 119.715 141.382 120.076 141.382C120.481 141.382 120.81 141.466 121.064 141.635C121.317 141.8 121.5 142.031 121.611 142.33C121.722 142.623 121.769 142.961 121.751 143.344L121.744 143.564H118.888V142.95H120.837V142.91C120.837 142.639 120.772 142.432 120.643 142.289C120.518 142.147 120.327 142.076 120.069 142.076C119.909 142.076 119.764 142.111 119.635 142.183C119.511 142.249 119.41 142.365 119.335 142.53C119.264 142.694 119.228 142.919 119.228 143.204V143.344C119.228 143.624 119.281 143.845 119.388 144.005C119.495 144.161 119.642 144.272 119.829 144.339C120.016 144.405 120.231 144.439 120.476 144.439C120.694 144.439 120.886 144.419 121.05 144.379C121.215 144.339 121.344 144.292 121.437 144.239H121.504V144.993C121.38 145.046 121.226 145.091 121.044 145.126C120.866 145.162 120.654 145.18 120.409 145.18Z" fill="white"/>
<path d="M124.659 145.18C124.326 145.18 124.027 145.142 123.765 145.066C123.502 144.991 123.28 144.877 123.097 144.726C122.915 144.57 122.775 144.372 122.677 144.132C122.583 143.891 122.537 143.607 122.537 143.277C122.537 142.886 122.61 142.55 122.757 142.269C122.904 141.985 123.111 141.767 123.378 141.615C123.649 141.46 123.965 141.382 124.326 141.382C124.731 141.382 125.06 141.466 125.313 141.635C125.567 141.8 125.75 142.031 125.861 142.33C125.972 142.623 126.019 142.961 126.001 143.344L125.994 143.564H123.137V142.95H125.087V142.91C125.087 142.639 125.022 142.432 124.893 142.289C124.768 142.147 124.577 142.076 124.319 142.076C124.159 142.076 124.014 142.111 123.885 142.183C123.76 142.249 123.66 142.365 123.585 142.53C123.513 142.694 123.478 142.919 123.478 143.204V143.344C123.478 143.624 123.531 143.845 123.638 144.005C123.745 144.161 123.892 144.272 124.079 144.339C124.266 144.405 124.481 144.439 124.726 144.439C124.944 144.439 125.135 144.419 125.3 144.379C125.465 144.339 125.594 144.292 125.687 144.239H125.754V144.993C125.629 145.046 125.476 145.091 125.293 145.126C125.115 145.162 124.904 145.18 124.659 145.18Z" fill="white"/>
<path d="M88.11 140.066C87.1432 140.066 86.3594 140.85 86.3594 141.817H92.8567C93.8236 141.817 94.6073 141.033 94.6073 140.066H88.11Z" fill="#04AB61"/>
<path d="M86.3594 141.817C86.3594 140.85 87.1431 140.066 88.11 140.066V146.564C88.11 147.531 87.3262 148.314 86.3594 148.314V141.817Z" fill="#04AB61"/>
<path fill-rule="evenodd" clip-rule="evenodd" d="M88.6641 142.4V144.151H90.7061C91.6729 144.151 92.4567 143.367 92.4567 142.4V142.4L88.6641 142.4Z" fill="#FBB016"/>
<path d="M84 144.151C84 143.184 84.7838 142.401 85.7506 142.401V148.898C85.7506 149.865 84.9668 150.648 84 150.648V144.151Z" fill="#FBB016"/>
<path opacity="0.25333" d="M1 47H254" stroke="white" stroke-width="1.104"/>
<path d="M53.8608 18.2727H55.7955L58.3864 24.5966H58.4886L61.0795 18.2727H63.0142V27H61.4972V21.0043H61.4162L59.0043 26.9744H57.8707L55.4588 20.9915H55.3778V27H53.8608V18.2727ZM65.7486 29.4545C65.5384 29.4545 65.3438 29.4375 65.1648 29.4034C64.9887 29.3722 64.8481 29.3352 64.743 29.2926L65.1009 28.0909C65.3253 28.1563 65.5256 28.1875 65.7018 28.1847C65.8779 28.1818 66.0327 28.1264 66.1663 28.0185C66.3026 27.9134 66.4177 27.7372 66.5114 27.4901L66.6435 27.1364L64.2699 20.4545H65.9063L67.4148 25.3977H67.483L68.9958 20.4545H70.6364L68.0157 27.7926C67.8935 28.1392 67.7316 28.4361 67.5299 28.6832C67.3282 28.9332 67.081 29.1236 66.7884 29.2543C66.4986 29.3878 66.1521 29.4545 65.7486 29.4545ZM76.6372 20.6719C76.5974 20.2997 76.4298 20.0099 76.1344 19.8026C75.8417 19.5952 75.4611 19.4915 74.9923 19.4915C74.6628 19.4915 74.3801 19.5412 74.1443 19.6406C73.9085 19.7401 73.7281 19.875 73.6031 20.0455C73.4781 20.2159 73.4142 20.4105 73.4113 20.6293C73.4113 20.8111 73.4525 20.9687 73.5349 21.1023C73.6202 21.2358 73.7352 21.3494 73.8801 21.4432C74.025 21.5341 74.1855 21.6108 74.3616 21.6733C74.5378 21.7358 74.7153 21.7884 74.8943 21.831L75.7125 22.0355C76.042 22.1122 76.3588 22.2159 76.6628 22.3466C76.9696 22.4773 77.2437 22.642 77.4852 22.8409C77.7295 23.0398 77.9227 23.2798 78.0648 23.5611C78.2068 23.8423 78.2778 24.1719 78.2778 24.5497C78.2778 25.0611 78.1471 25.5114 77.8858 25.9006C77.6244 26.2869 77.2466 26.5895 76.7523 26.8082C76.2608 27.0241 75.6656 27.1321 74.9667 27.1321C74.2878 27.1321 73.6983 27.027 73.1983 26.8168C72.7011 26.6065 72.3119 26.2997 72.0307 25.8963C71.7523 25.4929 71.6017 25.0014 71.579 24.4219H73.1344C73.1571 24.7259 73.2508 24.9787 73.4156 25.1804C73.5804 25.3821 73.7949 25.5327 74.0591 25.6321C74.3261 25.7315 74.6244 25.7812 74.954 25.7812C75.2977 25.7812 75.5988 25.7301 75.8574 25.6278C76.1187 25.5227 76.3233 25.3778 76.471 25.1932C76.6187 25.0057 76.694 24.7869 76.6969 24.5369C76.694 24.3097 76.6273 24.1222 76.4966 23.9744C76.3659 23.8239 76.1827 23.6989 75.9469 23.5994C75.7139 23.4972 75.4412 23.4062 75.1287 23.3267L74.1358 23.071C73.417 22.8864 72.8488 22.6065 72.4312 22.2315C72.0165 21.8537 71.8091 21.3523 71.8091 20.7273C71.8091 20.2131 71.9483 19.7628 72.2267 19.3764C72.5079 18.9901 72.89 18.6903 73.373 18.4773C73.8559 18.2614 74.4028 18.1534 75.0136 18.1534C75.6329 18.1534 76.1756 18.2614 76.6415 18.4773C77.1102 18.6903 77.4781 18.9872 77.7452 19.3679C78.0122 19.7457 78.15 20.1804 78.1585 20.6719H76.6372ZM83.0098 20.4545V21.6477H79.247V20.4545H83.0098ZM80.176 18.8864H81.7186V25.0312C81.7186 25.2386 81.7498 25.3977 81.8123 25.5085C81.8777 25.6165 81.9629 25.6903 82.068 25.7301C82.1731 25.7699 82.2896 25.7898 82.4174 25.7898C82.514 25.7898 82.6021 25.7827 82.6817 25.7685C82.764 25.7543 82.8265 25.7415 82.8692 25.7301L83.1291 26.9361C83.0467 26.9645 82.9288 26.9957 82.7754 27.0298C82.6248 27.0639 82.4402 27.0838 82.2214 27.0895C81.8351 27.1009 81.4871 27.0426 81.1774 26.9148C80.8677 26.7841 80.622 26.5824 80.4402 26.3097C80.2612 26.0369 80.1731 25.696 80.176 25.2869V18.8864ZM87.2069 27.1278C86.5677 27.1278 86.0137 26.9872 85.545 26.706C85.0762 26.4247 84.7126 26.0312 84.4541 25.5256C84.1984 25.0199 84.0706 24.429 84.0706 23.7528C84.0706 23.0767 84.1984 22.4844 84.4541 21.9759C84.7126 21.4673 85.0762 21.0724 85.545 20.7912C86.0137 20.5099 86.5677 20.3693 87.2069 20.3693C87.8461 20.3693 88.4001 20.5099 88.8689 20.7912C89.3376 21.0724 89.6998 21.4673 89.9555 21.9759C90.214 22.4844 90.3433 23.0767 90.3433 23.7528C90.3433 24.429 90.214 25.0199 89.9555 25.5256C89.6998 26.0312 89.3376 26.4247 88.8689 26.706C88.4001 26.9872 87.8461 27.1278 87.2069 27.1278ZM87.2155 25.892C87.562 25.892 87.8518 25.7969 88.0848 25.6065C88.3177 25.4134 88.491 25.1548 88.6047 24.831C88.7211 24.5071 88.7794 24.1463 88.7794 23.7486C88.7794 23.348 88.7211 22.9858 88.6047 22.6619C88.491 22.3352 88.3177 22.0753 88.0848 21.8821C87.8518 21.6889 87.562 21.5923 87.2155 21.5923C86.8603 21.5923 86.5649 21.6889 86.3291 21.8821C86.0961 22.0753 85.9214 22.3352 85.8049 22.6619C85.6913 22.9858 85.6345 23.348 85.6345 23.7486C85.6345 24.1463 85.6913 24.5071 85.8049 24.831C85.9214 25.1548 86.0961 25.4134 86.3291 25.6065C86.5649 25.7969 86.8603 25.892 87.2155 25.892ZM91.7748 27V20.4545H93.2706V21.5455H93.3387C93.4581 21.1676 93.6626 20.8764 93.9524 20.6719C94.245 20.4645 94.5788 20.3608 94.9538 20.3608C95.039 20.3608 95.1342 20.3651 95.2393 20.3736C95.3473 20.3793 95.4367 20.3892 95.5078 20.4034V21.8224C95.4424 21.7997 95.3387 21.7798 95.1967 21.7628C95.0575 21.7429 94.9225 21.733 94.7919 21.733C94.5106 21.733 94.2578 21.794 94.0333 21.9162C93.8117 22.0355 93.637 22.2017 93.5092 22.4148C93.3814 22.6278 93.3174 22.8736 93.3174 23.152V27H91.7748ZM99.283 27.1278C98.6268 27.1278 98.06 26.9915 97.5828 26.7188C97.1083 26.4432 96.7433 26.054 96.4876 25.5511C96.2319 25.0455 96.1041 24.4503 96.1041 23.7656C96.1041 23.0923 96.2319 22.5014 96.4876 21.9929C96.7461 21.4815 97.1069 21.0838 97.57 20.7997C98.033 20.5128 98.5771 20.3693 99.2021 20.3693C99.6055 20.3693 99.9862 20.4347 100.344 20.5653C100.705 20.6932 101.023 20.892 101.299 21.1619C101.577 21.4318 101.796 21.7756 101.955 22.1932C102.114 22.608 102.194 23.1023 102.194 23.6761V24.1491H96.8285V23.1094H100.715C100.712 22.8139 100.648 22.5511 100.523 22.321C100.398 22.0881 100.223 21.9048 99.999 21.7713C99.7774 21.6378 99.5188 21.571 99.2234 21.571C98.908 21.571 98.6311 21.6477 98.3924 21.8011C98.1538 21.9517 97.9677 22.1506 97.8342 22.3977C97.7035 22.642 97.6367 22.9105 97.6339 23.2031V24.1108C97.6339 24.4915 97.7035 24.8182 97.8427 25.0909C97.9819 25.3608 98.1765 25.5682 98.4265 25.7131C98.6765 25.8551 98.9691 25.9261 99.3044 25.9261C99.5288 25.9261 99.7319 25.8949 99.9137 25.8324C100.096 25.767 100.253 25.6719 100.387 25.5469C100.52 25.4219 100.621 25.267 100.689 25.0824L102.13 25.2443C102.039 25.625 101.865 25.9574 101.61 26.2415C101.357 26.5227 101.033 26.7415 100.638 26.8977C100.243 27.0511 99.7916 27.1278 99.283 27.1278Z" fill="white"/>
<g clip-path="url(#clip0_8487_22445)">
<path d="M20 34L21.6552 28C20.5793 26.1379 20 24.069 20 21.9172C20 15.3793 25.3793 10 31.9586 10C38.5379 10 44 15.3793 44 21.9172C44 28.4551 38.5379 34 31.9586 34C29.8896 34 27.9035 33.3379 26.1241 32.3448L20 34Z" fill="#DCDEE6"/>
<path d="M26.4565 30.1925L26.8289 30.3994C28.36 31.3511 30.1393 31.9304 32.0013 31.9304C37.422 31.9304 41.9324 27.4201 41.9324 21.9166C41.9324 16.4132 37.422 12.0684 31.96 12.0684C26.4979 12.0684 22.0703 16.4545 22.0703 21.9166C22.0703 23.8201 22.6083 25.6821 23.6013 27.2545L23.8496 27.627L22.8979 31.1028L26.4565 30.1925Z" fill="#55CD6C"/>
<path d="M28.7704 16.3715L27.9842 16.3301C27.7359 16.3301 27.4877 16.4129 27.3221 16.5784C26.9497 16.9094 26.3291 17.5301 26.1635 18.3577C25.8739 19.5991 26.3291 21.0887 27.4049 22.5784C28.4808 24.068 30.5498 26.468 34.1911 27.5025C35.3497 27.8335 36.2601 27.6266 37.0049 27.1715C37.5843 26.799 37.9566 26.2198 38.0808 25.599L38.2049 25.0197C38.2463 24.8542 38.1635 24.6473 37.998 24.5646L35.3911 23.3646C35.2256 23.2818 35.0187 23.3232 34.8946 23.4887L33.8601 24.8128C33.7773 24.8956 33.6532 24.9369 33.5291 24.8956C32.8256 24.6473 30.467 23.6542 29.1842 21.1715C29.1428 21.0473 29.1428 20.9232 29.2256 20.8404L30.2187 19.7232C30.3015 19.5991 30.3428 19.4336 30.3015 19.3094L29.1015 16.6198C29.06 16.4956 28.9359 16.3715 28.7704 16.3715Z" fill="#FEFEFE"/>
</g>
<defs>
<clipPath id="clip0_8487_22445">
<rect width="24" height="24" fill="white" transform="translate(20 10)"/>
</clipPath>
</defs>
</svg>
