<svg width="20" height="21" viewBox="0 0 20 21" fill="none" xmlns="http://www.w3.org/2000/svg">
<g clip-path="url(#clip0_8487_22236)">
<path d="M8.68001 13.5949V8.74266C8.68001 8.53487 8.76309 8.33559 8.91096 8.18865C9.05883 8.04172 9.25938 7.95918 9.46851 7.95918H10.1453V4.68399C10.1453 4.57996 10.1245 4.47697 10.084 4.38103C10.0436 4.28508 9.98427 4.19811 9.90962 4.12517C9.83496 4.05224 9.74643 3.99481 9.6492 3.95624C9.55196 3.91767 9.44797 3.89872 9.34329 3.90051H2.7883C2.57918 3.90051 2.37862 3.98305 2.23075 4.12998C2.08288 4.27692 1.99981 4.4762 1.99981 4.68399V16.5137C1.99936 16.6168 2.01943 16.7191 2.05886 16.8145C2.09828 16.91 2.15629 16.9967 2.22955 17.0698C2.30282 17.143 2.38989 17.201 2.48578 17.2405C2.58166 17.2801 2.68447 17.3005 2.7883 17.3005H9.34329C9.55124 17.2978 9.74971 17.2137 9.89548 17.0663C10.0413 16.9189 10.1225 16.7203 10.1216 16.5137V14.3818H9.44482C9.23953 14.3748 9.045 14.2888 8.9023 14.142C8.7596 13.9952 8.67989 13.799 8.68001 13.5949Z" fill="#A065FE"/>
<path d="M17.2282 7.95898H10.1216V14.3816H17.2282C17.435 14.378 17.6319 14.2932 17.7759 14.1458C17.9198 13.9983 17.9991 13.8002 17.9964 13.5947V8.74247C17.9978 8.64091 17.979 8.54007 17.9411 8.44573C17.9032 8.35138 17.847 8.26538 17.7756 8.19262C17.7043 8.11987 17.6192 8.06179 17.5253 8.0217C17.4314 7.98161 17.3304 7.9603 17.2282 7.95898Z" fill="#FF85BF"/>
<path d="M8.74081 7.95885C7.8271 7.95885 7.10629 7.85461 7.08598 8.74234V13.5946C7.08598 14.489 7.8271 14.3814 8.74081 14.3814H10.1215V7.95885H8.74081Z" fill="#E768A2"/>
<path d="M7.08328 9.57585L7.08257 9.91211L10.1283 9.91845L10.129 9.58219L7.08328 9.57585Z" fill="#FF85BF"/>
<path d="M17.9829 9.64746H10.1182V9.98372H17.9829V9.64746Z" fill="#E768A2"/>
<path d="M10.1318 5.80078H1.9998V6.13704H10.1318V5.80078Z" fill="#7D47E5"/>
</g>
<defs>
<clipPath id="clip0_8487_22236">
<rect width="16" height="13.4" fill="white" transform="translate(2 3.90039)"/>
</clipPath>
</defs>
</svg>
