<svg width="20" height="21" viewBox="0 0 20 21" fill="none" xmlns="http://www.w3.org/2000/svg">
<path d="M12.234 10.5965C12.016 10.0288 11.6599 9.52465 11.1981 9.12977C10.7363 8.7349 10.1834 8.46181 9.58961 8.33528C8.99577 8.20875 8.37979 8.23279 7.79758 8.40521C7.21537 8.57764 6.68535 8.89299 6.25562 9.32266L4.06522 11.517C3.38299 12.2023 3.00014 13.1308 3.00076 14.0987C3.00139 15.0665 3.38544 15.9946 4.06855 16.679C4.75167 17.3634 5.678 17.7481 6.64408 17.7488C7.61017 17.7494 8.537 17.3659 9.22103 16.6824L11.4114 14.488C11.7627 14.1362 12.0381 13.7158 12.2205 13.2529C12.5557 12.4002 12.5606 11.4526 12.234 10.5965ZM9.8687 12.9424L9.57161 13.2401L7.67831 15.1369C7.40366 15.4115 7.03141 15.5656 6.64337 15.5655C6.25533 15.5653 5.88324 15.4107 5.60886 15.1358C5.33448 14.8609 5.18026 14.4881 5.18009 14.0994C5.17992 13.7106 5.33381 13.3377 5.60794 13.0626L7.51349 11.1535L7.79834 10.8681C8.07224 10.5936 8.44363 10.4391 8.83106 10.4385C9.21849 10.4379 9.59035 10.5913 9.86509 10.865L9.8687 10.8682C9.87392 10.8735 9.87725 10.8797 9.88236 10.885C10.1499 11.1612 10.2985 11.5316 10.2959 11.9165C10.2933 12.3014 10.1399 12.6698 9.8687 12.9424Z" fill="#FFD57F"/>
<path d="M15.6821 5.06792C14.9979 4.38405 14.0708 4 13.1043 4C12.1378 4 11.2107 4.38405 10.5264 5.06792L8.33604 7.26247C7.98473 7.61423 7.70935 8.0346 7.527 8.49746C7.19172 9.35022 7.18691 10.2978 7.5135 11.1539C7.7315 11.7216 8.08755 12.2257 8.54934 12.6206C9.01112 13.0155 9.56403 13.2886 10.1579 13.4151C10.7517 13.5416 11.3677 13.5176 11.9499 13.3452C12.5321 13.1727 13.0621 12.8574 13.4919 12.4277L15.6823 10.2334C16.3659 9.54836 16.75 8.61932 16.75 7.65062C16.7499 6.68192 16.3658 5.7529 15.6821 5.06792ZM14.1395 8.68781L12.234 10.5969L11.9491 10.8822C11.6752 11.1568 11.3038 11.3113 10.9164 11.3118C10.529 11.3124 10.1571 11.1591 9.88237 10.8854L9.87876 10.8821C9.87356 10.8769 9.87022 10.8706 9.86509 10.8654C9.59752 10.5892 9.44901 10.2187 9.45156 9.83385C9.45412 9.44898 9.60755 9.08053 9.87876 8.80795L10.1758 8.51032L12.0691 6.61352C12.3438 6.3388 12.716 6.18457 13.1041 6.18472C13.4922 6.18487 13.8644 6.3394 14.1388 6.61434C14.4132 6.88927 14.5674 7.26212 14.5676 7.65093C14.5677 8.03974 14.4137 8.41268 14.1395 8.68781Z" fill="#FF80B7"/>
<path d="M9.86511 10.8658L9.86871 10.8691C9.87394 10.8743 9.87726 10.8806 9.88239 10.8858C10.1571 11.1595 10.529 11.3129 10.9164 11.3123C11.3039 11.3117 11.6752 11.1572 11.9491 10.8827L12.234 10.5973C12.0546 10.1253 11.7788 9.69593 11.4245 9.33666C11.0701 8.97739 10.6449 8.6961 10.1759 8.51074L9.87878 8.80836C9.60756 9.08094 9.45413 9.4494 9.45157 9.83427C9.44901 10.2191 9.59753 10.5896 9.86511 10.8658Z" fill="#FFD57F"/>
<path d="M9.57164 13.2401L7.67833 15.1369C7.40366 15.4114 7.03144 15.5655 6.64345 15.5653C6.25546 15.565 5.88342 15.4105 5.60908 15.1356C5.33474 14.8608 5.18052 14.488 5.18031 14.0993C5.1801 13.7106 5.33391 13.3377 5.60796 13.0626L7.51351 11.1535C7.18692 10.2974 7.19173 9.34983 7.52701 8.49707C7.05001 8.6797 6.61679 8.96103 6.25563 9.3227L4.06524 11.517C3.38267 12.2022 2.99952 13.1309 3 14.0989C3.00048 15.067 3.38453 15.9953 4.06779 16.6798C4.75104 17.3643 5.67759 17.7491 6.64387 17.7496C7.61014 17.7501 8.53709 17.3663 9.22105 16.6825L11.4114 14.488C11.7628 14.1363 12.0381 13.7158 12.2205 13.2529C11.3674 13.5829 10.4215 13.5783 9.57164 13.2401Z" fill="#FFD57F"/>
<path d="M15.6822 5.06793C14.9979 4.38406 14.0709 4 13.1043 4C12.1378 4 11.2107 4.38406 10.5265 5.06793L8.3361 7.26249C7.98477 7.61424 7.70939 8.0346 7.52704 8.49745C8.38012 8.16747 9.32605 8.17206 10.1759 8.51032L12.0692 6.61351C12.2051 6.47706 12.3665 6.36878 12.5442 6.29487C12.7219 6.22096 12.9124 6.18286 13.1048 6.18276C13.2972 6.18266 13.4877 6.22055 13.6655 6.29426C13.8432 6.36798 14.0048 6.47608 14.1408 6.61238C14.2769 6.74868 14.3847 6.91051 14.4583 7.08862C14.5319 7.26672 14.5697 7.45761 14.5696 7.65036C14.5695 7.84311 14.5314 8.03395 14.4576 8.21197C14.3839 8.38998 14.2758 8.55168 14.1396 8.68782L12.234 10.5969C12.5606 11.453 12.5558 12.4006 12.2205 13.2533C12.6975 13.0707 13.1307 12.7894 13.4919 12.4277L15.6823 10.2334C16.366 9.54838 16.7501 8.61934 16.75 7.65064C16.75 6.68194 16.3659 5.7529 15.6822 5.06793Z" fill="#FF80B7"/>
<path d="M9.86509 10.8654C9.59035 10.5917 9.21849 10.4384 8.83105 10.439C8.44362 10.4396 8.07223 10.5941 7.79832 10.8686L7.51349 11.154C7.69292 11.626 7.96862 12.0553 8.32299 12.4146C8.67737 12.7739 9.10262 13.0552 9.57161 13.2405L9.86869 12.9429C10.1399 12.6703 10.2933 12.3019 10.2959 11.917C10.2985 11.5321 10.1499 11.1616 9.88236 10.8855L9.87875 10.8822C9.87355 10.877 9.8702 10.8707 9.86509 10.8654Z" fill="#FF80B7"/>
<path d="M12.234 10.5967L11.9491 10.8821C11.6752 11.1566 11.3038 11.3111 10.9164 11.3117C10.529 11.3123 10.1571 11.1589 9.88238 10.8852C10.15 11.1614 10.2985 11.5319 10.2959 11.9167C10.2934 12.3016 10.1399 12.6701 9.86871 12.9426L9.57162 13.2403C10.4215 13.5785 11.3674 13.5831 12.2205 13.2531C12.5558 12.4004 12.5606 11.4528 12.234 10.5967Z" fill="#EB66A1"/>
<path d="M7.51351 11.1541L7.79834 10.8687C8.07224 10.5942 8.44363 10.4397 8.83107 10.4391C9.21851 10.4385 9.59037 10.5918 9.8651 10.8655C9.59753 10.5894 9.44901 10.2189 9.45157 9.83401C9.45412 9.44914 9.60755 9.08068 9.87877 8.8081L10.1759 8.51048C9.32601 8.17223 8.38008 8.16763 7.527 8.49762C7.19172 9.35038 7.18691 10.2979 7.51351 11.1541Z" fill="#FFB60C"/>
</svg>
