<svg width="20" height="21" viewBox="0 0 20 21" fill="none" xmlns="http://www.w3.org/2000/svg">
<g clip-path="url(#clip0_8487_22304)">
<path d="M14.5631 9.18334L15.8514 4.57013C15.873 4.49294 15.8737 4.41133 15.8536 4.33376C15.8334 4.25619 15.7931 4.18547 15.7369 4.12892C15.6806 4.07237 15.6104 4.03205 15.5336 4.01214C15.4567 3.99222 15.376 3.99344 15.2997 4.01565L3.31333 7.41536C3.22889 7.43904 3.15331 7.48757 3.09622 7.55476C3.03912 7.62196 3.00307 7.7048 2.99266 7.79275C2.98224 7.8807 2.99793 7.9698 3.03773 8.04872C3.07752 8.12764 3.13963 8.19282 3.21616 8.23598L8.5135 11.246C8.58515 11.2852 8.64396 11.3446 8.68277 11.4171L11.6606 16.7717C11.7019 16.8523 11.7666 16.9182 11.846 16.9607C11.9253 17.0032 12.0156 17.0202 12.1048 17.0095C12.194 16.9989 12.2778 16.961 12.3452 16.901C12.4125 16.8409 12.4602 16.7616 12.4818 16.6735L13.8798 11.6452L14.5631 9.18334Z" fill="#A065FE"/>
<path d="M16.7915 9.34511L14.334 10.0422L13.3655 13.5052L14.8418 16.1604C14.8675 16.2086 14.9069 16.248 14.955 16.2732C15.003 16.2985 15.0575 16.3086 15.1113 16.3021C15.1651 16.2956 15.2158 16.2728 15.2566 16.2368C15.2974 16.2008 15.3266 16.1532 15.3402 16.1002L17.1206 9.69681C17.1358 9.64969 17.1381 9.59932 17.1273 9.55099C17.1165 9.50266 17.0931 9.45815 17.0594 9.42216C17.0257 9.38617 16.9831 9.36002 16.9359 9.34646C16.8888 9.3329 16.8389 9.33244 16.7915 9.34511Z" fill="#5AD6A0"/>
<path d="M10.4508 11.1412C10.3985 11.1557 10.3517 11.1857 10.3164 11.2273C10.2811 11.2688 10.2588 11.32 10.2524 11.3744C10.246 11.4288 10.2558 11.4839 10.2805 11.5327C10.3053 11.5814 10.3438 11.6216 10.3912 11.6481L13.1747 13.2323C13.2179 13.257 13.2537 13.2932 13.2781 13.3369L13.3659 13.4953L14.325 10.0449L10.4508 11.1412Z" fill="#7D47E5"/>
<path d="M8.73617 11.3875C8.71582 11.3884 8.69552 11.3849 8.67661 11.3772C8.6577 11.3696 8.64061 11.358 8.62646 11.3432C8.61177 11.3284 8.60011 11.3109 8.59215 11.2916C8.5842 11.2723 8.5801 11.2516 8.5801 11.2307C8.5801 11.2098 8.5842 11.1891 8.59215 11.1697C8.60011 11.1504 8.61177 11.1329 8.62646 11.1182L15.4973 4.14452C15.5119 4.12967 15.5292 4.11788 15.5483 4.10984C15.5674 4.1018 15.5879 4.09766 15.6086 4.09766C15.6293 4.09766 15.6498 4.1018 15.6689 4.10984C15.688 4.11788 15.7053 4.12967 15.7199 4.14452C15.7488 4.17466 15.765 4.21501 15.765 4.257C15.765 4.29899 15.7488 4.33933 15.7199 4.36947L8.84588 11.34C8.83201 11.3554 8.81504 11.3676 8.79612 11.3758C8.77719 11.384 8.75675 11.388 8.73617 11.3875Z" fill="#7D47E5"/>
</g>
<defs>
<clipPath id="clip0_8487_22304">
<rect width="14.1304" height="13" fill="white" transform="translate(2.99993 4)"/>
</clipPath>
</defs>
</svg>
