<svg width="40" height="40" viewBox="0 0 40 40" fill="none" xmlns="http://www.w3.org/2000/svg">
<path d="M24.4082 33.2427C24.3656 29.563 23.3287 25.9633 21.4073 22.8248C19.4859 19.6863 16.7516 17.1258 13.4938 15.4143C13.4397 15.3859 13.3832 15.3616 13.3289 15.3336C10.4446 13.8451 7.24568 13.0695 4 13.0718C4.00029 18.4623 6.13286 23.634 9.93228 27.4579C13.7317 31.2819 18.8895 33.4477 24.2799 33.4827L24.2876 33.4829C24.33 33.4831 24.3718 33.4861 24.4142 33.4861C24.4142 33.4045 24.4091 33.3241 24.4082 33.2427Z" fill="#FF80B7"/>
<path d="M22.9569 12.4214C21.058 9.71247 18.5265 7.50818 15.5822 6C13.1205 10.7954 12.6552 16.3696 14.2877 21.5068C15.9202 26.6439 19.518 30.927 24.2963 33.4216L24.303 33.4253C24.3406 33.4449 24.3764 33.4667 24.4142 33.4861C24.4515 33.4135 24.4836 33.3396 24.52 33.2668C26.1633 29.9742 26.8856 26.2984 26.6104 22.6287C26.3352 18.9591 25.0728 15.4321 22.9569 12.4214Z" fill="#FFD9E8"/>
<path d="M32.7794 21.9969C34.2599 21.9969 35.4601 20.7967 35.4601 19.3162C35.4601 17.8357 34.2599 16.6355 32.7794 16.6355C31.2989 16.6355 30.0987 17.8357 30.0987 19.3162C30.0987 20.7967 31.2989 21.9969 32.7794 21.9969Z" fill="#FFD9E8"/>
<path d="M24.2963 33.4216C20.9901 31.6964 18.2198 29.0983 16.2862 25.9094C14.3527 22.7206 13.3299 19.0629 13.3288 15.3336C10.4446 13.8451 7.24567 13.0695 4 13.0718C4.00029 18.4623 6.13286 23.634 9.93228 27.4579C13.7317 31.2819 18.8895 33.4477 24.2799 33.4827L24.2876 33.4829C24.33 33.4831 24.3718 33.4861 24.4142 33.4861C24.3764 33.4668 24.3406 33.4449 24.303 33.4253L24.2963 33.4216Z" fill="#FF80B7"/>
<path d="M22.9569 12.4214C21.058 9.71247 18.5265 7.50818 15.5822 6C14.096 8.88643 13.3233 12.087 13.3289 15.3336C13.3832 15.3616 13.4397 15.3858 13.4938 15.4143C16.7516 17.1257 19.4859 19.6863 21.4073 22.8248C23.3287 25.9633 24.3656 29.563 24.4082 33.2427C24.4091 33.3241 24.4142 33.4044 24.4142 33.486C24.4515 33.4134 24.4836 33.3396 24.52 33.2668C26.1633 29.9741 26.8856 26.2984 26.6104 22.6287C26.3352 18.9591 25.0728 15.4321 22.9569 12.4214Z" fill="#FFD9E8"/>
<path d="M13.4938 15.4142C13.4397 15.3858 13.3832 15.3615 13.3288 15.3335C13.3299 19.0628 14.3527 22.7204 16.2862 25.9093C18.2198 29.0982 20.9901 31.6963 24.2963 33.4215L24.303 33.4253C24.3406 33.4448 24.3764 33.4667 24.4142 33.486C24.4142 33.4045 24.4091 33.324 24.4082 33.2427C24.3656 29.5629 23.3286 25.9633 21.4073 22.8247C19.4859 19.6862 16.7515 17.1257 13.4938 15.4142Z" fill="#EB66A1"/>
</svg>

