<svg xmlns="http://www.w3.org/2000/svg" width="87px" height="23px" viewBox="0 0 135 39" fill="#200b4f"><path d="M123.9 14.3h-6.2c-.5 0-.6.2-.6.6v22.8c0 .5.1.7.6.7h5.8c.8 0 .8 0 .8-.8V26.4 15c.1-.5 0-.7-.4-.7zM135.2 15c0-.5-.1-.6-.6-.6h-6.2c-.5 0-.6.2-.6.6v22.8c0 .5.1.7.6.7h5.9c.8 0 .8 0 .8-.8V26.5c.1-3.9.1-7.7.1-11.5zM68.3 27.3c-.5-.9-1.2-1.6-2.1-2.1-.3-.3-.6-.4-1-.5-2-.9-4.2-1.1-6.3-1.6-1.2-.3-2.4-.4-3.5-1-1.2-.6-1.4-1.9-.3-2.6.4-.3.8-.3 1.3-.4 2.1-.5 4.3.5 4.6 2.5.1.3.3.3.5.3h6.4c.5 0 .6-.1.5-.6-.7-3.5-2.6-6-6.1-7.1-3.1-1-6.3-1.1-9.5 0-2.4.8-4.4 2.2-5.5 4.6-1 2.3-.8 5.5 1.7 7.4 1.3 1 2.6 1.7 4.1 2.2 1.7.6 3.4.8 5.2 1 1 .1 2.1.3 3 .9.8.6.8 1.7-.1 2.2l-.6.3c-.7.3-1.4.4-2.1.5h-1c-1.7-.2-3.1-.8-3.6-2.6-.1-.4-.4-.3-.6-.3h-6.2c-.4 0-.6.1-.5.6 0 .2 0 .4.1.6.5 2.7 2 4.7 4.4 5.9 2.9 1.5 6 1.5 9.2 1.2h.2c1.6-.1 3.1-.4 4.5-1.2.8-.5 1.7-1 2.2-1.8.6-.4 1-1.1 1.3-1.8 1.1-2.2 1-4.4-.2-6.6zM101.4 31.5h12.8c.5 0 .6-.1.6-.6 0-.7 0-1.4-.1-2.1-.3-2.3-1.3-4.3-3.1-5.8-2.4-2-5.2-2.7-8.2-2.4-4.2.5-5.3 1.5-5.6 1.8-1.2.7-2.9 3-2.9 3.1-.9 1.6-1.2 3.3-1 5.1.2 1.9.9 3.6 2.3 5 0 .1.1.2.2.2.1.2.2.3.3.3 0 .1.1.2.2.2 1 .9 2 1.5 3.2 1.9 1.2.4 2.4.6 3.7.7h.7c1.6.1 3.2-.2 4.6-.7 2.4-.8 4.4-2.3 5.4-4.7.2-.6.2-.6-.4-.6-1.7 0-3.4.1-5.1 0-.9 0-1.4.3-1.7 1-.5.3-.9.6-1.5.8-2.1.7-4.5-.7-4.9-2.8-.1-.2.1-.4.5-.4zm-.5-4c.3-1.5 1.8-2.8 3.5-2.8 1.6 0 3.1 1.1 3.4 2.6.2.6.1.7-.6.7h-5.9c-.4 0-.5-.2-.4-.5zM91.8 26.9c0-1.5-.5-2.8-1.4-4-.4-.5-.9-1-1.6-1.3-.1-.2-.3-.3-.5-.4-3.1-1.3-6-.9-8.8.9-.2.1-.4.4-.6.3-.3-.1-.1-.5-.1-.7v-6.9c0-.5-.2-.7-.7-.6h-6c-.4 0-.6.1-.6.5V37.9c0 .2.1.3.3.3h6.3c.3 0 .5-.1.5-.4V37v-8.6c0-1.7 1.3-3 2.9-2.9 1.7 0 3.1 1.3 3.1 3v9.2c0 .5.1.6.6.6h5.9c.5 0 .7-.1.7-.6-.1-3.5 0-7.2 0-10.8z"></path><g><path d="M28.9 38.1h-5.2c-.1 0-.3 0-.4.1-.2.1-.4.3-.6.4-.6.4-1.2.6-1.9.5-.6 0-1.1-.2-1.6-.6-.2-.1-.4-.2-.6-.4-.1 0-.1-.1-.2-.1H8.1 8c-.2 0-.2 0-.2-.2l-.3-2.7c-.1-.8-.2-1.6-.3-2.3-.1-.8-.2-1.6-.3-2.3 0-.2 0-.3-.1-.4-.1-.1-.3-.2-.4-.3-2-1.4-4-2.9-6-4.3-.1-.1-.2-.2-.2-.3l-.3-2.1c.1-.9.1-1.8.1-2.7.1-2.6.6-5.1 1.7-7.6 1.2-2.7 2.8-5.1 4.9-7.1 2.7-2.6 5.9-4.3 9.5-5.2 1-.2 2-.4 3-.5h3.3c4.5.3 8.5 1.9 12 4.7 3.6 2.9 6 6.7 7.2 11.2.3 1 .4 2 .5 3.1.1 1.1.1 2.2.1 3.4-.1 1-.2 1.9-.4 2.9 0 .1-.1.2-.2.2-1.7 1.2-3.4 2.5-5.1 3.7-.4.3-.7.5-1.1.8-.1.1-.1.1-.2.3-.1 1-.3 2-.4 3-.1 1-.2 2-.4 3-.1.5-.1 1.1-.2 1.6 0 .2 0 .2-.2.2h-5.1zM19 26.3c-.3-1-.6-2.1-.9-3.1-.5-1.8-1-3.5-1.5-5.3l-1.8-6.3c-.4-1.6-.9-3.2-1.4-4.8-.1-.3-.2-.5-.2-.8 0-.1-.1-.1-.2-.1V6c-1.7.6-3.1 1.6-4.2 3-.1.1-.1.2 0 .3.9 1.9 1.8 3.7 2.6 5.6.6 1.4 1.3 2.7 1.9 4.1.9 2 1.9 3.9 2.8 5.9.4.7.7 1.5 1.1 2.3h-.1c-.3-.5-.5-.9-.8-1.4-1-1.8-2.1-3.6-3.1-5.3-1-1.6-1.9-3.3-2.9-4.9-.9-1.5-1.8-3.1-2.7-4.6-.1-.1-.1-.2-.2 0l-.9.9c-.8 1-1.4 2.1-1.7 3.4 0 .1 0 .1.1.2.5.6.9 1.1 1.4 1.7 1 1.2 2 2.5 3 3.7 1 1.2 1.9 2.4 2.9 3.6 1.1 1.3 2.1 2.6 3.2 3.9 0 0 .1.1 0 .1L4.5 17.6c-.1.1-.1.1-.1.2-.5 1.1-.7 2.2-.7 3.4v.8c0 .5.1.9.2 1.4 0 .1.1.1.1.2.2.1.3.2.5.4 1.9 1.4 3.8 2.8 5.7 4.1.1.1.2.1.2.3 0 .3.1.7.1 1 .1.4.1.9.2 1.3.1.6.2 1.3.3 1.9.1.5.1 1.1.2 1.6 0 .3 0 .3.3.3h7.3c.1 0 .3 0 .4.1.3.2.6.4.9.7.6.5 1.4.5 2.1 0 .3-.2.6-.5 1-.7.1-.1.2-.1.4-.1h7.5c.1 0 .2 0 .2-.1 0-.2.1-.4.1-.7.1-.5.1-1 .2-1.4.1-.5.1-.9.2-1.4.1-.5.1-1 .2-1.5 0-.3.1-.7.1-1 0-.1.1-.2.2-.3 1.6-1.2 3.2-2.4 4.8-3.5.4-.3.9-.6 1.3-1l.2-.2c.2-1 .3-1.9.2-2.9-.1-.8-.2-1.5-.5-2.2-.1-.2-.1-.4-.3-.6l-.5.5-.5.5-.5.5-.5.5-.5.5-.5.5-.5.5-.5.5-.5.5-.5.5-.5.5-.5.5-.5.5-.5.5-.5.5-.5.5-.5.5-.5.5-.5.5-.5.5-.5.5-.5.5-.5.5v-.1c.1-.2.3-.4.4-.5l2.4-3c.9-1.1 1.7-2.2 2.6-3.2l2.4-3 2.4-3c.1-.1.1-.2.1-.3-.1-.5-.3-1.1-.6-1.6-.4-.8-.9-1.5-1.5-2.2-.2-.2-.4-.4-.7-.6l-.1.1c-.7 1.2-1.3 2.3-2 3.5-.8 1.3-1.5 2.6-2.3 3.9-.7 1.3-1.5 2.5-2.2 3.8-.8 1.3-1.5 2.6-2.3 3.9-.2.4-.4.7-.6 1.1 0-.1.1-.3.2-.4.6-1.4 1.3-2.8 1.9-4.2l1.8-3.9 2.4-5.1c.7-1.4 1.3-2.8 2-4.2.1-.1.1-.2 0-.4-.9-1.2-2.1-2.1-3.4-2.7-.3-.1-.5-.2-.8-.3.4-.9.4-.9.4-.7v.1c-.1.5-.3 1-.4 1.5-.6 1.9-1.1 3.9-1.7 5.8-.7 2.5-1.4 4.9-2.1 7.4-.4 1.6-.9 3.1-1.3 4.7-.1.3-.2.6-.3 1v-.1c.2-1.1.5-2.3.7-3.4.3-1.4.6-2.8.9-4.3.3-1.4.5-2.7.8-4.1.3-1.3.5-2.6.8-3.9.3-1.4.5-2.7.8-4.1.1-.5.2-1.1.3-1.6 0-.2 0-.2-.1-.2-.3-.2-.6-.3-.9-.4-.9-.4-1.9-.6-2.9-.6h-1.3c-.3.1-.3.1-.3.2v.8c0 .7-.1 1.4-.1 2 0 .7-.1 1.4-.1 2.1 0 .7-.1 1.3-.1 2s-.1 1.4-.1 2.1c0 .7-.1 1.4-.1 2 0 .7-.1 1.4-.1 2.2 0 .7-.1 1.3-.1 2s-.1 1.4-.1 2.1c0 .7 0 1.4-.1 2 0 .9-.1 1.8-.1 2.6v.3c0-.1-.1-.3-.1-.4 0-.6-.1-1.3-.1-1.9 0-.7-.1-1.3-.1-2 0-.6-.1-1.3-.1-1.9 0-.7-.1-1.4-.1-2 0-.6-.1-1.3-.1-1.9 0-.7-.1-1.4-.1-2.1 0-.6-.1-1.2-.1-1.9s-.1-1.4-.1-2.1c0-.6-.1-1.2-.1-1.8 0-.7-.1-1.4-.1-2.1 0-.5 0-1.1-.1-1.6V4c0-.1 0-.1-.1-.1h-.6c-.6 0-1.2 0-1.8.1-1 .2-1.9.5-2.8 1-.1 0-.1.1-.1.2.3 1.5.6 2.9.9 4.4.2 1.1.4 2.2.7 3.3.4 2.2.9 4.5 1.3 6.7.8 2.2 1.3 4.4 1.7 6.7z"></path><path d="M19 26.3c.1.2.1.4.1.6 0-.2-.1-.4-.1-.6zM25 27.4c0-.2.1-.3.2-.4-.1.2-.1.3-.2.4zM17.2 27.1c.1.1.1.2.1.3-.1 0-.2-.1-.1-.3-.1.1-.1 0 0 0zM26.6 28.7c0-.1.1-.1.1-.2v.1c0 .1 0 .1-.1.1zM15.5 28.5s-.1 0 0 0c0-.1 0 0 0 0zM25 27.4s0 .1 0 0c0 .1 0 .1 0 0 0 .1 0 0 0 0zM26.8 28.5s0-.1 0 0c0-.1.1-.1 0 0 .1 0 0 0 0 0zM26.5 28.8c.1 0 .1 0 0 0zM26.8 28.5zM15.5 28.6c0-.1 0-.1 0 0 0-.1 0 0 0 0z"></path><path d="M26.7 28.6c0-.1.1-.1 0 0 .1-.1.1-.1 0 0 .1 0 0 0 0 0zM15.5 28.6c.1 0 .1 0 0 0zM26.6 28.7zM26.5 28.9c0-.1 0-.1 0 0 0-.1 0-.1 0 0 0-.1 0-.1 0 0zM26.5 28.9z"></path></g></svg>