<svg width="165" height="415" viewBox="0 0 165 415" fill="none" xmlns="http://www.w3.org/2000/svg">
<path d="M140.027 233.561L140.201 233.741L140.381 233.567L140.207 233.387L140.027 233.561ZM216.597 409.611L216.697 409.84L216.597 409.611ZM222.694 401.427L222.943 401.451L222.943 401.451L222.694 401.427ZM246.834 150.196L247.083 150.22L247.083 150.22L246.834 150.196ZM242.101 142.165L242.01 142.398L242.101 142.165ZM196.116 179.396L195.867 179.373L195.804 180.045L196.29 179.576L196.116 179.396ZM211.536 15.7158L211.287 15.6923L211.287 15.6923L211.536 15.7158ZM205.362 5.2544L205.27 5.48686L205.27 5.48686L205.362 5.2544ZM195.695 181.081L195.944 181.105L196.008 180.43L195.521 180.901L195.695 181.081ZM141.672 233.249L141.499 233.07L141.319 233.243L141.493 233.423L141.672 233.249ZM186.246 279.406L186.066 279.58L186.443 279.97L186.495 279.43L186.246 279.406ZM140.492 234.042L140.312 234.216L140.492 234.042ZM140.375 233.921L140.554 233.747L140.381 233.567L140.201 233.741L140.375 233.921ZM140.665 234.222L140.486 234.396L140.659 234.575L140.839 234.402L140.665 234.222ZM141.313 233.597L141.493 233.423L141.319 233.243L141.139 233.417L141.313 233.597ZM186.263 280.144L186.083 280.318L186.263 280.144ZM186.64 280.534L186.46 280.708L186.837 281.098L186.889 280.558L186.64 280.534ZM186.692 279.994L186.94 280.018L186.692 279.994ZM196.31 179.904L196.136 179.724L196.07 179.788L196.061 179.88L196.31 179.904ZM232.663 144.799L232.489 144.619L232.663 144.799ZM241.918 142.631L241.826 142.863L241.918 142.631ZM246.336 150.148L246.585 150.172L246.585 150.172L246.336 150.148ZM222.196 401.379L222.445 401.403L222.196 401.379ZM216.399 409.152L216.3 408.922L216.3 408.922L216.399 409.152ZM141.325 232.89L141.145 233.063L141.319 233.243L141.499 233.07L141.325 232.89ZM195.503 180.57L195.677 180.75L195.744 180.686L195.752 180.594L195.503 180.57ZM211.038 15.6688L211.061 15.4199L210.812 15.3965L210.789 15.6454L211.038 15.6688ZM211.287 15.6923L211.263 15.9412L211.31 15.4434L211.287 15.6923ZM211.038 15.6687L210.789 15.6452L210.765 15.8941L211.014 15.9176L211.038 15.6687ZM205.178 5.7193L205.27 5.48684L205.27 5.48684L205.178 5.7193ZM140.387 233.214L140.207 233.387L140.381 233.567L140.561 233.393L140.387 233.214ZM140.854 232.762L141.028 232.942L140.854 232.762ZM141.034 232.588L141.214 232.415L141.04 232.235L140.861 232.409L141.034 232.588ZM62.0221 152.424C57.118 147.346 57.7706 138.764 63.4806 133.25L63.1333 132.891C57.2656 138.557 56.5292 147.456 61.6624 152.772L62.0221 152.424ZM140.207 233.387L62.0221 152.424L61.6624 152.772L139.847 233.735L140.207 233.387ZM94.4593 277.913L140.201 233.741L139.854 233.381L94.112 277.553L94.4593 277.913ZM93.5178 289.964C90.4438 286.781 90.8641 281.385 94.4593 277.913L94.112 277.553C90.3607 281.176 89.8536 286.89 93.1581 290.311L93.5178 289.964ZM207.408 407.901L93.5178 289.964L93.1581 290.311L207.048 408.248L207.408 407.901ZM216.498 409.381C213.443 410.701 209.865 410.445 207.408 407.901L207.048 408.248C209.683 410.976 213.498 411.222 216.697 409.84L216.498 409.381ZM222.445 401.403C222.084 405.164 219.553 408.061 216.498 409.381L216.697 409.84C219.894 408.458 222.562 405.418 222.943 401.451L222.445 401.403ZM246.585 150.172L222.445 401.403L222.943 401.451L247.083 150.22L246.585 150.172ZM242.01 142.398C244.894 143.535 246.953 146.337 246.585 150.172L247.083 150.22C247.473 146.154 245.276 143.148 242.193 141.933L242.01 142.398ZM232.489 144.619C235.418 141.791 239.126 141.262 242.01 142.398L242.193 141.933C239.121 140.722 235.206 141.3 232.142 144.259L232.489 144.619ZM196.29 179.576L232.489 144.619L232.142 144.259L195.943 179.217L196.29 179.576ZM211.287 15.6923L195.867 179.373L196.365 179.42L211.784 15.7392L211.287 15.6923ZM205.27 5.48686C209.054 6.98438 211.762 10.664 211.287 15.6923L211.784 15.7393C212.281 10.4804 209.437 6.59785 205.454 5.02193L205.27 5.48686ZM192.794 8.37409C196.625 4.67392 201.486 3.98934 205.27 5.48686L205.454 5.02193C201.482 3.45 196.415 4.18222 192.446 8.01442L192.794 8.37409ZM63.4806 133.25L192.794 8.37409L192.446 8.01442L63.1333 132.891L63.4806 133.25ZM195.521 180.901L141.499 233.07L141.846 233.429L195.868 181.26L195.521 180.901ZM141.493 233.423L186.066 279.58L186.426 279.233L141.852 233.076L141.493 233.423ZM186.495 279.43L195.944 181.105L195.446 181.057L185.997 279.383L186.495 279.43ZM140.672 233.868L140.554 233.747L140.195 234.094L140.312 234.216L140.672 233.868ZM140.845 234.048L140.672 233.868L140.312 234.216L140.486 234.396L140.845 234.048ZM140.672 233.868L140.492 234.042L140.839 234.402L141.019 234.228L140.672 233.868ZM141.139 233.417L140.672 233.868L141.019 234.228L141.486 233.777L141.139 233.417ZM186.443 279.97L141.493 233.423L141.133 233.77L186.083 280.318L186.443 279.97ZM186.82 280.36L186.443 279.97L186.083 280.318L186.46 280.708L186.82 280.36ZM186.443 279.97L186.391 280.51L186.889 280.558L186.94 280.018L186.443 279.97ZM196.061 179.88L186.443 279.97L186.94 280.018L196.559 179.928L196.061 179.88ZM232.489 144.619L196.136 179.724L196.484 180.084L232.837 144.978L232.489 144.619ZM242.01 142.398C239.126 141.261 235.418 141.791 232.489 144.619L232.837 144.978C235.629 142.282 239.131 141.801 241.826 142.863L242.01 142.398ZM246.585 150.172C246.953 146.337 244.894 143.535 242.01 142.398L241.826 142.863C244.511 143.921 246.433 146.52 246.087 150.124L246.585 150.172ZM222.445 401.403L246.585 150.172L246.087 150.124L221.947 401.355L222.445 401.403ZM216.498 409.381C219.553 408.061 222.084 405.164 222.445 401.403L221.947 401.355C221.606 404.911 219.211 407.664 216.3 408.922L216.498 409.381ZM207.408 407.901C209.865 410.445 213.443 410.701 216.498 409.381L216.3 408.922C213.389 410.18 210.047 409.914 207.768 407.554L207.408 407.901ZM93.5178 289.964L207.408 407.901L207.768 407.554L93.8774 289.617L93.5178 289.964ZM94.4593 277.913C90.8641 281.385 90.4438 286.781 93.5178 289.964L93.8774 289.617C91.0334 286.672 91.3682 281.593 94.8066 278.273L94.4593 277.913ZM140.201 233.741L94.4593 277.913L94.8066 278.273L140.548 234.1L140.201 233.741ZM141.499 233.07L195.677 180.75L195.33 180.39L141.151 232.71L141.499 233.07ZM195.752 180.594L211.287 15.6923L210.789 15.6454L195.255 180.547L195.752 180.594ZM211.014 15.9177L211.263 15.9412L211.31 15.4434L211.061 15.4199L211.014 15.9177ZM211.31 15.4434L211.061 15.4198L211.014 15.9176L211.263 15.9412L211.31 15.4434ZM211.287 15.6923C211.762 10.664 209.054 6.98438 205.27 5.48684L205.086 5.95177C208.672 7.37085 211.242 10.8475 210.789 15.6452L211.287 15.6923ZM205.27 5.48684C201.486 3.98934 196.625 4.67392 192.794 8.37409L193.141 8.73376C196.836 5.16567 201.49 4.52865 205.086 5.95177L205.27 5.48684ZM192.794 8.37409L63.4806 133.25L63.8279 133.61L193.141 8.73376L192.794 8.37409ZM63.4806 133.25C57.7706 138.764 57.118 147.346 62.0221 152.424L62.3818 152.077C57.7064 147.236 58.276 138.971 63.8279 133.61L63.4806 133.25ZM62.0221 152.424L140.207 233.387L140.567 233.04L62.3818 152.077L62.0221 152.424ZM140.561 233.393L141.028 232.942L140.681 232.582L140.213 233.034L140.561 233.393ZM141.028 232.942L141.208 232.768L140.861 232.409L140.681 232.582L141.028 232.942ZM140.854 232.762L141.028 232.942L141.388 232.595L141.214 232.415L140.854 232.762ZM141.028 232.942L141.145 233.063L141.505 232.716L141.388 232.595L141.028 232.942Z" fill="url(#paint0_linear)"/>
<defs>
<linearGradient id="paint0_linear" x1="-24.5963" y1="148.764" x2="86.6702" y2="417.461" gradientUnits="userSpaceOnUse">
<stop stop-color="#8134EB"/>
<stop offset="0.544628" stop-color="#B072B2"/>
<stop offset="1" stop-color="#250055"/>
</linearGradient>
</defs>
</svg>
