<svg width="20" height="21" viewBox="0 0 20 21" fill="none" xmlns="http://www.w3.org/2000/svg">
<g clip-path="url(#clip0_8487_22278)">
<path d="M15.6249 12.9175V19.6584H8.81625V10.7695H13.4397C14.0193 10.7695 14.5751 10.9958 14.9848 11.3987C15.3946 11.8015 15.6249 12.3478 15.6249 12.9175Z" fill="#FFDD7F"/>
<path d="M12.1939 15.2307C12.1941 15.6644 12.1073 16.094 11.9386 16.4948C11.7699 16.8956 11.5225 17.2599 11.2106 17.5667C10.8987 17.8735 10.5283 18.1169 10.1207 18.283C9.713 18.4491 9.27606 18.5346 8.83478 18.5347H8.81616V11.9287H8.83478C9.72566 11.9287 10.5801 12.2766 11.21 12.8958C11.84 13.5151 12.1939 14.3549 12.1939 15.2307Z" fill="#FFBE0C"/>
<path d="M12.9917 1.75H4.80005C4.56503 1.75 4.37451 1.93728 4.37451 2.1683V15.763C4.37451 15.994 4.56503 16.1813 4.80005 16.1813H12.9917C13.2267 16.1813 13.4172 15.994 13.4172 15.763V2.1683C13.4172 1.93728 13.2267 1.75 12.9917 1.75Z" fill="#A065FE"/>
<path fill-rule="evenodd" clip-rule="evenodd" d="M13.4173 10.7695H8.81625V16.1812H12.9917C13.2267 16.1812 13.4173 15.994 13.4173 15.7629V10.7695Z" fill="#7D47E5"/>
<path fill-rule="evenodd" clip-rule="evenodd" d="M12.0521 16.1813C12.1461 15.8735 12.194 15.5532 12.1939 15.2307C12.1939 14.3549 11.84 13.5151 11.21 12.8958C10.5801 12.2766 9.72566 11.9287 8.83478 11.9287H8.81616V16.1813H12.0521Z" fill="#7D47E5"/>
<path d="M12.5925 16.4162L8.29615 12.2745C8.1379 12.122 8.01197 11.9402 7.92565 11.7396C7.83933 11.5389 7.79432 11.3235 7.79323 11.1057C7.79214 10.8878 7.835 10.6719 7.91931 10.4705C8.00363 10.269 8.12773 10.086 8.28445 9.93202C8.59625 9.6258 9.01811 9.45249 9.45885 9.44955C9.89959 9.44662 10.3238 9.61429 10.6398 9.91633L13.417 12.6253V7.68262L15.2404 10.2201C15.4904 10.5781 15.6243 11.0021 15.6244 11.4363V16.4162H12.5925Z" fill="#FFDD7F"/>
<path d="M13.417 3.00488H4.37433V3.21403H13.417V3.00488Z" fill="#7D47E5"/>
<path d="M6.94092 5.64355V6.21007C7.28095 6.21007 7.61766 6.27598 7.93181 6.40402C8.24596 6.53207 8.53141 6.71976 8.77185 6.95636C9.01229 7.19296 9.20302 7.47385 9.33315 7.78299C9.46327 8.09212 9.53025 8.42345 9.53025 8.75806H10.1093C10.1084 7.93174 9.77422 7.13956 9.18013 6.55557C8.58603 5.97158 7.78065 5.64355 6.94092 5.64355ZM6.94092 6.77658V7.3431C7.32222 7.34327 7.68786 7.49241 7.95748 7.75773C8.2271 8.02304 8.37866 8.38284 8.37883 8.75806H8.95454C8.95472 8.4978 8.90275 8.24006 8.80162 7.99958C8.70049 7.75909 8.55218 7.54059 8.36516 7.35656C8.17814 7.17252 7.95609 7.02658 7.71171 6.92706C7.46732 6.82754 7.2054 6.77641 6.94092 6.77658Z" fill="#E3D2FF"/>
<path d="M11.2975 8.75803H10.6964C10.6953 7.77928 10.2993 6.84093 9.59525 6.14885C8.8912 5.45677 7.9366 5.06749 6.94092 5.06643V4.47559C8.09596 4.47683 9.20334 4.92841 10.0201 5.73125C10.8368 6.5341 11.2962 7.62264 11.2975 8.75803Z" fill="#E3D2FF"/>
</g>
<defs>
<clipPath id="clip0_8487_22278">
<rect width="11.2502" height="17.9084" fill="white" transform="translate(4.37451 1.75)"/>
</clipPath>
</defs>
</svg>
