<svg width="20" height="21" viewBox="0 0 20 21" fill="none" xmlns="http://www.w3.org/2000/svg">
<g clip-path="url(#clip0_8487_22296)">
<path d="M13.998 9.75973V5.08782C13.998 4.82586 13.8952 4.57463 13.7123 4.38939C13.5294 4.20416 13.2813 4.1001 13.0227 4.1001H3.17531C2.91665 4.1001 2.66857 4.20416 2.48567 4.38939C2.30276 4.57463 2.2 4.82586 2.2 5.08782V11.373C2.2 11.635 2.30276 11.8862 2.48567 12.0714C2.66857 12.2567 2.91665 12.3607 3.17531 12.3607H11.2054C11.3692 11.6984 11.721 11.0991 12.2173 10.6369C12.7135 10.1747 13.3326 9.86977 13.998 9.75973Z" fill="#FF85BF"/>
<path d="M13.9979 5.90088H2.19994V6.23012H13.9979V5.90088Z" fill="#E768A2"/>
<path d="M14.5538 9.71362C14.3687 9.71561 14.184 9.73102 14.0011 9.75972V11.373C14.0011 11.635 13.8984 11.8862 13.7155 12.0714C13.5326 12.2566 13.2845 12.3607 13.0258 12.3607H11.2053C11.0285 13.0662 11.0737 13.8099 11.3346 14.4881C11.5955 15.1663 12.059 15.745 12.6605 16.1434C13.2619 16.5418 13.9712 16.74 14.6893 16.7103C15.4074 16.6807 16.0984 16.4246 16.6657 15.9778C17.2331 15.5311 17.6486 14.9161 17.854 14.2186C18.0595 13.5212 18.0447 12.7761 17.8117 12.0876C17.5787 11.3991 17.1392 10.8015 16.5545 10.3782C15.9699 9.95495 15.2693 9.72721 14.5506 9.72679L14.5538 9.71362Z" fill="#FFDD7F"/>
<path d="M13.9979 11.373V9.75977C13.3334 9.86933 12.7149 10.1733 12.2187 10.6343C11.7225 11.0952 11.3703 11.6931 11.2053 12.3542H13.0291C13.2856 12.3524 13.531 12.2485 13.7123 12.0649C13.8936 11.8813 13.9962 11.6327 13.9979 11.373Z" fill="#E768A2"/>
<path d="M16.2541 14.6522C16.2283 14.6524 16.2028 14.6467 16.1794 14.6358L14.6644 13.7336C14.6407 13.7202 14.621 13.7006 14.6073 13.6769C14.5936 13.6531 14.5864 13.6261 14.5864 13.5987V11.2545C14.5872 11.2128 14.6039 11.1731 14.633 11.1437C14.6621 11.1142 14.7013 11.0973 14.7424 11.0964C14.7838 11.0964 14.8235 11.1131 14.8528 11.1427C14.882 11.1724 14.8985 11.2126 14.8985 11.2545V13.5032L16.3387 14.3592C16.3737 14.3805 16.3991 14.4148 16.4094 14.4548C16.4198 14.4948 16.4142 14.5373 16.3939 14.5732C16.3801 14.5982 16.3598 14.6188 16.3351 14.6327C16.3104 14.6467 16.2824 14.6534 16.2541 14.6522Z" fill="#FFBE0C"/>
<path d="M8.8418 8.85439H3.86123C3.81812 8.85439 3.77677 8.83704 3.74629 8.80617C3.7158 8.7753 3.69868 8.73343 3.69868 8.68977C3.69951 8.64637 3.7169 8.60499 3.74721 8.5743C3.77751 8.5436 3.81838 8.52599 3.86123 8.52515H8.8418C8.88492 8.52515 8.92626 8.54249 8.95675 8.57336C8.98723 8.60423 9.00436 8.64611 9.00436 8.68977C9.00436 8.73343 8.98723 8.7753 8.95675 8.80617C8.92626 8.83704 8.88492 8.85439 8.8418 8.85439Z" fill="#FFE1F0"/>
<path d="M7.69094 10.2633H3.86123C3.81838 10.2625 3.77751 10.2449 3.74721 10.2142C3.7169 10.1835 3.69951 10.1421 3.69868 10.0987C3.69868 10.055 3.7158 10.0132 3.74629 9.9823C3.77677 9.95143 3.81812 9.93408 3.86123 9.93408H7.69094C7.73405 9.93408 7.7754 9.95143 7.80588 9.9823C7.83637 10.0132 7.85349 10.055 7.85349 10.0987C7.85349 10.1424 7.83637 10.1842 7.80588 10.2151C7.7754 10.246 7.73405 10.2633 7.69094 10.2633Z" fill="#FFE1F0"/>
</g>
<defs>
<clipPath id="clip0_8487_22296">
<rect width="15.8" height="12.6" fill="white" transform="translate(2.2 4.1001)"/>
</clipPath>
</defs>
</svg>
