<svg width="33" height="32" viewBox="0 0 33 32" fill="none" xmlns="http://www.w3.org/2000/svg">
<path d="M30.0602 17.9098H21.3511L25.709 13.718L30.0602 17.9098Z" fill="#FFDB7F"/>
<path d="M10.8283 13.718H2.12579L6.47705 17.9098L10.8283 13.718Z" fill="#FFBC0C"/>
<path d="M16.0897 26.8846C12.6751 26.8846 9.49966 25.3501 7.38715 22.6795L8.94828 21.4439C10.6821 23.6361 13.2863 24.8917 16.0897 24.8917C21.0853 24.8917 25.1443 20.9058 25.1443 16.0032H27.1372C27.1372 22.0019 22.1814 26.8846 16.0897 26.8846Z" fill="#E1D0FF"/>
<path d="M7.03512 16.0033H5.04218C5.04218 10.0045 9.99796 5.12183 16.0897 5.12183C19.7302 5.12183 23.1381 6.89554 25.2041 9.86503L23.5699 11.001C21.8759 8.56297 19.0791 7.10812 16.0897 7.10812C11.1007 7.11477 7.03512 11.1007 7.03512 16.0033Z" fill="#9E65FC"/>
<path d="M30.0602 17.9098H21.3511L25.709 13.718L30.0602 17.9098Z" fill="#E1D0FF"/>
<path d="M10.8283 13.718H2.12579L6.47705 17.9098L10.8283 13.718Z" fill="#9E65FC"/>
<path d="M14.4887 20.4808L16.7872 11.3664C16.9001 10.908 17.498 10.7884 17.7837 11.1604L21.2315 15.7176C21.4175 15.9634 21.371 16.3089 21.1318 16.5015L15.3855 21.0587C14.967 21.3975 14.3625 21.0056 14.4887 20.4808Z" fill="#C2EFDA"/>
<path d="M11.6654 20.4808L13.9639 11.3664C14.0768 10.908 14.6747 10.7884 14.9604 11.1604L18.4082 15.7176C18.5942 15.9634 18.5477 16.3089 18.3085 16.5015L12.5622 21.0587C12.1437 21.3975 11.5325 21.0056 11.6654 20.4808Z" fill="#5AD6A0"/>
<path fill-rule="evenodd" clip-rule="evenodd" d="M16.3754 13.0273L18.4148 15.7245C18.6008 15.9703 18.5543 16.3157 18.3152 16.5083L14.7943 19.2985L16.3754 13.0273Z" fill="#06C16E"/>
</svg>
