<svg width="40" height="40" viewBox="0 0 40 40" fill="none" xmlns="http://www.w3.org/2000/svg">
<path d="M28.9722 15.6H6.00078C5.33804 15.6 4.80078 16.1372 4.80078 16.8V32.019C4.80078 32.6818 5.33804 33.219 6.00078 33.219H28.9722C29.635 33.219 30.1722 32.6818 30.1722 32.019V16.8C30.1722 16.1372 29.635 15.6 28.9722 15.6Z" fill="#FF85BF"/>
<path d="M26.0376 22.3999H18.9899C18.6007 22.3999 18.2852 22.7154 18.2852 23.1047V23.1047C18.2852 23.4939 18.6007 23.8094 18.9899 23.8094H26.0376C26.4268 23.8094 26.7423 23.4939 26.7423 23.1047C26.7423 22.7154 26.4268 22.3999 26.0376 22.3999Z" fill="#FFE1F0"/>
<path d="M22.5137 25.2191H18.9899C18.6007 25.2191 18.2852 25.5346 18.2852 25.9239V25.9239C18.2852 26.3131 18.6007 26.6286 18.9899 26.6286H22.5137C22.9029 26.6286 23.2185 26.3131 23.2185 25.9239C23.2185 25.5346 22.9029 25.2191 22.5137 25.2191Z" fill="#FFE1F0"/>
<path d="M11.9621 24.1999C12.9142 24.1999 13.686 23.4388 13.686 22.4999C13.686 21.561 12.9142 20.7999 11.9621 20.7999C11.0101 20.7999 10.2383 21.561 10.2383 22.4999C10.2383 23.4388 11.0101 24.1999 11.9621 24.1999Z" fill="#FFE1F0"/>
<path fill-rule="evenodd" clip-rule="evenodd" d="M15.3136 27.6C15.0401 25.992 13.622 24.7667 11.9137 24.7667C10.2054 24.7667 8.78723 25.992 8.51367 27.6H15.3136Z" fill="#FFE1F0"/>
<path d="M27.7152 21.6C31.9126 21.6 35.3152 18.1974 35.3152 14C35.3152 9.80266 31.9126 6.40002 27.7152 6.40002C23.5179 6.40002 20.1152 9.80266 20.1152 14C20.1152 18.1974 23.5179 21.6 27.7152 21.6Z" fill="#BDEFD9"/>
<path fill-rule="evenodd" clip-rule="evenodd" d="M20.2812 15.6H28.9697C29.6325 15.6 30.1697 16.1372 30.1697 16.8V21.194C29.399 21.4572 28.5724 21.6 27.7125 21.6C24.064 21.6 21.016 19.0291 20.2812 15.6Z" fill="#5AD6A0"/>
<path d="M26.1967 17.3766L28.0246 10.134C28.1196 9.75781 28.6076 9.65865 28.8418 9.96801L31.5837 13.5893C31.7355 13.7898 31.6993 14.0748 31.5022 14.231L26.9324 17.8523C26.5859 18.1269 26.0885 17.8054 26.1967 17.3766Z" fill="#FF85BF"/>
<path d="M23.935 17.3766L25.7629 10.134C25.8579 9.75781 26.3459 9.65865 26.5801 9.96801L29.322 13.5893C29.4738 13.7898 29.4376 14.0748 29.2405 14.231L24.6707 17.8523C24.3242 18.1269 23.8268 17.8054 23.935 17.3766Z" fill="#A065FE"/>
<path fill-rule="evenodd" clip-rule="evenodd" d="M27.6944 11.4404L29.3214 13.5892C29.4732 13.7897 29.437 14.0748 29.2399 14.2309L26.4277 16.4595L27.6944 11.4404Z" fill="#7D47E5"/>
</svg>
